%TF.GenerationSoftware,KiCad,Pcbnew,7.0.6*%
%TF.CreationDate,2023-07-29T21:44:08+03:00*%
%TF.ProjectId,cat-toy-stm-c0,6361742d-746f-4792-9d73-746d2d63302e,rev?*%
%TF.SameCoordinates,Original*%
%TF.FileFunction,Legend,Top*%
%TF.FilePolarity,Positive*%
%FSLAX46Y46*%
G04 Gerber Fmt 4.6, Leading zero omitted, Abs format (unit mm)*
G04 Created by KiCad (PCBNEW 7.0.6) date 2023-07-29 21:44:08*
%MOMM*%
%LPD*%
G01*
G04 APERTURE LIST*
%ADD10C,0.150000*%
%ADD11C,0.120000*%
G04 APERTURE END LIST*
D10*
X170488095Y-93654819D02*
X170488095Y-92654819D01*
X170488095Y-93131009D02*
X171059523Y-93131009D01*
X171059523Y-93654819D02*
X171059523Y-92654819D01*
X171488095Y-92750057D02*
X171535714Y-92702438D01*
X171535714Y-92702438D02*
X171630952Y-92654819D01*
X171630952Y-92654819D02*
X171869047Y-92654819D01*
X171869047Y-92654819D02*
X171964285Y-92702438D01*
X171964285Y-92702438D02*
X172011904Y-92750057D01*
X172011904Y-92750057D02*
X172059523Y-92845295D01*
X172059523Y-92845295D02*
X172059523Y-92940533D01*
X172059523Y-92940533D02*
X172011904Y-93083390D01*
X172011904Y-93083390D02*
X171440476Y-93654819D01*
X171440476Y-93654819D02*
X172059523Y-93654819D01*
X190838095Y-101804819D02*
X190838095Y-100804819D01*
X190838095Y-101281009D02*
X191409523Y-101281009D01*
X191409523Y-101804819D02*
X191409523Y-100804819D01*
X192409523Y-101804819D02*
X191838095Y-101804819D01*
X192123809Y-101804819D02*
X192123809Y-100804819D01*
X192123809Y-100804819D02*
X192028571Y-100947676D01*
X192028571Y-100947676D02*
X191933333Y-101042914D01*
X191933333Y-101042914D02*
X191838095Y-101090533D01*
X175623809Y-86128628D02*
X175623809Y-86604819D01*
X175290476Y-85604819D02*
X175623809Y-86128628D01*
X175623809Y-86128628D02*
X175957142Y-85604819D01*
X176814285Y-86604819D02*
X176242857Y-86604819D01*
X176528571Y-86604819D02*
X176528571Y-85604819D01*
X176528571Y-85604819D02*
X176433333Y-85747676D01*
X176433333Y-85747676D02*
X176338095Y-85842914D01*
X176338095Y-85842914D02*
X176242857Y-85890533D01*
X180684819Y-75376666D02*
X180208628Y-75709999D01*
X180684819Y-75948094D02*
X179684819Y-75948094D01*
X179684819Y-75948094D02*
X179684819Y-75567142D01*
X179684819Y-75567142D02*
X179732438Y-75471904D01*
X179732438Y-75471904D02*
X179780057Y-75424285D01*
X179780057Y-75424285D02*
X179875295Y-75376666D01*
X179875295Y-75376666D02*
X180018152Y-75376666D01*
X180018152Y-75376666D02*
X180113390Y-75424285D01*
X180113390Y-75424285D02*
X180161009Y-75471904D01*
X180161009Y-75471904D02*
X180208628Y-75567142D01*
X180208628Y-75567142D02*
X180208628Y-75948094D01*
X180018152Y-74519523D02*
X180684819Y-74519523D01*
X179637200Y-74757618D02*
X180351485Y-74995713D01*
X180351485Y-74995713D02*
X180351485Y-74376666D01*
X182757142Y-74799580D02*
X182709523Y-74847200D01*
X182709523Y-74847200D02*
X182566666Y-74894819D01*
X182566666Y-74894819D02*
X182471428Y-74894819D01*
X182471428Y-74894819D02*
X182328571Y-74847200D01*
X182328571Y-74847200D02*
X182233333Y-74751961D01*
X182233333Y-74751961D02*
X182185714Y-74656723D01*
X182185714Y-74656723D02*
X182138095Y-74466247D01*
X182138095Y-74466247D02*
X182138095Y-74323390D01*
X182138095Y-74323390D02*
X182185714Y-74132914D01*
X182185714Y-74132914D02*
X182233333Y-74037676D01*
X182233333Y-74037676D02*
X182328571Y-73942438D01*
X182328571Y-73942438D02*
X182471428Y-73894819D01*
X182471428Y-73894819D02*
X182566666Y-73894819D01*
X182566666Y-73894819D02*
X182709523Y-73942438D01*
X182709523Y-73942438D02*
X182757142Y-73990057D01*
X183709523Y-74894819D02*
X183138095Y-74894819D01*
X183423809Y-74894819D02*
X183423809Y-73894819D01*
X183423809Y-73894819D02*
X183328571Y-74037676D01*
X183328571Y-74037676D02*
X183233333Y-74132914D01*
X183233333Y-74132914D02*
X183138095Y-74180533D01*
X184090476Y-73990057D02*
X184138095Y-73942438D01*
X184138095Y-73942438D02*
X184233333Y-73894819D01*
X184233333Y-73894819D02*
X184471428Y-73894819D01*
X184471428Y-73894819D02*
X184566666Y-73942438D01*
X184566666Y-73942438D02*
X184614285Y-73990057D01*
X184614285Y-73990057D02*
X184661904Y-74085295D01*
X184661904Y-74085295D02*
X184661904Y-74180533D01*
X184661904Y-74180533D02*
X184614285Y-74323390D01*
X184614285Y-74323390D02*
X184042857Y-74894819D01*
X184042857Y-74894819D02*
X184661904Y-74894819D01*
X167304819Y-90633333D02*
X168019104Y-90633333D01*
X168019104Y-90633333D02*
X168161961Y-90680952D01*
X168161961Y-90680952D02*
X168257200Y-90776190D01*
X168257200Y-90776190D02*
X168304819Y-90919047D01*
X168304819Y-90919047D02*
X168304819Y-91014285D01*
X167304819Y-89728571D02*
X167304819Y-89919047D01*
X167304819Y-89919047D02*
X167352438Y-90014285D01*
X167352438Y-90014285D02*
X167400057Y-90061904D01*
X167400057Y-90061904D02*
X167542914Y-90157142D01*
X167542914Y-90157142D02*
X167733390Y-90204761D01*
X167733390Y-90204761D02*
X168114342Y-90204761D01*
X168114342Y-90204761D02*
X168209580Y-90157142D01*
X168209580Y-90157142D02*
X168257200Y-90109523D01*
X168257200Y-90109523D02*
X168304819Y-90014285D01*
X168304819Y-90014285D02*
X168304819Y-89823809D01*
X168304819Y-89823809D02*
X168257200Y-89728571D01*
X168257200Y-89728571D02*
X168209580Y-89680952D01*
X168209580Y-89680952D02*
X168114342Y-89633333D01*
X168114342Y-89633333D02*
X167876247Y-89633333D01*
X167876247Y-89633333D02*
X167781009Y-89680952D01*
X167781009Y-89680952D02*
X167733390Y-89728571D01*
X167733390Y-89728571D02*
X167685771Y-89823809D01*
X167685771Y-89823809D02*
X167685771Y-90014285D01*
X167685771Y-90014285D02*
X167733390Y-90109523D01*
X167733390Y-90109523D02*
X167781009Y-90157142D01*
X167781009Y-90157142D02*
X167876247Y-90204761D01*
X175333333Y-87904819D02*
X175000000Y-87428628D01*
X174761905Y-87904819D02*
X174761905Y-86904819D01*
X174761905Y-86904819D02*
X175142857Y-86904819D01*
X175142857Y-86904819D02*
X175238095Y-86952438D01*
X175238095Y-86952438D02*
X175285714Y-87000057D01*
X175285714Y-87000057D02*
X175333333Y-87095295D01*
X175333333Y-87095295D02*
X175333333Y-87238152D01*
X175333333Y-87238152D02*
X175285714Y-87333390D01*
X175285714Y-87333390D02*
X175238095Y-87381009D01*
X175238095Y-87381009D02*
X175142857Y-87428628D01*
X175142857Y-87428628D02*
X174761905Y-87428628D01*
X175666667Y-86904819D02*
X176285714Y-86904819D01*
X176285714Y-86904819D02*
X175952381Y-87285771D01*
X175952381Y-87285771D02*
X176095238Y-87285771D01*
X176095238Y-87285771D02*
X176190476Y-87333390D01*
X176190476Y-87333390D02*
X176238095Y-87381009D01*
X176238095Y-87381009D02*
X176285714Y-87476247D01*
X176285714Y-87476247D02*
X176285714Y-87714342D01*
X176285714Y-87714342D02*
X176238095Y-87809580D01*
X176238095Y-87809580D02*
X176190476Y-87857200D01*
X176190476Y-87857200D02*
X176095238Y-87904819D01*
X176095238Y-87904819D02*
X175809524Y-87904819D01*
X175809524Y-87904819D02*
X175714286Y-87857200D01*
X175714286Y-87857200D02*
X175666667Y-87809580D01*
X174061905Y-96904819D02*
X174061905Y-95904819D01*
X174061905Y-95904819D02*
X174300000Y-95904819D01*
X174300000Y-95904819D02*
X174442857Y-95952438D01*
X174442857Y-95952438D02*
X174538095Y-96047676D01*
X174538095Y-96047676D02*
X174585714Y-96142914D01*
X174585714Y-96142914D02*
X174633333Y-96333390D01*
X174633333Y-96333390D02*
X174633333Y-96476247D01*
X174633333Y-96476247D02*
X174585714Y-96666723D01*
X174585714Y-96666723D02*
X174538095Y-96761961D01*
X174538095Y-96761961D02*
X174442857Y-96857200D01*
X174442857Y-96857200D02*
X174300000Y-96904819D01*
X174300000Y-96904819D02*
X174061905Y-96904819D01*
X175585714Y-96904819D02*
X175014286Y-96904819D01*
X175300000Y-96904819D02*
X175300000Y-95904819D01*
X175300000Y-95904819D02*
X175204762Y-96047676D01*
X175204762Y-96047676D02*
X175109524Y-96142914D01*
X175109524Y-96142914D02*
X175014286Y-96190533D01*
X190133333Y-97959580D02*
X190085714Y-98007200D01*
X190085714Y-98007200D02*
X189942857Y-98054819D01*
X189942857Y-98054819D02*
X189847619Y-98054819D01*
X189847619Y-98054819D02*
X189704762Y-98007200D01*
X189704762Y-98007200D02*
X189609524Y-97911961D01*
X189609524Y-97911961D02*
X189561905Y-97816723D01*
X189561905Y-97816723D02*
X189514286Y-97626247D01*
X189514286Y-97626247D02*
X189514286Y-97483390D01*
X189514286Y-97483390D02*
X189561905Y-97292914D01*
X189561905Y-97292914D02*
X189609524Y-97197676D01*
X189609524Y-97197676D02*
X189704762Y-97102438D01*
X189704762Y-97102438D02*
X189847619Y-97054819D01*
X189847619Y-97054819D02*
X189942857Y-97054819D01*
X189942857Y-97054819D02*
X190085714Y-97102438D01*
X190085714Y-97102438D02*
X190133333Y-97150057D01*
X190990476Y-97054819D02*
X190800000Y-97054819D01*
X190800000Y-97054819D02*
X190704762Y-97102438D01*
X190704762Y-97102438D02*
X190657143Y-97150057D01*
X190657143Y-97150057D02*
X190561905Y-97292914D01*
X190561905Y-97292914D02*
X190514286Y-97483390D01*
X190514286Y-97483390D02*
X190514286Y-97864342D01*
X190514286Y-97864342D02*
X190561905Y-97959580D01*
X190561905Y-97959580D02*
X190609524Y-98007200D01*
X190609524Y-98007200D02*
X190704762Y-98054819D01*
X190704762Y-98054819D02*
X190895238Y-98054819D01*
X190895238Y-98054819D02*
X190990476Y-98007200D01*
X190990476Y-98007200D02*
X191038095Y-97959580D01*
X191038095Y-97959580D02*
X191085714Y-97864342D01*
X191085714Y-97864342D02*
X191085714Y-97626247D01*
X191085714Y-97626247D02*
X191038095Y-97531009D01*
X191038095Y-97531009D02*
X190990476Y-97483390D01*
X190990476Y-97483390D02*
X190895238Y-97435771D01*
X190895238Y-97435771D02*
X190704762Y-97435771D01*
X190704762Y-97435771D02*
X190609524Y-97483390D01*
X190609524Y-97483390D02*
X190561905Y-97531009D01*
X190561905Y-97531009D02*
X190514286Y-97626247D01*
X188303333Y-90159580D02*
X188255714Y-90207200D01*
X188255714Y-90207200D02*
X188112857Y-90254819D01*
X188112857Y-90254819D02*
X188017619Y-90254819D01*
X188017619Y-90254819D02*
X187874762Y-90207200D01*
X187874762Y-90207200D02*
X187779524Y-90111961D01*
X187779524Y-90111961D02*
X187731905Y-90016723D01*
X187731905Y-90016723D02*
X187684286Y-89826247D01*
X187684286Y-89826247D02*
X187684286Y-89683390D01*
X187684286Y-89683390D02*
X187731905Y-89492914D01*
X187731905Y-89492914D02*
X187779524Y-89397676D01*
X187779524Y-89397676D02*
X187874762Y-89302438D01*
X187874762Y-89302438D02*
X188017619Y-89254819D01*
X188017619Y-89254819D02*
X188112857Y-89254819D01*
X188112857Y-89254819D02*
X188255714Y-89302438D01*
X188255714Y-89302438D02*
X188303333Y-89350057D01*
X188874762Y-89683390D02*
X188779524Y-89635771D01*
X188779524Y-89635771D02*
X188731905Y-89588152D01*
X188731905Y-89588152D02*
X188684286Y-89492914D01*
X188684286Y-89492914D02*
X188684286Y-89445295D01*
X188684286Y-89445295D02*
X188731905Y-89350057D01*
X188731905Y-89350057D02*
X188779524Y-89302438D01*
X188779524Y-89302438D02*
X188874762Y-89254819D01*
X188874762Y-89254819D02*
X189065238Y-89254819D01*
X189065238Y-89254819D02*
X189160476Y-89302438D01*
X189160476Y-89302438D02*
X189208095Y-89350057D01*
X189208095Y-89350057D02*
X189255714Y-89445295D01*
X189255714Y-89445295D02*
X189255714Y-89492914D01*
X189255714Y-89492914D02*
X189208095Y-89588152D01*
X189208095Y-89588152D02*
X189160476Y-89635771D01*
X189160476Y-89635771D02*
X189065238Y-89683390D01*
X189065238Y-89683390D02*
X188874762Y-89683390D01*
X188874762Y-89683390D02*
X188779524Y-89731009D01*
X188779524Y-89731009D02*
X188731905Y-89778628D01*
X188731905Y-89778628D02*
X188684286Y-89873866D01*
X188684286Y-89873866D02*
X188684286Y-90064342D01*
X188684286Y-90064342D02*
X188731905Y-90159580D01*
X188731905Y-90159580D02*
X188779524Y-90207200D01*
X188779524Y-90207200D02*
X188874762Y-90254819D01*
X188874762Y-90254819D02*
X189065238Y-90254819D01*
X189065238Y-90254819D02*
X189160476Y-90207200D01*
X189160476Y-90207200D02*
X189208095Y-90159580D01*
X189208095Y-90159580D02*
X189255714Y-90064342D01*
X189255714Y-90064342D02*
X189255714Y-89873866D01*
X189255714Y-89873866D02*
X189208095Y-89778628D01*
X189208095Y-89778628D02*
X189160476Y-89731009D01*
X189160476Y-89731009D02*
X189065238Y-89683390D01*
X181538095Y-90554819D02*
X181538095Y-91364342D01*
X181538095Y-91364342D02*
X181585714Y-91459580D01*
X181585714Y-91459580D02*
X181633333Y-91507200D01*
X181633333Y-91507200D02*
X181728571Y-91554819D01*
X181728571Y-91554819D02*
X181919047Y-91554819D01*
X181919047Y-91554819D02*
X182014285Y-91507200D01*
X182014285Y-91507200D02*
X182061904Y-91459580D01*
X182061904Y-91459580D02*
X182109523Y-91364342D01*
X182109523Y-91364342D02*
X182109523Y-90554819D01*
X183109523Y-91554819D02*
X182538095Y-91554819D01*
X182823809Y-91554819D02*
X182823809Y-90554819D01*
X182823809Y-90554819D02*
X182728571Y-90697676D01*
X182728571Y-90697676D02*
X182633333Y-90792914D01*
X182633333Y-90792914D02*
X182538095Y-90840533D01*
X188266667Y-78807200D02*
X188409524Y-78854819D01*
X188409524Y-78854819D02*
X188647619Y-78854819D01*
X188647619Y-78854819D02*
X188742857Y-78807200D01*
X188742857Y-78807200D02*
X188790476Y-78759580D01*
X188790476Y-78759580D02*
X188838095Y-78664342D01*
X188838095Y-78664342D02*
X188838095Y-78569104D01*
X188838095Y-78569104D02*
X188790476Y-78473866D01*
X188790476Y-78473866D02*
X188742857Y-78426247D01*
X188742857Y-78426247D02*
X188647619Y-78378628D01*
X188647619Y-78378628D02*
X188457143Y-78331009D01*
X188457143Y-78331009D02*
X188361905Y-78283390D01*
X188361905Y-78283390D02*
X188314286Y-78235771D01*
X188314286Y-78235771D02*
X188266667Y-78140533D01*
X188266667Y-78140533D02*
X188266667Y-78045295D01*
X188266667Y-78045295D02*
X188314286Y-77950057D01*
X188314286Y-77950057D02*
X188361905Y-77902438D01*
X188361905Y-77902438D02*
X188457143Y-77854819D01*
X188457143Y-77854819D02*
X188695238Y-77854819D01*
X188695238Y-77854819D02*
X188838095Y-77902438D01*
X189171429Y-77854819D02*
X189409524Y-78854819D01*
X189409524Y-78854819D02*
X189600000Y-78140533D01*
X189600000Y-78140533D02*
X189790476Y-78854819D01*
X189790476Y-78854819D02*
X190028572Y-77854819D01*
X190933333Y-78854819D02*
X190361905Y-78854819D01*
X190647619Y-78854819D02*
X190647619Y-77854819D01*
X190647619Y-77854819D02*
X190552381Y-77997676D01*
X190552381Y-77997676D02*
X190457143Y-78092914D01*
X190457143Y-78092914D02*
X190361905Y-78140533D01*
X176697142Y-78319580D02*
X176649523Y-78367200D01*
X176649523Y-78367200D02*
X176506666Y-78414819D01*
X176506666Y-78414819D02*
X176411428Y-78414819D01*
X176411428Y-78414819D02*
X176268571Y-78367200D01*
X176268571Y-78367200D02*
X176173333Y-78271961D01*
X176173333Y-78271961D02*
X176125714Y-78176723D01*
X176125714Y-78176723D02*
X176078095Y-77986247D01*
X176078095Y-77986247D02*
X176078095Y-77843390D01*
X176078095Y-77843390D02*
X176125714Y-77652914D01*
X176125714Y-77652914D02*
X176173333Y-77557676D01*
X176173333Y-77557676D02*
X176268571Y-77462438D01*
X176268571Y-77462438D02*
X176411428Y-77414819D01*
X176411428Y-77414819D02*
X176506666Y-77414819D01*
X176506666Y-77414819D02*
X176649523Y-77462438D01*
X176649523Y-77462438D02*
X176697142Y-77510057D01*
X177649523Y-78414819D02*
X177078095Y-78414819D01*
X177363809Y-78414819D02*
X177363809Y-77414819D01*
X177363809Y-77414819D02*
X177268571Y-77557676D01*
X177268571Y-77557676D02*
X177173333Y-77652914D01*
X177173333Y-77652914D02*
X177078095Y-77700533D01*
X178506666Y-77748152D02*
X178506666Y-78414819D01*
X178268571Y-77367200D02*
X178030476Y-78081485D01*
X178030476Y-78081485D02*
X178649523Y-78081485D01*
X187473333Y-91459580D02*
X187425714Y-91507200D01*
X187425714Y-91507200D02*
X187282857Y-91554819D01*
X187282857Y-91554819D02*
X187187619Y-91554819D01*
X187187619Y-91554819D02*
X187044762Y-91507200D01*
X187044762Y-91507200D02*
X186949524Y-91411961D01*
X186949524Y-91411961D02*
X186901905Y-91316723D01*
X186901905Y-91316723D02*
X186854286Y-91126247D01*
X186854286Y-91126247D02*
X186854286Y-90983390D01*
X186854286Y-90983390D02*
X186901905Y-90792914D01*
X186901905Y-90792914D02*
X186949524Y-90697676D01*
X186949524Y-90697676D02*
X187044762Y-90602438D01*
X187044762Y-90602438D02*
X187187619Y-90554819D01*
X187187619Y-90554819D02*
X187282857Y-90554819D01*
X187282857Y-90554819D02*
X187425714Y-90602438D01*
X187425714Y-90602438D02*
X187473333Y-90650057D01*
X187806667Y-90554819D02*
X188473333Y-90554819D01*
X188473333Y-90554819D02*
X188044762Y-91554819D01*
X168683333Y-87904819D02*
X168350000Y-87428628D01*
X168111905Y-87904819D02*
X168111905Y-86904819D01*
X168111905Y-86904819D02*
X168492857Y-86904819D01*
X168492857Y-86904819D02*
X168588095Y-86952438D01*
X168588095Y-86952438D02*
X168635714Y-87000057D01*
X168635714Y-87000057D02*
X168683333Y-87095295D01*
X168683333Y-87095295D02*
X168683333Y-87238152D01*
X168683333Y-87238152D02*
X168635714Y-87333390D01*
X168635714Y-87333390D02*
X168588095Y-87381009D01*
X168588095Y-87381009D02*
X168492857Y-87428628D01*
X168492857Y-87428628D02*
X168111905Y-87428628D01*
X169064286Y-87000057D02*
X169111905Y-86952438D01*
X169111905Y-86952438D02*
X169207143Y-86904819D01*
X169207143Y-86904819D02*
X169445238Y-86904819D01*
X169445238Y-86904819D02*
X169540476Y-86952438D01*
X169540476Y-86952438D02*
X169588095Y-87000057D01*
X169588095Y-87000057D02*
X169635714Y-87095295D01*
X169635714Y-87095295D02*
X169635714Y-87190533D01*
X169635714Y-87190533D02*
X169588095Y-87333390D01*
X169588095Y-87333390D02*
X169016667Y-87904819D01*
X169016667Y-87904819D02*
X169635714Y-87904819D01*
X190133333Y-96759580D02*
X190085714Y-96807200D01*
X190085714Y-96807200D02*
X189942857Y-96854819D01*
X189942857Y-96854819D02*
X189847619Y-96854819D01*
X189847619Y-96854819D02*
X189704762Y-96807200D01*
X189704762Y-96807200D02*
X189609524Y-96711961D01*
X189609524Y-96711961D02*
X189561905Y-96616723D01*
X189561905Y-96616723D02*
X189514286Y-96426247D01*
X189514286Y-96426247D02*
X189514286Y-96283390D01*
X189514286Y-96283390D02*
X189561905Y-96092914D01*
X189561905Y-96092914D02*
X189609524Y-95997676D01*
X189609524Y-95997676D02*
X189704762Y-95902438D01*
X189704762Y-95902438D02*
X189847619Y-95854819D01*
X189847619Y-95854819D02*
X189942857Y-95854819D01*
X189942857Y-95854819D02*
X190085714Y-95902438D01*
X190085714Y-95902438D02*
X190133333Y-95950057D01*
X191038095Y-95854819D02*
X190561905Y-95854819D01*
X190561905Y-95854819D02*
X190514286Y-96331009D01*
X190514286Y-96331009D02*
X190561905Y-96283390D01*
X190561905Y-96283390D02*
X190657143Y-96235771D01*
X190657143Y-96235771D02*
X190895238Y-96235771D01*
X190895238Y-96235771D02*
X190990476Y-96283390D01*
X190990476Y-96283390D02*
X191038095Y-96331009D01*
X191038095Y-96331009D02*
X191085714Y-96426247D01*
X191085714Y-96426247D02*
X191085714Y-96664342D01*
X191085714Y-96664342D02*
X191038095Y-96759580D01*
X191038095Y-96759580D02*
X190990476Y-96807200D01*
X190990476Y-96807200D02*
X190895238Y-96854819D01*
X190895238Y-96854819D02*
X190657143Y-96854819D01*
X190657143Y-96854819D02*
X190561905Y-96807200D01*
X190561905Y-96807200D02*
X190514286Y-96759580D01*
X178738095Y-81454819D02*
X178738095Y-82264342D01*
X178738095Y-82264342D02*
X178785714Y-82359580D01*
X178785714Y-82359580D02*
X178833333Y-82407200D01*
X178833333Y-82407200D02*
X178928571Y-82454819D01*
X178928571Y-82454819D02*
X179119047Y-82454819D01*
X179119047Y-82454819D02*
X179214285Y-82407200D01*
X179214285Y-82407200D02*
X179261904Y-82359580D01*
X179261904Y-82359580D02*
X179309523Y-82264342D01*
X179309523Y-82264342D02*
X179309523Y-81454819D01*
X179738095Y-81550057D02*
X179785714Y-81502438D01*
X179785714Y-81502438D02*
X179880952Y-81454819D01*
X179880952Y-81454819D02*
X180119047Y-81454819D01*
X180119047Y-81454819D02*
X180214285Y-81502438D01*
X180214285Y-81502438D02*
X180261904Y-81550057D01*
X180261904Y-81550057D02*
X180309523Y-81645295D01*
X180309523Y-81645295D02*
X180309523Y-81740533D01*
X180309523Y-81740533D02*
X180261904Y-81883390D01*
X180261904Y-81883390D02*
X179690476Y-82454819D01*
X179690476Y-82454819D02*
X180309523Y-82454819D01*
X200866666Y-88854819D02*
X200866666Y-89569104D01*
X200866666Y-89569104D02*
X200819047Y-89711961D01*
X200819047Y-89711961D02*
X200723809Y-89807200D01*
X200723809Y-89807200D02*
X200580952Y-89854819D01*
X200580952Y-89854819D02*
X200485714Y-89854819D01*
X201866666Y-89854819D02*
X201295238Y-89854819D01*
X201580952Y-89854819D02*
X201580952Y-88854819D01*
X201580952Y-88854819D02*
X201485714Y-88997676D01*
X201485714Y-88997676D02*
X201390476Y-89092914D01*
X201390476Y-89092914D02*
X201295238Y-89140533D01*
X177124819Y-75366666D02*
X176648628Y-75699999D01*
X177124819Y-75938094D02*
X176124819Y-75938094D01*
X176124819Y-75938094D02*
X176124819Y-75557142D01*
X176124819Y-75557142D02*
X176172438Y-75461904D01*
X176172438Y-75461904D02*
X176220057Y-75414285D01*
X176220057Y-75414285D02*
X176315295Y-75366666D01*
X176315295Y-75366666D02*
X176458152Y-75366666D01*
X176458152Y-75366666D02*
X176553390Y-75414285D01*
X176553390Y-75414285D02*
X176601009Y-75461904D01*
X176601009Y-75461904D02*
X176648628Y-75557142D01*
X176648628Y-75557142D02*
X176648628Y-75938094D01*
X176124819Y-74461904D02*
X176124819Y-74938094D01*
X176124819Y-74938094D02*
X176601009Y-74985713D01*
X176601009Y-74985713D02*
X176553390Y-74938094D01*
X176553390Y-74938094D02*
X176505771Y-74842856D01*
X176505771Y-74842856D02*
X176505771Y-74604761D01*
X176505771Y-74604761D02*
X176553390Y-74509523D01*
X176553390Y-74509523D02*
X176601009Y-74461904D01*
X176601009Y-74461904D02*
X176696247Y-74414285D01*
X176696247Y-74414285D02*
X176934342Y-74414285D01*
X176934342Y-74414285D02*
X177029580Y-74461904D01*
X177029580Y-74461904D02*
X177077200Y-74509523D01*
X177077200Y-74509523D02*
X177124819Y-74604761D01*
X177124819Y-74604761D02*
X177124819Y-74842856D01*
X177124819Y-74842856D02*
X177077200Y-74938094D01*
X177077200Y-74938094D02*
X177029580Y-74985713D01*
X200516666Y-73754819D02*
X200516666Y-74469104D01*
X200516666Y-74469104D02*
X200469047Y-74611961D01*
X200469047Y-74611961D02*
X200373809Y-74707200D01*
X200373809Y-74707200D02*
X200230952Y-74754819D01*
X200230952Y-74754819D02*
X200135714Y-74754819D01*
X200897619Y-73754819D02*
X201516666Y-73754819D01*
X201516666Y-73754819D02*
X201183333Y-74135771D01*
X201183333Y-74135771D02*
X201326190Y-74135771D01*
X201326190Y-74135771D02*
X201421428Y-74183390D01*
X201421428Y-74183390D02*
X201469047Y-74231009D01*
X201469047Y-74231009D02*
X201516666Y-74326247D01*
X201516666Y-74326247D02*
X201516666Y-74564342D01*
X201516666Y-74564342D02*
X201469047Y-74659580D01*
X201469047Y-74659580D02*
X201421428Y-74707200D01*
X201421428Y-74707200D02*
X201326190Y-74754819D01*
X201326190Y-74754819D02*
X201040476Y-74754819D01*
X201040476Y-74754819D02*
X200945238Y-74707200D01*
X200945238Y-74707200D02*
X200897619Y-74659580D01*
X199916666Y-69154819D02*
X199916666Y-69869104D01*
X199916666Y-69869104D02*
X199869047Y-70011961D01*
X199869047Y-70011961D02*
X199773809Y-70107200D01*
X199773809Y-70107200D02*
X199630952Y-70154819D01*
X199630952Y-70154819D02*
X199535714Y-70154819D01*
X200821428Y-69488152D02*
X200821428Y-70154819D01*
X200583333Y-69107200D02*
X200345238Y-69821485D01*
X200345238Y-69821485D02*
X200964285Y-69821485D01*
X194866666Y-91354819D02*
X194866666Y-92069104D01*
X194866666Y-92069104D02*
X194819047Y-92211961D01*
X194819047Y-92211961D02*
X194723809Y-92307200D01*
X194723809Y-92307200D02*
X194580952Y-92354819D01*
X194580952Y-92354819D02*
X194485714Y-92354819D01*
X195390476Y-92354819D02*
X195580952Y-92354819D01*
X195580952Y-92354819D02*
X195676190Y-92307200D01*
X195676190Y-92307200D02*
X195723809Y-92259580D01*
X195723809Y-92259580D02*
X195819047Y-92116723D01*
X195819047Y-92116723D02*
X195866666Y-91926247D01*
X195866666Y-91926247D02*
X195866666Y-91545295D01*
X195866666Y-91545295D02*
X195819047Y-91450057D01*
X195819047Y-91450057D02*
X195771428Y-91402438D01*
X195771428Y-91402438D02*
X195676190Y-91354819D01*
X195676190Y-91354819D02*
X195485714Y-91354819D01*
X195485714Y-91354819D02*
X195390476Y-91402438D01*
X195390476Y-91402438D02*
X195342857Y-91450057D01*
X195342857Y-91450057D02*
X195295238Y-91545295D01*
X195295238Y-91545295D02*
X195295238Y-91783390D01*
X195295238Y-91783390D02*
X195342857Y-91878628D01*
X195342857Y-91878628D02*
X195390476Y-91926247D01*
X195390476Y-91926247D02*
X195485714Y-91973866D01*
X195485714Y-91973866D02*
X195676190Y-91973866D01*
X195676190Y-91973866D02*
X195771428Y-91926247D01*
X195771428Y-91926247D02*
X195819047Y-91878628D01*
X195819047Y-91878628D02*
X195866666Y-91783390D01*
X190133333Y-94359580D02*
X190085714Y-94407200D01*
X190085714Y-94407200D02*
X189942857Y-94454819D01*
X189942857Y-94454819D02*
X189847619Y-94454819D01*
X189847619Y-94454819D02*
X189704762Y-94407200D01*
X189704762Y-94407200D02*
X189609524Y-94311961D01*
X189609524Y-94311961D02*
X189561905Y-94216723D01*
X189561905Y-94216723D02*
X189514286Y-94026247D01*
X189514286Y-94026247D02*
X189514286Y-93883390D01*
X189514286Y-93883390D02*
X189561905Y-93692914D01*
X189561905Y-93692914D02*
X189609524Y-93597676D01*
X189609524Y-93597676D02*
X189704762Y-93502438D01*
X189704762Y-93502438D02*
X189847619Y-93454819D01*
X189847619Y-93454819D02*
X189942857Y-93454819D01*
X189942857Y-93454819D02*
X190085714Y-93502438D01*
X190085714Y-93502438D02*
X190133333Y-93550057D01*
X190466667Y-93454819D02*
X191085714Y-93454819D01*
X191085714Y-93454819D02*
X190752381Y-93835771D01*
X190752381Y-93835771D02*
X190895238Y-93835771D01*
X190895238Y-93835771D02*
X190990476Y-93883390D01*
X190990476Y-93883390D02*
X191038095Y-93931009D01*
X191038095Y-93931009D02*
X191085714Y-94026247D01*
X191085714Y-94026247D02*
X191085714Y-94264342D01*
X191085714Y-94264342D02*
X191038095Y-94359580D01*
X191038095Y-94359580D02*
X190990476Y-94407200D01*
X190990476Y-94407200D02*
X190895238Y-94454819D01*
X190895238Y-94454819D02*
X190609524Y-94454819D01*
X190609524Y-94454819D02*
X190514286Y-94407200D01*
X190514286Y-94407200D02*
X190466667Y-94359580D01*
X190653333Y-86759580D02*
X190605714Y-86807200D01*
X190605714Y-86807200D02*
X190462857Y-86854819D01*
X190462857Y-86854819D02*
X190367619Y-86854819D01*
X190367619Y-86854819D02*
X190224762Y-86807200D01*
X190224762Y-86807200D02*
X190129524Y-86711961D01*
X190129524Y-86711961D02*
X190081905Y-86616723D01*
X190081905Y-86616723D02*
X190034286Y-86426247D01*
X190034286Y-86426247D02*
X190034286Y-86283390D01*
X190034286Y-86283390D02*
X190081905Y-86092914D01*
X190081905Y-86092914D02*
X190129524Y-85997676D01*
X190129524Y-85997676D02*
X190224762Y-85902438D01*
X190224762Y-85902438D02*
X190367619Y-85854819D01*
X190367619Y-85854819D02*
X190462857Y-85854819D01*
X190462857Y-85854819D02*
X190605714Y-85902438D01*
X190605714Y-85902438D02*
X190653333Y-85950057D01*
X191129524Y-86854819D02*
X191320000Y-86854819D01*
X191320000Y-86854819D02*
X191415238Y-86807200D01*
X191415238Y-86807200D02*
X191462857Y-86759580D01*
X191462857Y-86759580D02*
X191558095Y-86616723D01*
X191558095Y-86616723D02*
X191605714Y-86426247D01*
X191605714Y-86426247D02*
X191605714Y-86045295D01*
X191605714Y-86045295D02*
X191558095Y-85950057D01*
X191558095Y-85950057D02*
X191510476Y-85902438D01*
X191510476Y-85902438D02*
X191415238Y-85854819D01*
X191415238Y-85854819D02*
X191224762Y-85854819D01*
X191224762Y-85854819D02*
X191129524Y-85902438D01*
X191129524Y-85902438D02*
X191081905Y-85950057D01*
X191081905Y-85950057D02*
X191034286Y-86045295D01*
X191034286Y-86045295D02*
X191034286Y-86283390D01*
X191034286Y-86283390D02*
X191081905Y-86378628D01*
X191081905Y-86378628D02*
X191129524Y-86426247D01*
X191129524Y-86426247D02*
X191224762Y-86473866D01*
X191224762Y-86473866D02*
X191415238Y-86473866D01*
X191415238Y-86473866D02*
X191510476Y-86426247D01*
X191510476Y-86426247D02*
X191558095Y-86378628D01*
X191558095Y-86378628D02*
X191605714Y-86283390D01*
X190133333Y-95559580D02*
X190085714Y-95607200D01*
X190085714Y-95607200D02*
X189942857Y-95654819D01*
X189942857Y-95654819D02*
X189847619Y-95654819D01*
X189847619Y-95654819D02*
X189704762Y-95607200D01*
X189704762Y-95607200D02*
X189609524Y-95511961D01*
X189609524Y-95511961D02*
X189561905Y-95416723D01*
X189561905Y-95416723D02*
X189514286Y-95226247D01*
X189514286Y-95226247D02*
X189514286Y-95083390D01*
X189514286Y-95083390D02*
X189561905Y-94892914D01*
X189561905Y-94892914D02*
X189609524Y-94797676D01*
X189609524Y-94797676D02*
X189704762Y-94702438D01*
X189704762Y-94702438D02*
X189847619Y-94654819D01*
X189847619Y-94654819D02*
X189942857Y-94654819D01*
X189942857Y-94654819D02*
X190085714Y-94702438D01*
X190085714Y-94702438D02*
X190133333Y-94750057D01*
X190990476Y-94988152D02*
X190990476Y-95654819D01*
X190752381Y-94607200D02*
X190514286Y-95321485D01*
X190514286Y-95321485D02*
X191133333Y-95321485D01*
X169816666Y-81954819D02*
X169816666Y-82669104D01*
X169816666Y-82669104D02*
X169769047Y-82811961D01*
X169769047Y-82811961D02*
X169673809Y-82907200D01*
X169673809Y-82907200D02*
X169530952Y-82954819D01*
X169530952Y-82954819D02*
X169435714Y-82954819D01*
X170769047Y-81954819D02*
X170292857Y-81954819D01*
X170292857Y-81954819D02*
X170245238Y-82431009D01*
X170245238Y-82431009D02*
X170292857Y-82383390D01*
X170292857Y-82383390D02*
X170388095Y-82335771D01*
X170388095Y-82335771D02*
X170626190Y-82335771D01*
X170626190Y-82335771D02*
X170721428Y-82383390D01*
X170721428Y-82383390D02*
X170769047Y-82431009D01*
X170769047Y-82431009D02*
X170816666Y-82526247D01*
X170816666Y-82526247D02*
X170816666Y-82764342D01*
X170816666Y-82764342D02*
X170769047Y-82859580D01*
X170769047Y-82859580D02*
X170721428Y-82907200D01*
X170721428Y-82907200D02*
X170626190Y-82954819D01*
X170626190Y-82954819D02*
X170388095Y-82954819D01*
X170388095Y-82954819D02*
X170292857Y-82907200D01*
X170292857Y-82907200D02*
X170245238Y-82859580D01*
X172096666Y-74554819D02*
X172096666Y-75269104D01*
X172096666Y-75269104D02*
X172049047Y-75411961D01*
X172049047Y-75411961D02*
X171953809Y-75507200D01*
X171953809Y-75507200D02*
X171810952Y-75554819D01*
X171810952Y-75554819D02*
X171715714Y-75554819D01*
X172477619Y-74554819D02*
X173144285Y-74554819D01*
X173144285Y-74554819D02*
X172715714Y-75554819D01*
X180257142Y-78259580D02*
X180209523Y-78307200D01*
X180209523Y-78307200D02*
X180066666Y-78354819D01*
X180066666Y-78354819D02*
X179971428Y-78354819D01*
X179971428Y-78354819D02*
X179828571Y-78307200D01*
X179828571Y-78307200D02*
X179733333Y-78211961D01*
X179733333Y-78211961D02*
X179685714Y-78116723D01*
X179685714Y-78116723D02*
X179638095Y-77926247D01*
X179638095Y-77926247D02*
X179638095Y-77783390D01*
X179638095Y-77783390D02*
X179685714Y-77592914D01*
X179685714Y-77592914D02*
X179733333Y-77497676D01*
X179733333Y-77497676D02*
X179828571Y-77402438D01*
X179828571Y-77402438D02*
X179971428Y-77354819D01*
X179971428Y-77354819D02*
X180066666Y-77354819D01*
X180066666Y-77354819D02*
X180209523Y-77402438D01*
X180209523Y-77402438D02*
X180257142Y-77450057D01*
X181209523Y-78354819D02*
X180638095Y-78354819D01*
X180923809Y-78354819D02*
X180923809Y-77354819D01*
X180923809Y-77354819D02*
X180828571Y-77497676D01*
X180828571Y-77497676D02*
X180733333Y-77592914D01*
X180733333Y-77592914D02*
X180638095Y-77640533D01*
X181542857Y-77354819D02*
X182161904Y-77354819D01*
X182161904Y-77354819D02*
X181828571Y-77735771D01*
X181828571Y-77735771D02*
X181971428Y-77735771D01*
X181971428Y-77735771D02*
X182066666Y-77783390D01*
X182066666Y-77783390D02*
X182114285Y-77831009D01*
X182114285Y-77831009D02*
X182161904Y-77926247D01*
X182161904Y-77926247D02*
X182161904Y-78164342D01*
X182161904Y-78164342D02*
X182114285Y-78259580D01*
X182114285Y-78259580D02*
X182066666Y-78307200D01*
X182066666Y-78307200D02*
X181971428Y-78354819D01*
X181971428Y-78354819D02*
X181685714Y-78354819D01*
X181685714Y-78354819D02*
X181590476Y-78307200D01*
X181590476Y-78307200D02*
X181542857Y-78259580D01*
X184983333Y-103939580D02*
X184935714Y-103987200D01*
X184935714Y-103987200D02*
X184792857Y-104034819D01*
X184792857Y-104034819D02*
X184697619Y-104034819D01*
X184697619Y-104034819D02*
X184554762Y-103987200D01*
X184554762Y-103987200D02*
X184459524Y-103891961D01*
X184459524Y-103891961D02*
X184411905Y-103796723D01*
X184411905Y-103796723D02*
X184364286Y-103606247D01*
X184364286Y-103606247D02*
X184364286Y-103463390D01*
X184364286Y-103463390D02*
X184411905Y-103272914D01*
X184411905Y-103272914D02*
X184459524Y-103177676D01*
X184459524Y-103177676D02*
X184554762Y-103082438D01*
X184554762Y-103082438D02*
X184697619Y-103034819D01*
X184697619Y-103034819D02*
X184792857Y-103034819D01*
X184792857Y-103034819D02*
X184935714Y-103082438D01*
X184935714Y-103082438D02*
X184983333Y-103130057D01*
X185935714Y-104034819D02*
X185364286Y-104034819D01*
X185650000Y-104034819D02*
X185650000Y-103034819D01*
X185650000Y-103034819D02*
X185554762Y-103177676D01*
X185554762Y-103177676D02*
X185459524Y-103272914D01*
X185459524Y-103272914D02*
X185364286Y-103320533D01*
X174833333Y-99854819D02*
X174500000Y-99378628D01*
X174261905Y-99854819D02*
X174261905Y-98854819D01*
X174261905Y-98854819D02*
X174642857Y-98854819D01*
X174642857Y-98854819D02*
X174738095Y-98902438D01*
X174738095Y-98902438D02*
X174785714Y-98950057D01*
X174785714Y-98950057D02*
X174833333Y-99045295D01*
X174833333Y-99045295D02*
X174833333Y-99188152D01*
X174833333Y-99188152D02*
X174785714Y-99283390D01*
X174785714Y-99283390D02*
X174738095Y-99331009D01*
X174738095Y-99331009D02*
X174642857Y-99378628D01*
X174642857Y-99378628D02*
X174261905Y-99378628D01*
X175785714Y-99854819D02*
X175214286Y-99854819D01*
X175500000Y-99854819D02*
X175500000Y-98854819D01*
X175500000Y-98854819D02*
X175404762Y-98997676D01*
X175404762Y-98997676D02*
X175309524Y-99092914D01*
X175309524Y-99092914D02*
X175214286Y-99140533D01*
X200666666Y-80454819D02*
X200666666Y-81169104D01*
X200666666Y-81169104D02*
X200619047Y-81311961D01*
X200619047Y-81311961D02*
X200523809Y-81407200D01*
X200523809Y-81407200D02*
X200380952Y-81454819D01*
X200380952Y-81454819D02*
X200285714Y-81454819D01*
X201095238Y-80550057D02*
X201142857Y-80502438D01*
X201142857Y-80502438D02*
X201238095Y-80454819D01*
X201238095Y-80454819D02*
X201476190Y-80454819D01*
X201476190Y-80454819D02*
X201571428Y-80502438D01*
X201571428Y-80502438D02*
X201619047Y-80550057D01*
X201619047Y-80550057D02*
X201666666Y-80645295D01*
X201666666Y-80645295D02*
X201666666Y-80740533D01*
X201666666Y-80740533D02*
X201619047Y-80883390D01*
X201619047Y-80883390D02*
X201047619Y-81454819D01*
X201047619Y-81454819D02*
X201666666Y-81454819D01*
X180133333Y-94359580D02*
X180085714Y-94407200D01*
X180085714Y-94407200D02*
X179942857Y-94454819D01*
X179942857Y-94454819D02*
X179847619Y-94454819D01*
X179847619Y-94454819D02*
X179704762Y-94407200D01*
X179704762Y-94407200D02*
X179609524Y-94311961D01*
X179609524Y-94311961D02*
X179561905Y-94216723D01*
X179561905Y-94216723D02*
X179514286Y-94026247D01*
X179514286Y-94026247D02*
X179514286Y-93883390D01*
X179514286Y-93883390D02*
X179561905Y-93692914D01*
X179561905Y-93692914D02*
X179609524Y-93597676D01*
X179609524Y-93597676D02*
X179704762Y-93502438D01*
X179704762Y-93502438D02*
X179847619Y-93454819D01*
X179847619Y-93454819D02*
X179942857Y-93454819D01*
X179942857Y-93454819D02*
X180085714Y-93502438D01*
X180085714Y-93502438D02*
X180133333Y-93550057D01*
X180514286Y-93550057D02*
X180561905Y-93502438D01*
X180561905Y-93502438D02*
X180657143Y-93454819D01*
X180657143Y-93454819D02*
X180895238Y-93454819D01*
X180895238Y-93454819D02*
X180990476Y-93502438D01*
X180990476Y-93502438D02*
X181038095Y-93550057D01*
X181038095Y-93550057D02*
X181085714Y-93645295D01*
X181085714Y-93645295D02*
X181085714Y-93740533D01*
X181085714Y-93740533D02*
X181038095Y-93883390D01*
X181038095Y-93883390D02*
X180466667Y-94454819D01*
X180466667Y-94454819D02*
X181085714Y-94454819D01*
D11*
%TO.C,Y1*%
X173400000Y-85450000D02*
X176700000Y-85450000D01*
X176700000Y-85450000D02*
X176700000Y-81450000D01*
%TO.C,R4*%
X181020000Y-75363641D02*
X181020000Y-75056359D01*
X181780000Y-75363641D02*
X181780000Y-75056359D01*
%TO.C,C12*%
X183292164Y-75240000D02*
X183507836Y-75240000D01*
X183292164Y-75960000D02*
X183507836Y-75960000D01*
%TO.C,J6*%
X168850000Y-91630000D02*
X168850000Y-90300000D01*
X170180000Y-91630000D02*
X168850000Y-91630000D01*
X171450000Y-91630000D02*
X179130000Y-91630000D01*
X171450000Y-91630000D02*
X171450000Y-88970000D01*
X179130000Y-91630000D02*
X179130000Y-88970000D01*
X171450000Y-88970000D02*
X179130000Y-88970000D01*
%TO.C,R3*%
X177603641Y-87830000D02*
X177296359Y-87830000D01*
X177603641Y-87070000D02*
X177296359Y-87070000D01*
%TO.C,C11*%
X176940000Y-82387836D02*
X176940000Y-82172164D01*
X177660000Y-82387836D02*
X177660000Y-82172164D01*
%TO.C,D1*%
X175765000Y-97935000D02*
X177235000Y-97935000D01*
X177235000Y-97935000D02*
X177235000Y-95650000D01*
X175765000Y-95650000D02*
X175765000Y-97935000D01*
%TO.C,C6*%
X192142164Y-97240000D02*
X192357836Y-97240000D01*
X192142164Y-97960000D02*
X192357836Y-97960000D01*
%TO.C,C8*%
X185754420Y-89290000D02*
X186035580Y-89290000D01*
X185754420Y-90310000D02*
X186035580Y-90310000D01*
%TO.C,U1*%
X181690000Y-100250000D02*
X181690000Y-94240000D01*
X188510000Y-98000000D02*
X188510000Y-94240000D01*
X181690000Y-94240000D02*
X182950000Y-94240000D01*
X188510000Y-94240000D02*
X187250000Y-94240000D01*
%TO.C,SW1*%
X191590000Y-79730000D02*
X191590000Y-83870000D01*
X191290000Y-79730000D02*
X191590000Y-79730000D01*
X188450000Y-79730000D02*
X188750000Y-79730000D01*
X191590000Y-83870000D02*
X191290000Y-83870000D01*
X188750000Y-83870000D02*
X188450000Y-83870000D01*
X188450000Y-83870000D02*
X188450000Y-79730000D01*
%TO.C,C14*%
X177427836Y-77160000D02*
X177212164Y-77160000D01*
X177427836Y-76440000D02*
X177212164Y-76440000D01*
%TO.C,C7*%
X185512164Y-90740000D02*
X185727836Y-90740000D01*
X185512164Y-91460000D02*
X185727836Y-91460000D01*
%TO.C,R2*%
X170596359Y-87070000D02*
X170903641Y-87070000D01*
X170596359Y-87830000D02*
X170903641Y-87830000D01*
%TO.C,C5*%
X192142164Y-96040000D02*
X192357836Y-96040000D01*
X192142164Y-96760000D02*
X192357836Y-96760000D01*
%TO.C,U2*%
X180540000Y-83137500D02*
X180540000Y-86737500D01*
X180540000Y-83137500D02*
X180540000Y-80937500D01*
X187310000Y-83137500D02*
X187310000Y-85337500D01*
X187310000Y-83137500D02*
X187310000Y-80937500D01*
%TO.C,J1*%
X201710000Y-85670000D02*
X201710000Y-87000000D01*
X200380000Y-85670000D02*
X201710000Y-85670000D01*
X199110000Y-85670000D02*
X193970000Y-85670000D01*
X199110000Y-85670000D02*
X199110000Y-88330000D01*
X193970000Y-85670000D02*
X193970000Y-88330000D01*
X199110000Y-88330000D02*
X193970000Y-88330000D01*
%TO.C,R5*%
X177460000Y-75353641D02*
X177460000Y-75046359D01*
X178220000Y-75353641D02*
X178220000Y-75046359D01*
%TO.C,J3*%
X201630000Y-75470000D02*
X201630000Y-76800000D01*
X200300000Y-75470000D02*
X201630000Y-75470000D01*
X199030000Y-75470000D02*
X191350000Y-75470000D01*
X199030000Y-75470000D02*
X199030000Y-78130000D01*
X191350000Y-75470000D02*
X191350000Y-78130000D01*
X199030000Y-78130000D02*
X191350000Y-78130000D01*
%TO.C,J4*%
X199030000Y-73530000D02*
X186270000Y-73530000D01*
X186270000Y-70870000D02*
X186270000Y-73530000D01*
X199030000Y-70870000D02*
X199030000Y-73530000D01*
X199030000Y-70870000D02*
X186270000Y-70870000D01*
X200300000Y-70870000D02*
X201630000Y-70870000D01*
X201630000Y-70870000D02*
X201630000Y-72200000D01*
%TO.C,J9*%
X201730000Y-90570000D02*
X201730000Y-91900000D01*
X200400000Y-90570000D02*
X201730000Y-90570000D01*
X199130000Y-90570000D02*
X196530000Y-90570000D01*
X199130000Y-90570000D02*
X199130000Y-93230000D01*
X196530000Y-90570000D02*
X196530000Y-93230000D01*
X199130000Y-93230000D02*
X196530000Y-93230000D01*
%TO.C,C3*%
X192152164Y-93640000D02*
X192367836Y-93640000D01*
X192152164Y-94360000D02*
X192367836Y-94360000D01*
D10*
%TO.C,J8*%
X198600000Y-103225000D02*
X200000000Y-103225000D01*
X202400000Y-103225000D02*
X202550000Y-103225000D01*
X202550000Y-103225000D02*
X202550000Y-102925000D01*
X202550000Y-102925000D02*
X203000000Y-102925000D01*
X196425000Y-100875000D02*
X196850000Y-100875000D01*
X196850000Y-100875000D02*
X196850000Y-101875000D01*
X196425000Y-100150000D02*
X196425000Y-100875000D01*
X196850000Y-97275000D02*
X196850000Y-96275000D01*
X202550000Y-95225000D02*
X202550000Y-94925000D01*
X203000000Y-95225000D02*
X202550000Y-95225000D01*
X200000000Y-94925000D02*
X198600000Y-94925000D01*
X202550000Y-94925000D02*
X202400000Y-94925000D01*
D11*
%TO.C,C9*%
X190712164Y-84840000D02*
X190927836Y-84840000D01*
X190712164Y-85560000D02*
X190927836Y-85560000D01*
%TO.C,C4*%
X192142164Y-94840000D02*
X192357836Y-94840000D01*
X192142164Y-95560000D02*
X192357836Y-95560000D01*
%TO.C,J5*%
X171480000Y-73600000D02*
X171480000Y-81280000D01*
X168820000Y-81280000D02*
X171480000Y-81280000D01*
X168820000Y-73600000D02*
X171480000Y-73600000D01*
X168820000Y-73600000D02*
X168820000Y-81280000D01*
X168820000Y-72330000D02*
X168820000Y-71000000D01*
X168820000Y-71000000D02*
X170150000Y-71000000D01*
%TO.C,J7*%
X185290000Y-70870000D02*
X185290000Y-72200000D01*
X183960000Y-70870000D02*
X185290000Y-70870000D01*
X182690000Y-70870000D02*
X172470000Y-70870000D01*
X182690000Y-70870000D02*
X182690000Y-73530000D01*
X172470000Y-70870000D02*
X172470000Y-73530000D01*
X182690000Y-73530000D02*
X172470000Y-73530000D01*
%TO.C,C13*%
X181027836Y-77160000D02*
X180812164Y-77160000D01*
X181027836Y-76440000D02*
X180812164Y-76440000D01*
%TO.C,C1*%
X185411252Y-102635000D02*
X184888748Y-102635000D01*
X185411252Y-101165000D02*
X184888748Y-101165000D01*
%TO.C,R1*%
X176880000Y-99246359D02*
X176880000Y-99553641D01*
X176120000Y-99246359D02*
X176120000Y-99553641D01*
%TO.C,J2*%
X201710000Y-82020000D02*
X201710000Y-83350000D01*
X200380000Y-82020000D02*
X201710000Y-82020000D01*
X199110000Y-82020000D02*
X193970000Y-82020000D01*
X199110000Y-82020000D02*
X199110000Y-84680000D01*
X193970000Y-82020000D02*
X193970000Y-84680000D01*
X199110000Y-84680000D02*
X193970000Y-84680000D01*
%TO.C,C2*%
X181035000Y-96188748D02*
X181035000Y-96711252D01*
X179565000Y-96188748D02*
X179565000Y-96711252D01*
%TO.C,C10*%
X176940000Y-84737836D02*
X176940000Y-84522164D01*
X177660000Y-84737836D02*
X177660000Y-84522164D01*
%TD*%
M02*
