%TF.GenerationSoftware,KiCad,Pcbnew,7.0.6*%
%TF.CreationDate,2023-07-29T21:44:08+03:00*%
%TF.ProjectId,cat-toy-stm-c0,6361742d-746f-4792-9d73-746d2d63302e,rev?*%
%TF.SameCoordinates,Original*%
%TF.FileFunction,Copper,L2,Bot*%
%TF.FilePolarity,Positive*%
%FSLAX46Y46*%
G04 Gerber Fmt 4.6, Leading zero omitted, Abs format (unit mm)*
G04 Created by KiCad (PCBNEW 7.0.6) date 2023-07-29 21:44:08*
%MOMM*%
%LPD*%
G01*
G04 APERTURE LIST*
%TA.AperFunction,ComponentPad*%
%ADD10R,1.700000X1.700000*%
%TD*%
%TA.AperFunction,ComponentPad*%
%ADD11O,1.700000X1.700000*%
%TD*%
%TA.AperFunction,ComponentPad*%
%ADD12O,1.800000X1.150000*%
%TD*%
%TA.AperFunction,ComponentPad*%
%ADD13O,2.000000X1.450000*%
%TD*%
%TA.AperFunction,ViaPad*%
%ADD14C,0.800000*%
%TD*%
G04 APERTURE END LIST*
D10*
%TO.P,J6,1,Pin_1*%
%TO.N,+3.3V*%
X170180000Y-90300000D03*
D11*
%TO.P,J6,2,Pin_2*%
%TO.N,/I2C1_SCL*%
X172720000Y-90300000D03*
%TO.P,J6,3,Pin_3*%
%TO.N,/I2C1_SDA*%
X175260000Y-90300000D03*
%TO.P,J6,4,Pin_4*%
%TO.N,GND*%
X177800000Y-90300000D03*
%TD*%
D10*
%TO.P,J1,1,Pin_1*%
%TO.N,+5V*%
X200380000Y-87000000D03*
D11*
%TO.P,J1,2,Pin_2*%
%TO.N,/TIM1_CH1*%
X197840000Y-87000000D03*
%TO.P,J1,3,Pin_3*%
%TO.N,GND*%
X195300000Y-87000000D03*
%TD*%
D10*
%TO.P,J3,1,Pin_1*%
%TO.N,+3.3V*%
X200300000Y-76800000D03*
D11*
%TO.P,J3,2,Pin_2*%
%TO.N,/USART2_TX*%
X197760000Y-76800000D03*
%TO.P,J3,3,Pin_3*%
%TO.N,/USART2_RX*%
X195220000Y-76800000D03*
%TO.P,J3,4,Pin_4*%
%TO.N,GND*%
X192680000Y-76800000D03*
%TD*%
%TO.P,J4,6,Pin_6*%
%TO.N,GND*%
X187600000Y-72200000D03*
%TO.P,J4,5,Pin_5*%
%TO.N,/SPI1_MOSI*%
X190140000Y-72200000D03*
%TO.P,J4,4,Pin_4*%
%TO.N,/SPI1_MISO*%
X192680000Y-72200000D03*
%TO.P,J4,3,Pin_3*%
%TO.N,/SPI1_SCK*%
X195220000Y-72200000D03*
%TO.P,J4,2,Pin_2*%
%TO.N,/SPI1_CS*%
X197760000Y-72200000D03*
D10*
%TO.P,J4,1,Pin_1*%
%TO.N,+3.3V*%
X200300000Y-72200000D03*
%TD*%
%TO.P,J9,1,Pin_1*%
%TO.N,+5V*%
X200400000Y-91900000D03*
D11*
%TO.P,J9,2,Pin_2*%
%TO.N,GND*%
X197860000Y-91900000D03*
%TD*%
D12*
%TO.P,J8,6,Shield*%
%TO.N,N/C*%
X201200000Y-102950000D03*
D13*
X197400000Y-102800000D03*
X197400000Y-95350000D03*
D12*
X201200000Y-95200000D03*
%TD*%
D11*
%TO.P,J5,4,Pin_4*%
%TO.N,GND*%
X170150000Y-79950000D03*
%TO.P,J5,3,Pin_3*%
%TO.N,/DEBUG_SWCLK*%
X170150000Y-77410000D03*
%TO.P,J5,2,Pin_2*%
%TO.N,/DEBUG_SWDIO*%
X170150000Y-74870000D03*
D10*
%TO.P,J5,1,Pin_1*%
%TO.N,+3.3V*%
X170150000Y-72330000D03*
%TD*%
%TO.P,J7,1,Pin_1*%
%TO.N,/JOYSTICK_BTN*%
X183960000Y-72200000D03*
D11*
%TO.P,J7,2,Pin_2*%
%TO.N,Net-(J7-Pin_2)*%
X181420000Y-72200000D03*
%TO.P,J7,3,Pin_3*%
%TO.N,Net-(J7-Pin_3)*%
X178880000Y-72200000D03*
%TO.P,J7,4,Pin_4*%
%TO.N,+3.3V*%
X176340000Y-72200000D03*
%TO.P,J7,5,Pin_5*%
%TO.N,GND*%
X173800000Y-72200000D03*
%TD*%
D10*
%TO.P,J2,1,Pin_1*%
%TO.N,+5V*%
X200380000Y-83350000D03*
D11*
%TO.P,J2,2,Pin_2*%
%TO.N,/TIM1_CH2*%
X197840000Y-83350000D03*
%TO.P,J2,3,Pin_3*%
%TO.N,GND*%
X195300000Y-83350000D03*
%TD*%
D14*
%TO.N,GND*%
X176000000Y-75600000D03*
X179700000Y-75600000D03*
X185300000Y-75600000D03*
X195200000Y-97800000D03*
X188300000Y-91100000D03*
X188300000Y-89800000D03*
X182200000Y-97500000D03*
X183200000Y-97550000D03*
X179700000Y-98750000D03*
X180750000Y-98750000D03*
X176500000Y-100800000D03*
X183600000Y-84350000D03*
X178650000Y-84150000D03*
X178650000Y-81800000D03*
X172350000Y-84550000D03*
X175900000Y-80700000D03*
X193950000Y-94000000D03*
X193950000Y-95200000D03*
X193950000Y-96400000D03*
X193950000Y-97600000D03*
X190600000Y-86400000D03*
X190050000Y-78050000D03*
%TD*%
%TA.AperFunction,Conductor*%
%TO.N,GND*%
G36*
X201502116Y-68998017D02*
G01*
X201572146Y-69002857D01*
X201767470Y-69017714D01*
X201775491Y-69018856D01*
X201887917Y-69042470D01*
X202037074Y-69077038D01*
X202044032Y-69079087D01*
X202145574Y-69115583D01*
X202160328Y-69120887D01*
X202295271Y-69174714D01*
X202301094Y-69177394D01*
X202412423Y-69235788D01*
X202415027Y-69237236D01*
X202448870Y-69257127D01*
X202536711Y-69308757D01*
X202541333Y-69311761D01*
X202644711Y-69385733D01*
X202647748Y-69388052D01*
X202756300Y-69476410D01*
X202759810Y-69479495D01*
X202852316Y-69567260D01*
X202855587Y-69570608D01*
X202949543Y-69674383D01*
X202951996Y-69677268D01*
X202978079Y-69709942D01*
X203031301Y-69776617D01*
X203034573Y-69781116D01*
X203112364Y-69898832D01*
X203113955Y-69901369D01*
X203178118Y-70009473D01*
X203181105Y-70015156D01*
X203241945Y-70147071D01*
X203289798Y-70261007D01*
X203292218Y-70267868D01*
X203334572Y-70414985D01*
X203364060Y-70526006D01*
X203365628Y-70533985D01*
X203390741Y-70728356D01*
X203392044Y-70739013D01*
X203399042Y-70796283D01*
X203399500Y-70803800D01*
X203399500Y-106232037D01*
X203394441Y-106267096D01*
X203384583Y-106300538D01*
X203336370Y-106458587D01*
X203330076Y-106474966D01*
X203292833Y-106554550D01*
X203234650Y-106670224D01*
X203230818Y-106676802D01*
X203175853Y-106759109D01*
X203174171Y-106761504D01*
X203102194Y-106858989D01*
X203098104Y-106863965D01*
X203029624Y-106938982D01*
X203026763Y-106941916D01*
X202940974Y-107024248D01*
X202937019Y-107027733D01*
X202857468Y-107092041D01*
X202853234Y-107095177D01*
X202754774Y-107161799D01*
X202751305Y-107163983D01*
X202663582Y-107215237D01*
X202657859Y-107218193D01*
X202547481Y-107268136D01*
X202544787Y-107269279D01*
X202452781Y-107305783D01*
X202445546Y-107308151D01*
X202320235Y-107340809D01*
X202234624Y-107360548D01*
X202217290Y-107363270D01*
X202052697Y-107377292D01*
X202002342Y-107381103D01*
X201997655Y-107381280D01*
X183140408Y-107379504D01*
X183134351Y-107377725D01*
X183091713Y-107379430D01*
X183088257Y-107379472D01*
X183046254Y-107378809D01*
X182821742Y-107372696D01*
X182815392Y-107372196D01*
X182711655Y-107358642D01*
X182547727Y-107331486D01*
X182542876Y-107330482D01*
X182486490Y-107316441D01*
X182433243Y-107303181D01*
X182429841Y-107302230D01*
X182278959Y-107255372D01*
X182275611Y-107254226D01*
X182169796Y-107214616D01*
X182165230Y-107212695D01*
X182014787Y-107142224D01*
X181921597Y-107094615D01*
X181916082Y-107091430D01*
X181727591Y-106969273D01*
X181700676Y-106951390D01*
X181698345Y-106949515D01*
X181693499Y-106946515D01*
X181688970Y-106943427D01*
X181669759Y-106929043D01*
X181665240Y-106928351D01*
X181653172Y-106921867D01*
X177769448Y-104550001D01*
X190294532Y-104550001D01*
X190314364Y-104776686D01*
X190314366Y-104776697D01*
X190373258Y-104996488D01*
X190373261Y-104996497D01*
X190469431Y-105202732D01*
X190469432Y-105202734D01*
X190599954Y-105389141D01*
X190760858Y-105550045D01*
X190760861Y-105550047D01*
X190947266Y-105680568D01*
X191153504Y-105776739D01*
X191373308Y-105835635D01*
X191543216Y-105850500D01*
X191656784Y-105850500D01*
X191826692Y-105835635D01*
X192046496Y-105776739D01*
X192252734Y-105680568D01*
X192439139Y-105550047D01*
X192600047Y-105389139D01*
X192730568Y-105202734D01*
X192826739Y-104996496D01*
X192885635Y-104776692D01*
X192905468Y-104550000D01*
X192885635Y-104323308D01*
X192826739Y-104103504D01*
X192730568Y-103897266D01*
X192600047Y-103710861D01*
X192600045Y-103710858D01*
X192439141Y-103549954D01*
X192252734Y-103419432D01*
X192252732Y-103419431D01*
X192046497Y-103323261D01*
X192046488Y-103323258D01*
X191826697Y-103264366D01*
X191826687Y-103264364D01*
X191656784Y-103249500D01*
X191543216Y-103249500D01*
X191373312Y-103264364D01*
X191373302Y-103264366D01*
X191153511Y-103323258D01*
X191153502Y-103323261D01*
X190947267Y-103419431D01*
X190947265Y-103419432D01*
X190760858Y-103549954D01*
X190599954Y-103710858D01*
X190469432Y-103897265D01*
X190469431Y-103897267D01*
X190373261Y-104103502D01*
X190373258Y-104103511D01*
X190314366Y-104323302D01*
X190314364Y-104323313D01*
X190294532Y-104549998D01*
X190294532Y-104550001D01*
X177769448Y-104550001D01*
X174903972Y-102799999D01*
X196094538Y-102799999D01*
X196114337Y-103001031D01*
X196172978Y-103194345D01*
X196268198Y-103372488D01*
X196268203Y-103372495D01*
X196396352Y-103528647D01*
X196505016Y-103617824D01*
X196552506Y-103656798D01*
X196552509Y-103656799D01*
X196552511Y-103656801D01*
X196730654Y-103752021D01*
X196730656Y-103752021D01*
X196730659Y-103752023D01*
X196923967Y-103810662D01*
X197074620Y-103825500D01*
X197074623Y-103825500D01*
X197725377Y-103825500D01*
X197725380Y-103825500D01*
X197876033Y-103810662D01*
X198069341Y-103752023D01*
X198247494Y-103656798D01*
X198403647Y-103528647D01*
X198531798Y-103372494D01*
X198627023Y-103194341D01*
X198685662Y-103001033D01*
X198695384Y-102902324D01*
X199995630Y-102902324D01*
X200005939Y-103092475D01*
X200053664Y-103264364D01*
X200056887Y-103275969D01*
X200056888Y-103275972D01*
X200102766Y-103362506D01*
X200132946Y-103419432D01*
X200146087Y-103444217D01*
X200146088Y-103444220D01*
X200235899Y-103549953D01*
X200269369Y-103589357D01*
X200420971Y-103704602D01*
X200420972Y-103704602D01*
X200420973Y-103704603D01*
X200420974Y-103704604D01*
X200523466Y-103752021D01*
X200593803Y-103784562D01*
X200593804Y-103784562D01*
X200593806Y-103784563D01*
X200650227Y-103796982D01*
X200779784Y-103825500D01*
X200779785Y-103825500D01*
X201572459Y-103825500D01*
X201572465Y-103825500D01*
X201714316Y-103810073D01*
X201894780Y-103749267D01*
X202057954Y-103651089D01*
X202196207Y-103520129D01*
X202303075Y-103362510D01*
X202303077Y-103362506D01*
X202373561Y-103185606D01*
X202373562Y-103185602D01*
X202404370Y-102997678D01*
X202394061Y-102807525D01*
X202343114Y-102624033D01*
X202253914Y-102455784D01*
X202253911Y-102455781D01*
X202253911Y-102455779D01*
X202130631Y-102310643D01*
X202070962Y-102265284D01*
X201979029Y-102195398D01*
X201979028Y-102195397D01*
X201979026Y-102195396D01*
X201979025Y-102195395D01*
X201806193Y-102115436D01*
X201620216Y-102074500D01*
X200827535Y-102074500D01*
X200827533Y-102074500D01*
X200685683Y-102089927D01*
X200505217Y-102150734D01*
X200342048Y-102248909D01*
X200203791Y-102379872D01*
X200096922Y-102537493D01*
X200026438Y-102714393D01*
X199995630Y-102902324D01*
X198695384Y-102902324D01*
X198705462Y-102800000D01*
X198685662Y-102598967D01*
X198627023Y-102405659D01*
X198627022Y-102405657D01*
X198624700Y-102400051D01*
X198617234Y-102330581D01*
X198648511Y-102268103D01*
X198695300Y-102236657D01*
X198700218Y-102234791D01*
X198700225Y-102234790D01*
X198734707Y-102216691D01*
X198741507Y-102213630D01*
X198777930Y-102199818D01*
X198809981Y-102177693D01*
X198816379Y-102173825D01*
X198850852Y-102155734D01*
X198880002Y-102129908D01*
X198885871Y-102125310D01*
X198917929Y-102103183D01*
X198943748Y-102074037D01*
X198949037Y-102068748D01*
X198978183Y-102042929D01*
X199000310Y-102010871D01*
X199004908Y-102005002D01*
X199030734Y-101975852D01*
X199048825Y-101941379D01*
X199052693Y-101934981D01*
X199074818Y-101902930D01*
X199088630Y-101866507D01*
X199091691Y-101859707D01*
X199109790Y-101825225D01*
X199119106Y-101787427D01*
X199121335Y-101780271D01*
X199135140Y-101743872D01*
X199139834Y-101705206D01*
X199141177Y-101697875D01*
X199150500Y-101660056D01*
X199150500Y-101621126D01*
X199150952Y-101613646D01*
X199155645Y-101575000D01*
X199150951Y-101536348D01*
X199150500Y-101528872D01*
X199150500Y-101489943D01*
X199141183Y-101452147D01*
X199139832Y-101444773D01*
X199135140Y-101406130D01*
X199135140Y-101406128D01*
X199121329Y-101369712D01*
X199119110Y-101362590D01*
X199109790Y-101324775D01*
X199091687Y-101290283D01*
X199088627Y-101283484D01*
X199074818Y-101247070D01*
X199052694Y-101215018D01*
X199048823Y-101208614D01*
X199030736Y-101174151D01*
X199030732Y-101174145D01*
X199016150Y-101157685D01*
X199004916Y-101145005D01*
X199000299Y-101139111D01*
X198978185Y-101107073D01*
X198978183Y-101107071D01*
X198949037Y-101081250D01*
X198943743Y-101075955D01*
X198917933Y-101046821D01*
X198917930Y-101046819D01*
X198917929Y-101046817D01*
X198917925Y-101046814D01*
X198885882Y-101024695D01*
X198879986Y-101020075D01*
X198850851Y-100994265D01*
X198850848Y-100994263D01*
X198816387Y-100976177D01*
X198809974Y-100972300D01*
X198777933Y-100950183D01*
X198777931Y-100950182D01*
X198741524Y-100936374D01*
X198734693Y-100933299D01*
X198700226Y-100915210D01*
X198700221Y-100915209D01*
X198698601Y-100914809D01*
X198662424Y-100905892D01*
X198655276Y-100903665D01*
X198618876Y-100889861D01*
X198618869Y-100889859D01*
X198580223Y-100885166D01*
X198572855Y-100883816D01*
X198535058Y-100874500D01*
X198535056Y-100874500D01*
X198364944Y-100874500D01*
X198354363Y-100877107D01*
X198327143Y-100883816D01*
X198319776Y-100885166D01*
X198281126Y-100889860D01*
X198244725Y-100903664D01*
X198237576Y-100905891D01*
X198199775Y-100915210D01*
X198199770Y-100915212D01*
X198165296Y-100933303D01*
X198158467Y-100936377D01*
X198122071Y-100950180D01*
X198122069Y-100950181D01*
X198090027Y-100972299D01*
X198083617Y-100976174D01*
X198049149Y-100994265D01*
X198020005Y-101020082D01*
X198014110Y-101024700D01*
X197982072Y-101046815D01*
X197982071Y-101046816D01*
X197956253Y-101075957D01*
X197950957Y-101081253D01*
X197921816Y-101107071D01*
X197921815Y-101107072D01*
X197899700Y-101139110D01*
X197895082Y-101145005D01*
X197869265Y-101174149D01*
X197851174Y-101208617D01*
X197847299Y-101215027D01*
X197825181Y-101247069D01*
X197825180Y-101247071D01*
X197811377Y-101283467D01*
X197808303Y-101290296D01*
X197790212Y-101324770D01*
X197790210Y-101324775D01*
X197780891Y-101362576D01*
X197778664Y-101369725D01*
X197764860Y-101406126D01*
X197760166Y-101444776D01*
X197758816Y-101452143D01*
X197749500Y-101489945D01*
X197749500Y-101528872D01*
X197749048Y-101536352D01*
X197744355Y-101574999D01*
X197749048Y-101613646D01*
X197749500Y-101621126D01*
X197749500Y-101650500D01*
X197729815Y-101717539D01*
X197677011Y-101763294D01*
X197625500Y-101774500D01*
X197074620Y-101774500D01*
X197037433Y-101778162D01*
X196923968Y-101789337D01*
X196730654Y-101847978D01*
X196552511Y-101943198D01*
X196552504Y-101943203D01*
X196396352Y-102071352D01*
X196268203Y-102227504D01*
X196268198Y-102227511D01*
X196172978Y-102405654D01*
X196114337Y-102598968D01*
X196094538Y-102799999D01*
X174903972Y-102799999D01*
X166660002Y-97765246D01*
X166632040Y-97741899D01*
X166620203Y-97728611D01*
X166609782Y-97716912D01*
X166467059Y-97553544D01*
X166463024Y-97548400D01*
X166400709Y-97459663D01*
X166311377Y-97324310D01*
X166308629Y-97319727D01*
X166252774Y-97216697D01*
X166251448Y-97214105D01*
X166185247Y-97076595D01*
X166183576Y-97072804D01*
X166139163Y-96962037D01*
X166137744Y-96958120D01*
X166090601Y-96812948D01*
X166089789Y-96810227D01*
X166058981Y-96697102D01*
X166057806Y-96691912D01*
X166028879Y-96532316D01*
X166012630Y-96425129D01*
X166011993Y-96418609D01*
X166011162Y-96400001D01*
X169944532Y-96400001D01*
X169964364Y-96626686D01*
X169964366Y-96626697D01*
X170023258Y-96846488D01*
X170023261Y-96846497D01*
X170119431Y-97052732D01*
X170119432Y-97052734D01*
X170249954Y-97239141D01*
X170410858Y-97400045D01*
X170410861Y-97400047D01*
X170597266Y-97530568D01*
X170803504Y-97626739D01*
X171023308Y-97685635D01*
X171193216Y-97700500D01*
X171306784Y-97700500D01*
X171476692Y-97685635D01*
X171696496Y-97626739D01*
X171902734Y-97530568D01*
X172089139Y-97400047D01*
X172250047Y-97239139D01*
X172380568Y-97052734D01*
X172476739Y-96846496D01*
X172535635Y-96626692D01*
X172555468Y-96400000D01*
X172535635Y-96173308D01*
X172477034Y-95954604D01*
X172476741Y-95953511D01*
X172476738Y-95953502D01*
X172423511Y-95839357D01*
X172380568Y-95747266D01*
X172250047Y-95560861D01*
X172250045Y-95560858D01*
X172089141Y-95399954D01*
X172017798Y-95350000D01*
X196094538Y-95350000D01*
X196114337Y-95551031D01*
X196172978Y-95744345D01*
X196268198Y-95922488D01*
X196268201Y-95922492D01*
X196268202Y-95922494D01*
X196278502Y-95935045D01*
X196396352Y-96078647D01*
X196485470Y-96151783D01*
X196552506Y-96206798D01*
X196552509Y-96206799D01*
X196552511Y-96206801D01*
X196730654Y-96302021D01*
X196730656Y-96302021D01*
X196730659Y-96302023D01*
X196923967Y-96360662D01*
X197074620Y-96375500D01*
X197074623Y-96375500D01*
X197625500Y-96375500D01*
X197692539Y-96395185D01*
X197738294Y-96447989D01*
X197749500Y-96499500D01*
X197749500Y-96528872D01*
X197749048Y-96536352D01*
X197744355Y-96574999D01*
X197749048Y-96613646D01*
X197749500Y-96621126D01*
X197749500Y-96660058D01*
X197758816Y-96697855D01*
X197760166Y-96705223D01*
X197764859Y-96743869D01*
X197764861Y-96743876D01*
X197778665Y-96780276D01*
X197780894Y-96787429D01*
X197790209Y-96825221D01*
X197790210Y-96825226D01*
X197808299Y-96859693D01*
X197811374Y-96866524D01*
X197825182Y-96902931D01*
X197825183Y-96902933D01*
X197847300Y-96934974D01*
X197851177Y-96941387D01*
X197869263Y-96975848D01*
X197869265Y-96975851D01*
X197895075Y-97004986D01*
X197899695Y-97010882D01*
X197921814Y-97042925D01*
X197921816Y-97042928D01*
X197921821Y-97042933D01*
X197950955Y-97068743D01*
X197956250Y-97074037D01*
X197982069Y-97103181D01*
X197982073Y-97103185D01*
X198014111Y-97125299D01*
X198020005Y-97129916D01*
X198025998Y-97135225D01*
X198049145Y-97155732D01*
X198049151Y-97155736D01*
X198083614Y-97173823D01*
X198090018Y-97177694D01*
X198122070Y-97199818D01*
X198158484Y-97213627D01*
X198165283Y-97216687D01*
X198199775Y-97234790D01*
X198199777Y-97234790D01*
X198199778Y-97234791D01*
X198206914Y-97236549D01*
X198237590Y-97244110D01*
X198244712Y-97246329D01*
X198281128Y-97260140D01*
X198300572Y-97262500D01*
X198319773Y-97264832D01*
X198327140Y-97266181D01*
X198351369Y-97272153D01*
X198364943Y-97275500D01*
X198364944Y-97275500D01*
X198535058Y-97275500D01*
X198544590Y-97273149D01*
X198572875Y-97266177D01*
X198580206Y-97264834D01*
X198618872Y-97260140D01*
X198655277Y-97246333D01*
X198662427Y-97244106D01*
X198682571Y-97239141D01*
X198700225Y-97234790D01*
X198734707Y-97216691D01*
X198741507Y-97213630D01*
X198777930Y-97199818D01*
X198809981Y-97177693D01*
X198816379Y-97173825D01*
X198850852Y-97155734D01*
X198880002Y-97129908D01*
X198885871Y-97125310D01*
X198917929Y-97103183D01*
X198943748Y-97074037D01*
X198949037Y-97068748D01*
X198978183Y-97042929D01*
X199000310Y-97010871D01*
X199004908Y-97005002D01*
X199030734Y-96975852D01*
X199048825Y-96941379D01*
X199052693Y-96934981D01*
X199074818Y-96902930D01*
X199088630Y-96866507D01*
X199091691Y-96859707D01*
X199109790Y-96825225D01*
X199116316Y-96798744D01*
X199119106Y-96787427D01*
X199121333Y-96780277D01*
X199135140Y-96743872D01*
X199139834Y-96705206D01*
X199141177Y-96697875D01*
X199150500Y-96660056D01*
X199150500Y-96621126D01*
X199150952Y-96613646D01*
X199155645Y-96575000D01*
X199150951Y-96536348D01*
X199150500Y-96528872D01*
X199150500Y-96489943D01*
X199141183Y-96452147D01*
X199139832Y-96444773D01*
X199135140Y-96406130D01*
X199135140Y-96406128D01*
X199121329Y-96369712D01*
X199119110Y-96362590D01*
X199109790Y-96324775D01*
X199091687Y-96290283D01*
X199088627Y-96283484D01*
X199074818Y-96247070D01*
X199052694Y-96215018D01*
X199048823Y-96208614D01*
X199030736Y-96174151D01*
X199030732Y-96174145D01*
X199009331Y-96149989D01*
X199004916Y-96145005D01*
X199000299Y-96139111D01*
X198978185Y-96107073D01*
X198978183Y-96107071D01*
X198949037Y-96081250D01*
X198943743Y-96075955D01*
X198917933Y-96046821D01*
X198917930Y-96046819D01*
X198917929Y-96046817D01*
X198900177Y-96034563D01*
X198885882Y-96024695D01*
X198879986Y-96020075D01*
X198850851Y-95994265D01*
X198850848Y-95994263D01*
X198816387Y-95976177D01*
X198809974Y-95972300D01*
X198777933Y-95950183D01*
X198777931Y-95950182D01*
X198741524Y-95936374D01*
X198734693Y-95933299D01*
X198700220Y-95915207D01*
X198695288Y-95913337D01*
X198639587Y-95871158D01*
X198615532Y-95805559D01*
X198624702Y-95749945D01*
X198627020Y-95744347D01*
X198627021Y-95744345D01*
X198627023Y-95744341D01*
X198685662Y-95551033D01*
X198705462Y-95350000D01*
X198685993Y-95152324D01*
X199995630Y-95152324D01*
X200005939Y-95342476D01*
X200056887Y-95525969D01*
X200056888Y-95525972D01*
X200146087Y-95694217D01*
X200146088Y-95694220D01*
X200269368Y-95839356D01*
X200269369Y-95839357D01*
X200420971Y-95954602D01*
X200420972Y-95954602D01*
X200420973Y-95954603D01*
X200420974Y-95954604D01*
X200526758Y-96003543D01*
X200593803Y-96034562D01*
X200593804Y-96034562D01*
X200593806Y-96034563D01*
X200649464Y-96046814D01*
X200779784Y-96075500D01*
X200779785Y-96075500D01*
X201572459Y-96075500D01*
X201572465Y-96075500D01*
X201714316Y-96060073D01*
X201894780Y-95999267D01*
X202057954Y-95901089D01*
X202196207Y-95770129D01*
X202303075Y-95612510D01*
X202323654Y-95560861D01*
X202373561Y-95435606D01*
X202387595Y-95350000D01*
X202404370Y-95247678D01*
X202394061Y-95057525D01*
X202343114Y-94874033D01*
X202253914Y-94705784D01*
X202253911Y-94705781D01*
X202253911Y-94705779D01*
X202130631Y-94560643D01*
X201979026Y-94445396D01*
X201979025Y-94445395D01*
X201806193Y-94365436D01*
X201620216Y-94324500D01*
X200827535Y-94324500D01*
X200827533Y-94324500D01*
X200685683Y-94339927D01*
X200505217Y-94400734D01*
X200342048Y-94498909D01*
X200203791Y-94629872D01*
X200096922Y-94787493D01*
X200026438Y-94964393D01*
X200011171Y-95057523D01*
X200001853Y-95114366D01*
X199995630Y-95152324D01*
X198685993Y-95152324D01*
X198685662Y-95148967D01*
X198627023Y-94955659D01*
X198627021Y-94955656D01*
X198627021Y-94955654D01*
X198531801Y-94777511D01*
X198531799Y-94777509D01*
X198531798Y-94777506D01*
X198492824Y-94730016D01*
X198403647Y-94621352D01*
X198247495Y-94493203D01*
X198247488Y-94493198D01*
X198069345Y-94397978D01*
X197876031Y-94339337D01*
X197765900Y-94328490D01*
X197725380Y-94324500D01*
X197074620Y-94324500D01*
X197037433Y-94328162D01*
X196923968Y-94339337D01*
X196730654Y-94397978D01*
X196552511Y-94493198D01*
X196552504Y-94493203D01*
X196396352Y-94621352D01*
X196268203Y-94777504D01*
X196268198Y-94777511D01*
X196172978Y-94955654D01*
X196114337Y-95148968D01*
X196094538Y-95350000D01*
X172017798Y-95350000D01*
X171902734Y-95269432D01*
X171902732Y-95269431D01*
X171696497Y-95173261D01*
X171696488Y-95173258D01*
X171476697Y-95114366D01*
X171476687Y-95114364D01*
X171306784Y-95099500D01*
X171193216Y-95099500D01*
X171023312Y-95114364D01*
X171023302Y-95114366D01*
X170803511Y-95173258D01*
X170803502Y-95173261D01*
X170597267Y-95269431D01*
X170597265Y-95269432D01*
X170410858Y-95399954D01*
X170249954Y-95560858D01*
X170119432Y-95747265D01*
X170119431Y-95747267D01*
X170023261Y-95953502D01*
X170023258Y-95953511D01*
X169964366Y-96173302D01*
X169964364Y-96173313D01*
X169944532Y-96399998D01*
X169944532Y-96400001D01*
X166011162Y-96400001D01*
X166010068Y-96375500D01*
X166002318Y-96201952D01*
X166000560Y-96151746D01*
X166000538Y-96148245D01*
X166001323Y-96112611D01*
X166000500Y-96102184D01*
X166000500Y-92150000D01*
X196529364Y-92150000D01*
X196586567Y-92363486D01*
X196586570Y-92363492D01*
X196686399Y-92577578D01*
X196821894Y-92771082D01*
X196988917Y-92938105D01*
X197182421Y-93073600D01*
X197396507Y-93173429D01*
X197396516Y-93173433D01*
X197610000Y-93230634D01*
X197610000Y-92335501D01*
X197717685Y-92384680D01*
X197824237Y-92400000D01*
X197895763Y-92400000D01*
X198002315Y-92384680D01*
X198110000Y-92335501D01*
X198110000Y-93230633D01*
X198323483Y-93173433D01*
X198323492Y-93173429D01*
X198537578Y-93073600D01*
X198731082Y-92938105D01*
X198898105Y-92771082D01*
X199023925Y-92591394D01*
X199078502Y-92547770D01*
X199148001Y-92540577D01*
X199210355Y-92572099D01*
X199245769Y-92632329D01*
X199249500Y-92662517D01*
X199249500Y-92794855D01*
X199249502Y-92794882D01*
X199252413Y-92819987D01*
X199252415Y-92819991D01*
X199297793Y-92922764D01*
X199297794Y-92922765D01*
X199377235Y-93002206D01*
X199480009Y-93047585D01*
X199505135Y-93050500D01*
X201294864Y-93050499D01*
X201294879Y-93050497D01*
X201294882Y-93050497D01*
X201319987Y-93047586D01*
X201319988Y-93047585D01*
X201319991Y-93047585D01*
X201422765Y-93002206D01*
X201502206Y-92922765D01*
X201547585Y-92819991D01*
X201550500Y-92794865D01*
X201550499Y-91005136D01*
X201550497Y-91005117D01*
X201547586Y-90980012D01*
X201547585Y-90980010D01*
X201547585Y-90980009D01*
X201502206Y-90877235D01*
X201422765Y-90797794D01*
X201368390Y-90773785D01*
X201319992Y-90752415D01*
X201294865Y-90749500D01*
X199505143Y-90749500D01*
X199505117Y-90749502D01*
X199480012Y-90752413D01*
X199480008Y-90752415D01*
X199377235Y-90797793D01*
X199297794Y-90877234D01*
X199252415Y-90980006D01*
X199252415Y-90980008D01*
X199249500Y-91005131D01*
X199249500Y-91137481D01*
X199229815Y-91204520D01*
X199177011Y-91250275D01*
X199107853Y-91260219D01*
X199044297Y-91231194D01*
X199023925Y-91208604D01*
X198898113Y-91028926D01*
X198898108Y-91028920D01*
X198731082Y-90861894D01*
X198537578Y-90726399D01*
X198323492Y-90626570D01*
X198323486Y-90626567D01*
X198110000Y-90569364D01*
X198110000Y-91464498D01*
X198002315Y-91415320D01*
X197895763Y-91400000D01*
X197824237Y-91400000D01*
X197717685Y-91415320D01*
X197610000Y-91464498D01*
X197610000Y-90569364D01*
X197609999Y-90569364D01*
X197396513Y-90626567D01*
X197396507Y-90626570D01*
X197182422Y-90726399D01*
X197182420Y-90726400D01*
X196988926Y-90861886D01*
X196988920Y-90861891D01*
X196821891Y-91028920D01*
X196821886Y-91028926D01*
X196686400Y-91222420D01*
X196686399Y-91222422D01*
X196586570Y-91436507D01*
X196586567Y-91436513D01*
X196529364Y-91649999D01*
X196529364Y-91650000D01*
X197426314Y-91650000D01*
X197400507Y-91690156D01*
X197360000Y-91828111D01*
X197360000Y-91971889D01*
X197400507Y-92109844D01*
X197426314Y-92150000D01*
X196529364Y-92150000D01*
X166000500Y-92150000D01*
X166000500Y-91194856D01*
X169029500Y-91194856D01*
X169029502Y-91194882D01*
X169032413Y-91219987D01*
X169032415Y-91219991D01*
X169077793Y-91322764D01*
X169077794Y-91322765D01*
X169157235Y-91402206D01*
X169260009Y-91447585D01*
X169285135Y-91450500D01*
X171074864Y-91450499D01*
X171074879Y-91450497D01*
X171074882Y-91450497D01*
X171099987Y-91447586D01*
X171099988Y-91447585D01*
X171099991Y-91447585D01*
X171202765Y-91402206D01*
X171282206Y-91322765D01*
X171327585Y-91219991D01*
X171330500Y-91194865D01*
X171330499Y-90456046D01*
X171350183Y-90389009D01*
X171402987Y-90343254D01*
X171472146Y-90333310D01*
X171535702Y-90362335D01*
X171573476Y-90421113D01*
X171577970Y-90444606D01*
X171584015Y-90509844D01*
X171584244Y-90512310D01*
X171616753Y-90626567D01*
X171642596Y-90717392D01*
X171642596Y-90717394D01*
X171737632Y-90908253D01*
X171828761Y-91028926D01*
X171866128Y-91078407D01*
X172023698Y-91222052D01*
X172204981Y-91334298D01*
X172403802Y-91411321D01*
X172613390Y-91450500D01*
X172613392Y-91450500D01*
X172826608Y-91450500D01*
X172826610Y-91450500D01*
X173036198Y-91411321D01*
X173235019Y-91334298D01*
X173416302Y-91222052D01*
X173573872Y-91078407D01*
X173702366Y-90908255D01*
X173717812Y-90877235D01*
X173797403Y-90717394D01*
X173797403Y-90717393D01*
X173797405Y-90717389D01*
X173855756Y-90512310D01*
X173866529Y-90396047D01*
X173892315Y-90331111D01*
X173934622Y-90300804D01*
X174043130Y-90300804D01*
X174079503Y-90321668D01*
X174111693Y-90383681D01*
X174113470Y-90396047D01*
X174124244Y-90512310D01*
X174156753Y-90626567D01*
X174182596Y-90717392D01*
X174182596Y-90717394D01*
X174277632Y-90908253D01*
X174368761Y-91028926D01*
X174406128Y-91078407D01*
X174563698Y-91222052D01*
X174744981Y-91334298D01*
X174943802Y-91411321D01*
X175153390Y-91450500D01*
X175153392Y-91450500D01*
X175366608Y-91450500D01*
X175366610Y-91450500D01*
X175576198Y-91411321D01*
X175775019Y-91334298D01*
X175956302Y-91222052D01*
X176113872Y-91078407D01*
X176242366Y-90908255D01*
X176309325Y-90773781D01*
X176356825Y-90722548D01*
X176424488Y-90705126D01*
X176490828Y-90727051D01*
X176532705Y-90776651D01*
X176626399Y-90977578D01*
X176761894Y-91171082D01*
X176928917Y-91338105D01*
X177122421Y-91473600D01*
X177336507Y-91573429D01*
X177336516Y-91573433D01*
X177550000Y-91630634D01*
X177550000Y-90735501D01*
X177657685Y-90784680D01*
X177764237Y-90800000D01*
X177835763Y-90800000D01*
X177942315Y-90784680D01*
X178050000Y-90735501D01*
X178050000Y-91630633D01*
X178263483Y-91573433D01*
X178263492Y-91573429D01*
X178477578Y-91473600D01*
X178671082Y-91338105D01*
X178838105Y-91171082D01*
X178973600Y-90977578D01*
X179073429Y-90763492D01*
X179073432Y-90763486D01*
X179130636Y-90550000D01*
X178233686Y-90550000D01*
X178259493Y-90509844D01*
X178300000Y-90371889D01*
X178300000Y-90228111D01*
X178259493Y-90090156D01*
X178233686Y-90050000D01*
X179130636Y-90050000D01*
X179130635Y-90049999D01*
X179073432Y-89836513D01*
X179073429Y-89836507D01*
X178973600Y-89622422D01*
X178973599Y-89622420D01*
X178838113Y-89428926D01*
X178838108Y-89428920D01*
X178671082Y-89261894D01*
X178477578Y-89126399D01*
X178263492Y-89026570D01*
X178263486Y-89026567D01*
X178050000Y-88969364D01*
X178050000Y-89864498D01*
X177942315Y-89815320D01*
X177835763Y-89800000D01*
X177764237Y-89800000D01*
X177657685Y-89815320D01*
X177550000Y-89864498D01*
X177550000Y-88969364D01*
X177549999Y-88969364D01*
X177336513Y-89026567D01*
X177336507Y-89026570D01*
X177122422Y-89126399D01*
X177122420Y-89126400D01*
X176928926Y-89261886D01*
X176928920Y-89261891D01*
X176761891Y-89428920D01*
X176761886Y-89428926D01*
X176626400Y-89622420D01*
X176626399Y-89622422D01*
X176532705Y-89823348D01*
X176486532Y-89875787D01*
X176419339Y-89894939D01*
X176352457Y-89874723D01*
X176309324Y-89826216D01*
X176242366Y-89691745D01*
X176113872Y-89521593D01*
X175956302Y-89377948D01*
X175775019Y-89265702D01*
X175775017Y-89265701D01*
X175675608Y-89227190D01*
X175576198Y-89188679D01*
X175366610Y-89149500D01*
X175153390Y-89149500D01*
X174943802Y-89188679D01*
X174943799Y-89188679D01*
X174943799Y-89188680D01*
X174744982Y-89265701D01*
X174744980Y-89265702D01*
X174563699Y-89377947D01*
X174406127Y-89521593D01*
X174277632Y-89691746D01*
X174182596Y-89882605D01*
X174182596Y-89882607D01*
X174124244Y-90087689D01*
X174113471Y-90203951D01*
X174087685Y-90268888D01*
X174043130Y-90300804D01*
X173934622Y-90300804D01*
X173936869Y-90299194D01*
X173900497Y-90278331D01*
X173868307Y-90216318D01*
X173866529Y-90203951D01*
X173863175Y-90167759D01*
X173855756Y-90087690D01*
X173797405Y-89882611D01*
X173797403Y-89882606D01*
X173797403Y-89882605D01*
X173702367Y-89691746D01*
X173573872Y-89521593D01*
X173416302Y-89377948D01*
X173235019Y-89265702D01*
X173235017Y-89265701D01*
X173135608Y-89227190D01*
X173036198Y-89188679D01*
X172826610Y-89149500D01*
X172613390Y-89149500D01*
X172403802Y-89188679D01*
X172403799Y-89188679D01*
X172403799Y-89188680D01*
X172204982Y-89265701D01*
X172204980Y-89265702D01*
X172023699Y-89377947D01*
X171866127Y-89521593D01*
X171737632Y-89691746D01*
X171642596Y-89882605D01*
X171642596Y-89882607D01*
X171584244Y-90087689D01*
X171577970Y-90155394D01*
X171552183Y-90220331D01*
X171495383Y-90261018D01*
X171425602Y-90264538D01*
X171364995Y-90229772D01*
X171332806Y-90167759D01*
X171330499Y-90143952D01*
X171330499Y-89405143D01*
X171330499Y-89405136D01*
X171330497Y-89405117D01*
X171327586Y-89380012D01*
X171327585Y-89380010D01*
X171327585Y-89380009D01*
X171282206Y-89277235D01*
X171202765Y-89197794D01*
X171182124Y-89188680D01*
X171099992Y-89152415D01*
X171074865Y-89149500D01*
X169285143Y-89149500D01*
X169285117Y-89149502D01*
X169260012Y-89152413D01*
X169260008Y-89152415D01*
X169157235Y-89197793D01*
X169077794Y-89277234D01*
X169032415Y-89380006D01*
X169032415Y-89380008D01*
X169029500Y-89405131D01*
X169029500Y-91194856D01*
X166000500Y-91194856D01*
X166000500Y-87250000D01*
X193969364Y-87250000D01*
X194026567Y-87463486D01*
X194026570Y-87463492D01*
X194126399Y-87677578D01*
X194261894Y-87871082D01*
X194428917Y-88038105D01*
X194622421Y-88173600D01*
X194836507Y-88273429D01*
X194836516Y-88273433D01*
X195050000Y-88330634D01*
X195050000Y-87435501D01*
X195157685Y-87484680D01*
X195264237Y-87500000D01*
X195335763Y-87500000D01*
X195442315Y-87484680D01*
X195550000Y-87435501D01*
X195550000Y-88330633D01*
X195763483Y-88273433D01*
X195763492Y-88273429D01*
X195977578Y-88173600D01*
X196171082Y-88038105D01*
X196338105Y-87871082D01*
X196473600Y-87677578D01*
X196567294Y-87476651D01*
X196613466Y-87424212D01*
X196680660Y-87405060D01*
X196747541Y-87425276D01*
X196790676Y-87473785D01*
X196857632Y-87608253D01*
X196986127Y-87778406D01*
X196986128Y-87778407D01*
X197143698Y-87922052D01*
X197324981Y-88034298D01*
X197523802Y-88111321D01*
X197733390Y-88150500D01*
X197733392Y-88150500D01*
X197946608Y-88150500D01*
X197946610Y-88150500D01*
X198156198Y-88111321D01*
X198355019Y-88034298D01*
X198536302Y-87922052D01*
X198693872Y-87778407D01*
X198822366Y-87608255D01*
X198876270Y-87500000D01*
X198917403Y-87417394D01*
X198917403Y-87417393D01*
X198917405Y-87417389D01*
X198975756Y-87212310D01*
X198982029Y-87144605D01*
X199007814Y-87079669D01*
X199064614Y-87038981D01*
X199134395Y-87035461D01*
X199195002Y-87070225D01*
X199227193Y-87132238D01*
X199229500Y-87156047D01*
X199229500Y-87894856D01*
X199229502Y-87894882D01*
X199232413Y-87919987D01*
X199232415Y-87919991D01*
X199277793Y-88022764D01*
X199277794Y-88022765D01*
X199357235Y-88102206D01*
X199460009Y-88147585D01*
X199485135Y-88150500D01*
X201274864Y-88150499D01*
X201274879Y-88150497D01*
X201274882Y-88150497D01*
X201299987Y-88147586D01*
X201299988Y-88147585D01*
X201299991Y-88147585D01*
X201402765Y-88102206D01*
X201482206Y-88022765D01*
X201527585Y-87919991D01*
X201530500Y-87894865D01*
X201530499Y-86105136D01*
X201530497Y-86105117D01*
X201527586Y-86080012D01*
X201527585Y-86080010D01*
X201527585Y-86080009D01*
X201482206Y-85977235D01*
X201402765Y-85897794D01*
X201382124Y-85888680D01*
X201299992Y-85852415D01*
X201274865Y-85849500D01*
X199485143Y-85849500D01*
X199485117Y-85849502D01*
X199460012Y-85852413D01*
X199460008Y-85852415D01*
X199357235Y-85897793D01*
X199277794Y-85977234D01*
X199232415Y-86080006D01*
X199232415Y-86080008D01*
X199229500Y-86105131D01*
X199229500Y-86843951D01*
X199209815Y-86910990D01*
X199157011Y-86956745D01*
X199087853Y-86966689D01*
X199024297Y-86937664D01*
X198986523Y-86878886D01*
X198982029Y-86855391D01*
X198975756Y-86787689D01*
X198961273Y-86736789D01*
X198917405Y-86582611D01*
X198917403Y-86582606D01*
X198917403Y-86582605D01*
X198822367Y-86391746D01*
X198693872Y-86221593D01*
X198693871Y-86221593D01*
X198536302Y-86077948D01*
X198355019Y-85965702D01*
X198355017Y-85965701D01*
X198255608Y-85927190D01*
X198156198Y-85888679D01*
X197946610Y-85849500D01*
X197733390Y-85849500D01*
X197523802Y-85888679D01*
X197523799Y-85888679D01*
X197523799Y-85888680D01*
X197324982Y-85965701D01*
X197324980Y-85965702D01*
X197143699Y-86077947D01*
X196986127Y-86221593D01*
X196857634Y-86391744D01*
X196790676Y-86526215D01*
X196743173Y-86577452D01*
X196675510Y-86594873D01*
X196609170Y-86572947D01*
X196567294Y-86523348D01*
X196473600Y-86322422D01*
X196473599Y-86322420D01*
X196338113Y-86128926D01*
X196338108Y-86128920D01*
X196171082Y-85961894D01*
X195977578Y-85826399D01*
X195763492Y-85726570D01*
X195763486Y-85726567D01*
X195550000Y-85669364D01*
X195550000Y-86564498D01*
X195442315Y-86515320D01*
X195335763Y-86500000D01*
X195264237Y-86500000D01*
X195157685Y-86515320D01*
X195050000Y-86564498D01*
X195050000Y-85669364D01*
X195049999Y-85669364D01*
X194836513Y-85726567D01*
X194836507Y-85726570D01*
X194622422Y-85826399D01*
X194622420Y-85826400D01*
X194428926Y-85961886D01*
X194428920Y-85961891D01*
X194261891Y-86128920D01*
X194261886Y-86128926D01*
X194126400Y-86322420D01*
X194126399Y-86322422D01*
X194026570Y-86536507D01*
X194026567Y-86536513D01*
X193969364Y-86749999D01*
X193969364Y-86750000D01*
X194866314Y-86750000D01*
X194840507Y-86790156D01*
X194800000Y-86928111D01*
X194800000Y-87071889D01*
X194840507Y-87209844D01*
X194866314Y-87250000D01*
X193969364Y-87250000D01*
X166000500Y-87250000D01*
X166000500Y-83600000D01*
X193969364Y-83600000D01*
X194026567Y-83813486D01*
X194026570Y-83813492D01*
X194126399Y-84027578D01*
X194261894Y-84221082D01*
X194428917Y-84388105D01*
X194622421Y-84523600D01*
X194836507Y-84623429D01*
X194836516Y-84623433D01*
X195050000Y-84680634D01*
X195050000Y-83785501D01*
X195157685Y-83834680D01*
X195264237Y-83850000D01*
X195335763Y-83850000D01*
X195442315Y-83834680D01*
X195550000Y-83785501D01*
X195550000Y-84680633D01*
X195763483Y-84623433D01*
X195763492Y-84623429D01*
X195977578Y-84523600D01*
X196171082Y-84388105D01*
X196338105Y-84221082D01*
X196473600Y-84027578D01*
X196567294Y-83826651D01*
X196613466Y-83774212D01*
X196680660Y-83755060D01*
X196747541Y-83775276D01*
X196790676Y-83823785D01*
X196857632Y-83958253D01*
X196986127Y-84128406D01*
X196986128Y-84128407D01*
X197143698Y-84272052D01*
X197324981Y-84384298D01*
X197523802Y-84461321D01*
X197733390Y-84500500D01*
X197733392Y-84500500D01*
X197946608Y-84500500D01*
X197946610Y-84500500D01*
X198156198Y-84461321D01*
X198355019Y-84384298D01*
X198536302Y-84272052D01*
X198693872Y-84128407D01*
X198822366Y-83958255D01*
X198876270Y-83850000D01*
X198917403Y-83767394D01*
X198917403Y-83767393D01*
X198917405Y-83767389D01*
X198975756Y-83562310D01*
X198982029Y-83494605D01*
X199007814Y-83429669D01*
X199064614Y-83388981D01*
X199134395Y-83385461D01*
X199195002Y-83420225D01*
X199227193Y-83482238D01*
X199229500Y-83506047D01*
X199229500Y-84244856D01*
X199229502Y-84244882D01*
X199232413Y-84269987D01*
X199232415Y-84269991D01*
X199277793Y-84372764D01*
X199277794Y-84372765D01*
X199357235Y-84452206D01*
X199460009Y-84497585D01*
X199485135Y-84500500D01*
X201274864Y-84500499D01*
X201274879Y-84500497D01*
X201274882Y-84500497D01*
X201299987Y-84497586D01*
X201299988Y-84497585D01*
X201299991Y-84497585D01*
X201402765Y-84452206D01*
X201482206Y-84372765D01*
X201527585Y-84269991D01*
X201530500Y-84244865D01*
X201530499Y-82455136D01*
X201530497Y-82455117D01*
X201527586Y-82430012D01*
X201527585Y-82430010D01*
X201527585Y-82430009D01*
X201482206Y-82327235D01*
X201402765Y-82247794D01*
X201382124Y-82238680D01*
X201299992Y-82202415D01*
X201274865Y-82199500D01*
X199485143Y-82199500D01*
X199485117Y-82199502D01*
X199460012Y-82202413D01*
X199460008Y-82202415D01*
X199357235Y-82247793D01*
X199277794Y-82327234D01*
X199232415Y-82430006D01*
X199232415Y-82430008D01*
X199229500Y-82455131D01*
X199229500Y-83193951D01*
X199209815Y-83260990D01*
X199157011Y-83306745D01*
X199087853Y-83316689D01*
X199024297Y-83287664D01*
X198986523Y-83228886D01*
X198982029Y-83205391D01*
X198975756Y-83137689D01*
X198961273Y-83086789D01*
X198917405Y-82932611D01*
X198917403Y-82932606D01*
X198917403Y-82932605D01*
X198822367Y-82741746D01*
X198693872Y-82571593D01*
X198536302Y-82427948D01*
X198355019Y-82315702D01*
X198355017Y-82315701D01*
X198255608Y-82277190D01*
X198156198Y-82238679D01*
X197946610Y-82199500D01*
X197733390Y-82199500D01*
X197523802Y-82238679D01*
X197523799Y-82238679D01*
X197523799Y-82238680D01*
X197324982Y-82315701D01*
X197324980Y-82315702D01*
X197143699Y-82427947D01*
X196986127Y-82571593D01*
X196857634Y-82741744D01*
X196790676Y-82876215D01*
X196743173Y-82927452D01*
X196675510Y-82944873D01*
X196609170Y-82922947D01*
X196567294Y-82873348D01*
X196473600Y-82672422D01*
X196473599Y-82672420D01*
X196338113Y-82478926D01*
X196338108Y-82478920D01*
X196171082Y-82311894D01*
X195977578Y-82176399D01*
X195763492Y-82076570D01*
X195763486Y-82076567D01*
X195550000Y-82019364D01*
X195550000Y-82914498D01*
X195442315Y-82865320D01*
X195335763Y-82850000D01*
X195264237Y-82850000D01*
X195157685Y-82865320D01*
X195050000Y-82914498D01*
X195050000Y-82019364D01*
X195049999Y-82019364D01*
X194836513Y-82076567D01*
X194836507Y-82076570D01*
X194622422Y-82176399D01*
X194622420Y-82176400D01*
X194428926Y-82311886D01*
X194428920Y-82311891D01*
X194261891Y-82478920D01*
X194261886Y-82478926D01*
X194126400Y-82672420D01*
X194126399Y-82672422D01*
X194026570Y-82886507D01*
X194026567Y-82886513D01*
X193969364Y-83099999D01*
X193969364Y-83100000D01*
X194866314Y-83100000D01*
X194840507Y-83140156D01*
X194800000Y-83278111D01*
X194800000Y-83421889D01*
X194840507Y-83559844D01*
X194866314Y-83600000D01*
X193969364Y-83600000D01*
X166000500Y-83600000D01*
X166000500Y-80200000D01*
X168819364Y-80200000D01*
X168876567Y-80413486D01*
X168876570Y-80413492D01*
X168976399Y-80627578D01*
X169111894Y-80821082D01*
X169278917Y-80988105D01*
X169472421Y-81123600D01*
X169686507Y-81223429D01*
X169686516Y-81223433D01*
X169900000Y-81280634D01*
X169900000Y-80385501D01*
X170007685Y-80434680D01*
X170114237Y-80450000D01*
X170185763Y-80450000D01*
X170292315Y-80434680D01*
X170400000Y-80385501D01*
X170400000Y-81280633D01*
X170613483Y-81223433D01*
X170613492Y-81223429D01*
X170827578Y-81123600D01*
X171021082Y-80988105D01*
X171188105Y-80821082D01*
X171323600Y-80627578D01*
X171423429Y-80413492D01*
X171423432Y-80413486D01*
X171480636Y-80200000D01*
X170583686Y-80200000D01*
X170609493Y-80159844D01*
X170650000Y-80021889D01*
X170650000Y-79878111D01*
X170609493Y-79740156D01*
X170583686Y-79700000D01*
X171480636Y-79700000D01*
X171480635Y-79699999D01*
X171423432Y-79486513D01*
X171423429Y-79486507D01*
X171323600Y-79272422D01*
X171323599Y-79272420D01*
X171188113Y-79078926D01*
X171188108Y-79078920D01*
X171021082Y-78911894D01*
X170827578Y-78776399D01*
X170628426Y-78683533D01*
X170575987Y-78637360D01*
X170556835Y-78570167D01*
X170577051Y-78503286D01*
X170630216Y-78457951D01*
X170636005Y-78455537D01*
X170665019Y-78444298D01*
X170846302Y-78332052D01*
X171003872Y-78188407D01*
X171132366Y-78018255D01*
X171167556Y-77947584D01*
X171227403Y-77827394D01*
X171227403Y-77827393D01*
X171227405Y-77827389D01*
X171285756Y-77622310D01*
X171305429Y-77410000D01*
X171285756Y-77197690D01*
X171243734Y-77050000D01*
X191349364Y-77050000D01*
X191406567Y-77263486D01*
X191406570Y-77263492D01*
X191506399Y-77477578D01*
X191641894Y-77671082D01*
X191808917Y-77838105D01*
X192002421Y-77973600D01*
X192216507Y-78073429D01*
X192216516Y-78073433D01*
X192430000Y-78130634D01*
X192430000Y-77235501D01*
X192537685Y-77284680D01*
X192644237Y-77300000D01*
X192715763Y-77300000D01*
X192822315Y-77284680D01*
X192930000Y-77235501D01*
X192930000Y-78130633D01*
X193143483Y-78073433D01*
X193143492Y-78073429D01*
X193357578Y-77973600D01*
X193551082Y-77838105D01*
X193718105Y-77671082D01*
X193853600Y-77477578D01*
X193947294Y-77276651D01*
X193993466Y-77224212D01*
X194060660Y-77205060D01*
X194127541Y-77225276D01*
X194170676Y-77273785D01*
X194237632Y-77408253D01*
X194366127Y-77578406D01*
X194366128Y-77578407D01*
X194523698Y-77722052D01*
X194704981Y-77834298D01*
X194903802Y-77911321D01*
X195113390Y-77950500D01*
X195113392Y-77950500D01*
X195326608Y-77950500D01*
X195326610Y-77950500D01*
X195536198Y-77911321D01*
X195735019Y-77834298D01*
X195916302Y-77722052D01*
X196073872Y-77578407D01*
X196202366Y-77408255D01*
X196256270Y-77300000D01*
X196297403Y-77217394D01*
X196297403Y-77217393D01*
X196297405Y-77217389D01*
X196355756Y-77012310D01*
X196366529Y-76896045D01*
X196392313Y-76831112D01*
X196434621Y-76800804D01*
X196543128Y-76800804D01*
X196579501Y-76821667D01*
X196611692Y-76883680D01*
X196613470Y-76896047D01*
X196624244Y-77012310D01*
X196682596Y-77217392D01*
X196682596Y-77217394D01*
X196777632Y-77408253D01*
X196906127Y-77578406D01*
X196906128Y-77578407D01*
X197063698Y-77722052D01*
X197244981Y-77834298D01*
X197443802Y-77911321D01*
X197653390Y-77950500D01*
X197653392Y-77950500D01*
X197866608Y-77950500D01*
X197866610Y-77950500D01*
X198076198Y-77911321D01*
X198275019Y-77834298D01*
X198456302Y-77722052D01*
X198613872Y-77578407D01*
X198742366Y-77408255D01*
X198796270Y-77300000D01*
X198837403Y-77217394D01*
X198837403Y-77217393D01*
X198837405Y-77217389D01*
X198895756Y-77012310D01*
X198902029Y-76944605D01*
X198927814Y-76879669D01*
X198984614Y-76838981D01*
X199054395Y-76835461D01*
X199115002Y-76870225D01*
X199147193Y-76932238D01*
X199149500Y-76956047D01*
X199149500Y-77694856D01*
X199149502Y-77694882D01*
X199152413Y-77719987D01*
X199152415Y-77719991D01*
X199197793Y-77822764D01*
X199197794Y-77822764D01*
X199197794Y-77822765D01*
X199277235Y-77902206D01*
X199380009Y-77947585D01*
X199405135Y-77950500D01*
X201194864Y-77950499D01*
X201194879Y-77950497D01*
X201194882Y-77950497D01*
X201219987Y-77947586D01*
X201219988Y-77947585D01*
X201219991Y-77947585D01*
X201322765Y-77902206D01*
X201402206Y-77822765D01*
X201447585Y-77719991D01*
X201450500Y-77694865D01*
X201450499Y-75905136D01*
X201450402Y-75904297D01*
X201447586Y-75880012D01*
X201447585Y-75880010D01*
X201447585Y-75880009D01*
X201402206Y-75777235D01*
X201322765Y-75697794D01*
X201302124Y-75688680D01*
X201219992Y-75652415D01*
X201194865Y-75649500D01*
X199405143Y-75649500D01*
X199405117Y-75649502D01*
X199380012Y-75652413D01*
X199380008Y-75652415D01*
X199277235Y-75697793D01*
X199197794Y-75777234D01*
X199152415Y-75880006D01*
X199152415Y-75880008D01*
X199149500Y-75905131D01*
X199149500Y-76643951D01*
X199129815Y-76710990D01*
X199077011Y-76756745D01*
X199007853Y-76766689D01*
X198944297Y-76737664D01*
X198906523Y-76678886D01*
X198902029Y-76655391D01*
X198895756Y-76587689D01*
X198867376Y-76487947D01*
X198837405Y-76382611D01*
X198837403Y-76382606D01*
X198837403Y-76382605D01*
X198742367Y-76191746D01*
X198613872Y-76021593D01*
X198569694Y-75981319D01*
X198456302Y-75877948D01*
X198275019Y-75765702D01*
X198275017Y-75765701D01*
X198175608Y-75727190D01*
X198076198Y-75688679D01*
X197866610Y-75649500D01*
X197653390Y-75649500D01*
X197443802Y-75688679D01*
X197443799Y-75688679D01*
X197443799Y-75688680D01*
X197244982Y-75765701D01*
X197244980Y-75765702D01*
X197063699Y-75877947D01*
X196906127Y-76021593D01*
X196777632Y-76191746D01*
X196682596Y-76382605D01*
X196682596Y-76382607D01*
X196624244Y-76587689D01*
X196613470Y-76703952D01*
X196587683Y-76768889D01*
X196543128Y-76800804D01*
X196434621Y-76800804D01*
X196436868Y-76799194D01*
X196400495Y-76778330D01*
X196368306Y-76716317D01*
X196366530Y-76703966D01*
X196355756Y-76587690D01*
X196297405Y-76382611D01*
X196297403Y-76382606D01*
X196297403Y-76382605D01*
X196202367Y-76191746D01*
X196073872Y-76021593D01*
X196029694Y-75981319D01*
X195916302Y-75877948D01*
X195735019Y-75765702D01*
X195735017Y-75765701D01*
X195635608Y-75727190D01*
X195536198Y-75688679D01*
X195326610Y-75649500D01*
X195113390Y-75649500D01*
X194903802Y-75688679D01*
X194903799Y-75688679D01*
X194903799Y-75688680D01*
X194704982Y-75765701D01*
X194704980Y-75765702D01*
X194523699Y-75877947D01*
X194366127Y-76021593D01*
X194237634Y-76191744D01*
X194170676Y-76326215D01*
X194123173Y-76377452D01*
X194055510Y-76394873D01*
X193989170Y-76372947D01*
X193947294Y-76323348D01*
X193853600Y-76122422D01*
X193853599Y-76122420D01*
X193718113Y-75928926D01*
X193718108Y-75928920D01*
X193551082Y-75761894D01*
X193357578Y-75626399D01*
X193143492Y-75526570D01*
X193143486Y-75526567D01*
X192930000Y-75469364D01*
X192930000Y-76364498D01*
X192822315Y-76315320D01*
X192715763Y-76300000D01*
X192644237Y-76300000D01*
X192537685Y-76315320D01*
X192430000Y-76364498D01*
X192430000Y-75469364D01*
X192429999Y-75469364D01*
X192216513Y-75526567D01*
X192216507Y-75526570D01*
X192002422Y-75626399D01*
X192002420Y-75626400D01*
X191808926Y-75761886D01*
X191808920Y-75761891D01*
X191641891Y-75928920D01*
X191641886Y-75928926D01*
X191506400Y-76122420D01*
X191506399Y-76122422D01*
X191406570Y-76336507D01*
X191406567Y-76336513D01*
X191349364Y-76549999D01*
X191349364Y-76550000D01*
X192246314Y-76550000D01*
X192220507Y-76590156D01*
X192180000Y-76728111D01*
X192180000Y-76871889D01*
X192220507Y-77009844D01*
X192246314Y-77050000D01*
X191349364Y-77050000D01*
X171243734Y-77050000D01*
X171227405Y-76992611D01*
X171227403Y-76992606D01*
X171227403Y-76992605D01*
X171132367Y-76801746D01*
X171003872Y-76631593D01*
X170914368Y-76549999D01*
X170846302Y-76487948D01*
X170665019Y-76375702D01*
X170665017Y-76375701D01*
X170537277Y-76326215D01*
X170466198Y-76298679D01*
X170269385Y-76261888D01*
X170207106Y-76230221D01*
X170171833Y-76169908D01*
X170174767Y-76100100D01*
X170214976Y-76042960D01*
X170269384Y-76018111D01*
X170466198Y-75981321D01*
X170665019Y-75904298D01*
X170846302Y-75792052D01*
X171003872Y-75648407D01*
X171132366Y-75478255D01*
X171227405Y-75287389D01*
X171285756Y-75082310D01*
X171305429Y-74870000D01*
X171285756Y-74657690D01*
X171227405Y-74452611D01*
X171227403Y-74452606D01*
X171227403Y-74452605D01*
X171132367Y-74261746D01*
X171003872Y-74091593D01*
X171003872Y-74091592D01*
X170846302Y-73947948D01*
X170665019Y-73835702D01*
X170665017Y-73835701D01*
X170565608Y-73797190D01*
X170466198Y-73758679D01*
X170293456Y-73726387D01*
X170231176Y-73694719D01*
X170195903Y-73634407D01*
X170198837Y-73564599D01*
X170239046Y-73507459D01*
X170303764Y-73481128D01*
X170316233Y-73480499D01*
X171044864Y-73480499D01*
X171044879Y-73480497D01*
X171044882Y-73480497D01*
X171069987Y-73477586D01*
X171069988Y-73477585D01*
X171069991Y-73477585D01*
X171172765Y-73432206D01*
X171252206Y-73352765D01*
X171297585Y-73249991D01*
X171300500Y-73224865D01*
X171300500Y-72450000D01*
X172469364Y-72450000D01*
X172526567Y-72663486D01*
X172526570Y-72663492D01*
X172626399Y-72877578D01*
X172761894Y-73071082D01*
X172928917Y-73238105D01*
X173122421Y-73373600D01*
X173336507Y-73473429D01*
X173336516Y-73473433D01*
X173550000Y-73530634D01*
X173550000Y-72635501D01*
X173657685Y-72684680D01*
X173764237Y-72700000D01*
X173835763Y-72700000D01*
X173942315Y-72684680D01*
X174050000Y-72635501D01*
X174050000Y-73530633D01*
X174263483Y-73473433D01*
X174263492Y-73473429D01*
X174477578Y-73373600D01*
X174671082Y-73238105D01*
X174838105Y-73071082D01*
X174973600Y-72877578D01*
X175067294Y-72676651D01*
X175113466Y-72624212D01*
X175180660Y-72605060D01*
X175247541Y-72625276D01*
X175290676Y-72673785D01*
X175357632Y-72808253D01*
X175486127Y-72978406D01*
X175486128Y-72978407D01*
X175643698Y-73122052D01*
X175824981Y-73234298D01*
X176023802Y-73311321D01*
X176233390Y-73350500D01*
X176233392Y-73350500D01*
X176446608Y-73350500D01*
X176446610Y-73350500D01*
X176656198Y-73311321D01*
X176855019Y-73234298D01*
X177036302Y-73122052D01*
X177193872Y-72978407D01*
X177322366Y-72808255D01*
X177376270Y-72700000D01*
X177417403Y-72617394D01*
X177417403Y-72617393D01*
X177417405Y-72617389D01*
X177475756Y-72412310D01*
X177486529Y-72296045D01*
X177512313Y-72231112D01*
X177554621Y-72200804D01*
X177663128Y-72200804D01*
X177699501Y-72221667D01*
X177731692Y-72283680D01*
X177733470Y-72296047D01*
X177744244Y-72412310D01*
X177802596Y-72617392D01*
X177802596Y-72617394D01*
X177897632Y-72808253D01*
X178026127Y-72978406D01*
X178026128Y-72978407D01*
X178183698Y-73122052D01*
X178364981Y-73234298D01*
X178563802Y-73311321D01*
X178773390Y-73350500D01*
X178773392Y-73350500D01*
X178986608Y-73350500D01*
X178986610Y-73350500D01*
X179196198Y-73311321D01*
X179395019Y-73234298D01*
X179576302Y-73122052D01*
X179733872Y-72978407D01*
X179862366Y-72808255D01*
X179916270Y-72700000D01*
X179957403Y-72617394D01*
X179957403Y-72617393D01*
X179957405Y-72617389D01*
X180015756Y-72412310D01*
X180026529Y-72296047D01*
X180052315Y-72231111D01*
X180094622Y-72200804D01*
X180203130Y-72200804D01*
X180239503Y-72221668D01*
X180271693Y-72283681D01*
X180273471Y-72296048D01*
X180284244Y-72412310D01*
X180342596Y-72617392D01*
X180342596Y-72617394D01*
X180437632Y-72808253D01*
X180566127Y-72978406D01*
X180566128Y-72978407D01*
X180723698Y-73122052D01*
X180904981Y-73234298D01*
X181103802Y-73311321D01*
X181313390Y-73350500D01*
X181313392Y-73350500D01*
X181526608Y-73350500D01*
X181526610Y-73350500D01*
X181736198Y-73311321D01*
X181935019Y-73234298D01*
X182116302Y-73122052D01*
X182273872Y-72978407D01*
X182402366Y-72808255D01*
X182456270Y-72700000D01*
X182497403Y-72617394D01*
X182497403Y-72617393D01*
X182497405Y-72617389D01*
X182555756Y-72412310D01*
X182562029Y-72344605D01*
X182587814Y-72279669D01*
X182644614Y-72238981D01*
X182714395Y-72235461D01*
X182775002Y-72270225D01*
X182807193Y-72332238D01*
X182809500Y-72356047D01*
X182809500Y-73094856D01*
X182809502Y-73094882D01*
X182812413Y-73119987D01*
X182812415Y-73119991D01*
X182857793Y-73222764D01*
X182857794Y-73222765D01*
X182937235Y-73302206D01*
X183040009Y-73347585D01*
X183065135Y-73350500D01*
X184854864Y-73350499D01*
X184854879Y-73350497D01*
X184854882Y-73350497D01*
X184879987Y-73347586D01*
X184879988Y-73347585D01*
X184879991Y-73347585D01*
X184982765Y-73302206D01*
X185062206Y-73222765D01*
X185107585Y-73119991D01*
X185110500Y-73094865D01*
X185110500Y-72450000D01*
X186269364Y-72450000D01*
X186326567Y-72663486D01*
X186326570Y-72663492D01*
X186426399Y-72877578D01*
X186561894Y-73071082D01*
X186728917Y-73238105D01*
X186922421Y-73373600D01*
X187136507Y-73473429D01*
X187136516Y-73473433D01*
X187350000Y-73530634D01*
X187350000Y-72635501D01*
X187457685Y-72684680D01*
X187564237Y-72700000D01*
X187635763Y-72700000D01*
X187742315Y-72684680D01*
X187850000Y-72635501D01*
X187850000Y-73530633D01*
X188063483Y-73473433D01*
X188063492Y-73473429D01*
X188277578Y-73373600D01*
X188471082Y-73238105D01*
X188638105Y-73071082D01*
X188773600Y-72877578D01*
X188867294Y-72676651D01*
X188913466Y-72624212D01*
X188980660Y-72605060D01*
X189047541Y-72625276D01*
X189090676Y-72673785D01*
X189157632Y-72808253D01*
X189286127Y-72978406D01*
X189286128Y-72978407D01*
X189443698Y-73122052D01*
X189624981Y-73234298D01*
X189823802Y-73311321D01*
X190033390Y-73350500D01*
X190033392Y-73350500D01*
X190246608Y-73350500D01*
X190246610Y-73350500D01*
X190456198Y-73311321D01*
X190655019Y-73234298D01*
X190836302Y-73122052D01*
X190993872Y-72978407D01*
X191122366Y-72808255D01*
X191176270Y-72700000D01*
X191217403Y-72617394D01*
X191217403Y-72617393D01*
X191217405Y-72617389D01*
X191275756Y-72412310D01*
X191286529Y-72296047D01*
X191312315Y-72231111D01*
X191354622Y-72200804D01*
X191463130Y-72200804D01*
X191499503Y-72221668D01*
X191531693Y-72283681D01*
X191533471Y-72296048D01*
X191544244Y-72412310D01*
X191602596Y-72617392D01*
X191602596Y-72617394D01*
X191697632Y-72808253D01*
X191826127Y-72978406D01*
X191826128Y-72978407D01*
X191983698Y-73122052D01*
X192164981Y-73234298D01*
X192363802Y-73311321D01*
X192573390Y-73350500D01*
X192573392Y-73350500D01*
X192786608Y-73350500D01*
X192786610Y-73350500D01*
X192996198Y-73311321D01*
X193195019Y-73234298D01*
X193376302Y-73122052D01*
X193533872Y-72978407D01*
X193662366Y-72808255D01*
X193716270Y-72700000D01*
X193757403Y-72617394D01*
X193757403Y-72617393D01*
X193757405Y-72617389D01*
X193815756Y-72412310D01*
X193826529Y-72296047D01*
X193852315Y-72231111D01*
X193894622Y-72200804D01*
X194003130Y-72200804D01*
X194039503Y-72221668D01*
X194071693Y-72283681D01*
X194073471Y-72296048D01*
X194084244Y-72412310D01*
X194142596Y-72617392D01*
X194142596Y-72617394D01*
X194237632Y-72808253D01*
X194366127Y-72978406D01*
X194366128Y-72978407D01*
X194523698Y-73122052D01*
X194704981Y-73234298D01*
X194903802Y-73311321D01*
X195113390Y-73350500D01*
X195113392Y-73350500D01*
X195326608Y-73350500D01*
X195326610Y-73350500D01*
X195536198Y-73311321D01*
X195735019Y-73234298D01*
X195916302Y-73122052D01*
X196073872Y-72978407D01*
X196202366Y-72808255D01*
X196256270Y-72700000D01*
X196297403Y-72617394D01*
X196297403Y-72617393D01*
X196297405Y-72617389D01*
X196355756Y-72412310D01*
X196366529Y-72296045D01*
X196392313Y-72231112D01*
X196434621Y-72200804D01*
X196543128Y-72200804D01*
X196579501Y-72221667D01*
X196611692Y-72283680D01*
X196613470Y-72296047D01*
X196624244Y-72412310D01*
X196682596Y-72617392D01*
X196682596Y-72617394D01*
X196777632Y-72808253D01*
X196906127Y-72978406D01*
X196906128Y-72978407D01*
X197063698Y-73122052D01*
X197244981Y-73234298D01*
X197443802Y-73311321D01*
X197653390Y-73350500D01*
X197653392Y-73350500D01*
X197866608Y-73350500D01*
X197866610Y-73350500D01*
X198076198Y-73311321D01*
X198275019Y-73234298D01*
X198456302Y-73122052D01*
X198613872Y-72978407D01*
X198742366Y-72808255D01*
X198796270Y-72700000D01*
X198837403Y-72617394D01*
X198837403Y-72617393D01*
X198837405Y-72617389D01*
X198895756Y-72412310D01*
X198902029Y-72344605D01*
X198927814Y-72279669D01*
X198984614Y-72238981D01*
X199054395Y-72235461D01*
X199115002Y-72270225D01*
X199147193Y-72332238D01*
X199149500Y-72356047D01*
X199149500Y-73094856D01*
X199149502Y-73094882D01*
X199152413Y-73119987D01*
X199152415Y-73119991D01*
X199197793Y-73222764D01*
X199197794Y-73222765D01*
X199277235Y-73302206D01*
X199380009Y-73347585D01*
X199405135Y-73350500D01*
X201194864Y-73350499D01*
X201194879Y-73350497D01*
X201194882Y-73350497D01*
X201219987Y-73347586D01*
X201219988Y-73347585D01*
X201219991Y-73347585D01*
X201322765Y-73302206D01*
X201402206Y-73222765D01*
X201447585Y-73119991D01*
X201450500Y-73094865D01*
X201450499Y-71305136D01*
X201450497Y-71305117D01*
X201447586Y-71280012D01*
X201447585Y-71280010D01*
X201447585Y-71280009D01*
X201402206Y-71177235D01*
X201322765Y-71097794D01*
X201302124Y-71088680D01*
X201219992Y-71052415D01*
X201194865Y-71049500D01*
X199405143Y-71049500D01*
X199405117Y-71049502D01*
X199380012Y-71052413D01*
X199380008Y-71052415D01*
X199277235Y-71097793D01*
X199197794Y-71177234D01*
X199152415Y-71280006D01*
X199152415Y-71280008D01*
X199149500Y-71305131D01*
X199149500Y-72043951D01*
X199129815Y-72110990D01*
X199077011Y-72156745D01*
X199007853Y-72166689D01*
X198944297Y-72137664D01*
X198906523Y-72078886D01*
X198902029Y-72055391D01*
X198895756Y-71987689D01*
X198881273Y-71936789D01*
X198837405Y-71782611D01*
X198837403Y-71782606D01*
X198837403Y-71782605D01*
X198742367Y-71591746D01*
X198613872Y-71421593D01*
X198601162Y-71410006D01*
X198456302Y-71277948D01*
X198275019Y-71165702D01*
X198275017Y-71165701D01*
X198175608Y-71127190D01*
X198076198Y-71088679D01*
X197866610Y-71049500D01*
X197653390Y-71049500D01*
X197443802Y-71088679D01*
X197443799Y-71088679D01*
X197443799Y-71088680D01*
X197244982Y-71165701D01*
X197244980Y-71165702D01*
X197063699Y-71277947D01*
X196906127Y-71421593D01*
X196777632Y-71591746D01*
X196682596Y-71782605D01*
X196682596Y-71782607D01*
X196624244Y-71987689D01*
X196613470Y-72103952D01*
X196587683Y-72168889D01*
X196543128Y-72200804D01*
X196434621Y-72200804D01*
X196436868Y-72199194D01*
X196400495Y-72178330D01*
X196368306Y-72116317D01*
X196366530Y-72103966D01*
X196355756Y-71987690D01*
X196297405Y-71782611D01*
X196297403Y-71782606D01*
X196297403Y-71782605D01*
X196202367Y-71591746D01*
X196073872Y-71421593D01*
X196061162Y-71410006D01*
X195916302Y-71277948D01*
X195735019Y-71165702D01*
X195735017Y-71165701D01*
X195635608Y-71127190D01*
X195536198Y-71088679D01*
X195326610Y-71049500D01*
X195113390Y-71049500D01*
X194903802Y-71088679D01*
X194903799Y-71088679D01*
X194903799Y-71088680D01*
X194704982Y-71165701D01*
X194704980Y-71165702D01*
X194523699Y-71277947D01*
X194366127Y-71421593D01*
X194237632Y-71591746D01*
X194142596Y-71782605D01*
X194142596Y-71782607D01*
X194084244Y-71987689D01*
X194073471Y-72103951D01*
X194047685Y-72168888D01*
X194003130Y-72200804D01*
X193894622Y-72200804D01*
X193896869Y-72199194D01*
X193860497Y-72178331D01*
X193828307Y-72116318D01*
X193826529Y-72103951D01*
X193820969Y-72043951D01*
X193815756Y-71987690D01*
X193757405Y-71782611D01*
X193757403Y-71782606D01*
X193757403Y-71782605D01*
X193662367Y-71591746D01*
X193533872Y-71421593D01*
X193521162Y-71410006D01*
X193376302Y-71277948D01*
X193195019Y-71165702D01*
X193195017Y-71165701D01*
X193095608Y-71127190D01*
X192996198Y-71088679D01*
X192786610Y-71049500D01*
X192573390Y-71049500D01*
X192363802Y-71088679D01*
X192363799Y-71088679D01*
X192363799Y-71088680D01*
X192164982Y-71165701D01*
X192164980Y-71165702D01*
X191983699Y-71277947D01*
X191826127Y-71421593D01*
X191697632Y-71591746D01*
X191602596Y-71782605D01*
X191602596Y-71782607D01*
X191544244Y-71987689D01*
X191533471Y-72103951D01*
X191507685Y-72168888D01*
X191463130Y-72200804D01*
X191354622Y-72200804D01*
X191356869Y-72199194D01*
X191320497Y-72178331D01*
X191288307Y-72116318D01*
X191286529Y-72103951D01*
X191280969Y-72043951D01*
X191275756Y-71987690D01*
X191217405Y-71782611D01*
X191217403Y-71782606D01*
X191217403Y-71782605D01*
X191122367Y-71591746D01*
X190993872Y-71421593D01*
X190981162Y-71410006D01*
X190836302Y-71277948D01*
X190655019Y-71165702D01*
X190655017Y-71165701D01*
X190555608Y-71127190D01*
X190456198Y-71088679D01*
X190246610Y-71049500D01*
X190033390Y-71049500D01*
X189823802Y-71088679D01*
X189823799Y-71088679D01*
X189823799Y-71088680D01*
X189624982Y-71165701D01*
X189624980Y-71165702D01*
X189443699Y-71277947D01*
X189286127Y-71421593D01*
X189157634Y-71591744D01*
X189090676Y-71726215D01*
X189043173Y-71777452D01*
X188975510Y-71794873D01*
X188909170Y-71772947D01*
X188867294Y-71723348D01*
X188773600Y-71522422D01*
X188773599Y-71522420D01*
X188638113Y-71328926D01*
X188638108Y-71328920D01*
X188471082Y-71161894D01*
X188277578Y-71026399D01*
X188063492Y-70926570D01*
X188063486Y-70926567D01*
X187850000Y-70869364D01*
X187850000Y-71764498D01*
X187742315Y-71715320D01*
X187635763Y-71700000D01*
X187564237Y-71700000D01*
X187457685Y-71715320D01*
X187350000Y-71764498D01*
X187350000Y-70869364D01*
X187349999Y-70869364D01*
X187136513Y-70926567D01*
X187136507Y-70926570D01*
X186922422Y-71026399D01*
X186922420Y-71026400D01*
X186728926Y-71161886D01*
X186728920Y-71161891D01*
X186561891Y-71328920D01*
X186561886Y-71328926D01*
X186426400Y-71522420D01*
X186426399Y-71522422D01*
X186326570Y-71736507D01*
X186326567Y-71736513D01*
X186269364Y-71949999D01*
X186269364Y-71950000D01*
X187166314Y-71950000D01*
X187140507Y-71990156D01*
X187100000Y-72128111D01*
X187100000Y-72271889D01*
X187140507Y-72409844D01*
X187166314Y-72450000D01*
X186269364Y-72450000D01*
X185110500Y-72450000D01*
X185110499Y-71305136D01*
X185110497Y-71305117D01*
X185107586Y-71280012D01*
X185107585Y-71280010D01*
X185107585Y-71280009D01*
X185062206Y-71177235D01*
X184982765Y-71097794D01*
X184962124Y-71088680D01*
X184879992Y-71052415D01*
X184854865Y-71049500D01*
X183065143Y-71049500D01*
X183065117Y-71049502D01*
X183040012Y-71052413D01*
X183040008Y-71052415D01*
X182937235Y-71097793D01*
X182857794Y-71177234D01*
X182812415Y-71280006D01*
X182812415Y-71280008D01*
X182809500Y-71305131D01*
X182809500Y-72043951D01*
X182789815Y-72110990D01*
X182737011Y-72156745D01*
X182667853Y-72166689D01*
X182604297Y-72137664D01*
X182566523Y-72078886D01*
X182562029Y-72055391D01*
X182555756Y-71987689D01*
X182541273Y-71936789D01*
X182497405Y-71782611D01*
X182497403Y-71782606D01*
X182497403Y-71782605D01*
X182402367Y-71591746D01*
X182273872Y-71421593D01*
X182261162Y-71410006D01*
X182116302Y-71277948D01*
X181935019Y-71165702D01*
X181935017Y-71165701D01*
X181835608Y-71127190D01*
X181736198Y-71088679D01*
X181526610Y-71049500D01*
X181313390Y-71049500D01*
X181103802Y-71088679D01*
X181103799Y-71088679D01*
X181103799Y-71088680D01*
X180904982Y-71165701D01*
X180904980Y-71165702D01*
X180723699Y-71277947D01*
X180566127Y-71421593D01*
X180437632Y-71591746D01*
X180342596Y-71782605D01*
X180342596Y-71782607D01*
X180284244Y-71987689D01*
X180273471Y-72103951D01*
X180247685Y-72168888D01*
X180203130Y-72200804D01*
X180094622Y-72200804D01*
X180096869Y-72199194D01*
X180060497Y-72178331D01*
X180028307Y-72116318D01*
X180026529Y-72103951D01*
X180020969Y-72043951D01*
X180015756Y-71987690D01*
X179957405Y-71782611D01*
X179957403Y-71782606D01*
X179957403Y-71782605D01*
X179862367Y-71591746D01*
X179733872Y-71421593D01*
X179721162Y-71410006D01*
X179576302Y-71277948D01*
X179395019Y-71165702D01*
X179395017Y-71165701D01*
X179295608Y-71127190D01*
X179196198Y-71088679D01*
X178986610Y-71049500D01*
X178773390Y-71049500D01*
X178563802Y-71088679D01*
X178563799Y-71088679D01*
X178563799Y-71088680D01*
X178364982Y-71165701D01*
X178364980Y-71165702D01*
X178183699Y-71277947D01*
X178026127Y-71421593D01*
X177897632Y-71591746D01*
X177802596Y-71782605D01*
X177802596Y-71782607D01*
X177744244Y-71987689D01*
X177733470Y-72103952D01*
X177707683Y-72168889D01*
X177663128Y-72200804D01*
X177554621Y-72200804D01*
X177556868Y-72199194D01*
X177520495Y-72178330D01*
X177488306Y-72116317D01*
X177486530Y-72103966D01*
X177475756Y-71987690D01*
X177417405Y-71782611D01*
X177417403Y-71782606D01*
X177417403Y-71782605D01*
X177322367Y-71591746D01*
X177193872Y-71421593D01*
X177181162Y-71410006D01*
X177036302Y-71277948D01*
X176855019Y-71165702D01*
X176855017Y-71165701D01*
X176755608Y-71127190D01*
X176656198Y-71088679D01*
X176446610Y-71049500D01*
X176233390Y-71049500D01*
X176023802Y-71088679D01*
X176023799Y-71088679D01*
X176023799Y-71088680D01*
X175824982Y-71165701D01*
X175824980Y-71165702D01*
X175643699Y-71277947D01*
X175486127Y-71421593D01*
X175357634Y-71591744D01*
X175290676Y-71726215D01*
X175243173Y-71777452D01*
X175175510Y-71794873D01*
X175109170Y-71772947D01*
X175067294Y-71723348D01*
X174973600Y-71522422D01*
X174973599Y-71522420D01*
X174838113Y-71328926D01*
X174838108Y-71328920D01*
X174671082Y-71161894D01*
X174477578Y-71026399D01*
X174263492Y-70926570D01*
X174263486Y-70926567D01*
X174050000Y-70869364D01*
X174050000Y-71764498D01*
X173942315Y-71715320D01*
X173835763Y-71700000D01*
X173764237Y-71700000D01*
X173657685Y-71715320D01*
X173549999Y-71764498D01*
X173549999Y-70869364D01*
X173336513Y-70926567D01*
X173336507Y-70926570D01*
X173122422Y-71026399D01*
X173122420Y-71026400D01*
X172928926Y-71161886D01*
X172928920Y-71161891D01*
X172761891Y-71328920D01*
X172761886Y-71328926D01*
X172626400Y-71522420D01*
X172626399Y-71522422D01*
X172526570Y-71736507D01*
X172526567Y-71736513D01*
X172469364Y-71949999D01*
X172469364Y-71950000D01*
X173366314Y-71950000D01*
X173340507Y-71990156D01*
X173300000Y-72128111D01*
X173300000Y-72271889D01*
X173340507Y-72409844D01*
X173366314Y-72450000D01*
X172469364Y-72450000D01*
X171300500Y-72450000D01*
X171300499Y-71435136D01*
X171300497Y-71435117D01*
X171297586Y-71410012D01*
X171297585Y-71410010D01*
X171297585Y-71410009D01*
X171252206Y-71307235D01*
X171172765Y-71227794D01*
X171172763Y-71227793D01*
X171069992Y-71182415D01*
X171044865Y-71179500D01*
X169255143Y-71179500D01*
X169255117Y-71179502D01*
X169230012Y-71182413D01*
X169230008Y-71182415D01*
X169127235Y-71227793D01*
X169047794Y-71307234D01*
X169002415Y-71410006D01*
X169002415Y-71410008D01*
X168999500Y-71435131D01*
X168999500Y-73224856D01*
X168999502Y-73224882D01*
X169002413Y-73249987D01*
X169002415Y-73249991D01*
X169047793Y-73352764D01*
X169047794Y-73352764D01*
X169047794Y-73352765D01*
X169127235Y-73432206D01*
X169230009Y-73477585D01*
X169255135Y-73480500D01*
X169983758Y-73480499D01*
X170050795Y-73500183D01*
X170096550Y-73552987D01*
X170106494Y-73622146D01*
X170077469Y-73685702D01*
X170018691Y-73723476D01*
X170006542Y-73726388D01*
X169950116Y-73736935D01*
X169833802Y-73758679D01*
X169833800Y-73758679D01*
X169833798Y-73758680D01*
X169634982Y-73835701D01*
X169634980Y-73835702D01*
X169453699Y-73947947D01*
X169296127Y-74091593D01*
X169167632Y-74261746D01*
X169072596Y-74452605D01*
X169072596Y-74452607D01*
X169014244Y-74657689D01*
X168994571Y-74869999D01*
X168994571Y-74870000D01*
X169014244Y-75082310D01*
X169072596Y-75287392D01*
X169072596Y-75287394D01*
X169167632Y-75478253D01*
X169204120Y-75526570D01*
X169296128Y-75648407D01*
X169453698Y-75792052D01*
X169634981Y-75904298D01*
X169833802Y-75981321D01*
X170030613Y-76018111D01*
X170092893Y-76049779D01*
X170128166Y-76110092D01*
X170125232Y-76179900D01*
X170085023Y-76237040D01*
X170030613Y-76261888D01*
X169833802Y-76298679D01*
X169833799Y-76298679D01*
X169833799Y-76298680D01*
X169634982Y-76375701D01*
X169634980Y-76375702D01*
X169453699Y-76487947D01*
X169296127Y-76631593D01*
X169167632Y-76801746D01*
X169072596Y-76992605D01*
X169072596Y-76992607D01*
X169072594Y-76992611D01*
X169072595Y-76992611D01*
X169014244Y-77197690D01*
X168994571Y-77410000D01*
X169014244Y-77622310D01*
X169034885Y-77694856D01*
X169072596Y-77827392D01*
X169072596Y-77827394D01*
X169167632Y-78018253D01*
X169252499Y-78130634D01*
X169296128Y-78188407D01*
X169453698Y-78332052D01*
X169634981Y-78444298D01*
X169663961Y-78455525D01*
X169719362Y-78498095D01*
X169742954Y-78563861D01*
X169727244Y-78631942D01*
X169677222Y-78680722D01*
X169671573Y-78683533D01*
X169472422Y-78776399D01*
X169472420Y-78776400D01*
X169278926Y-78911886D01*
X169278920Y-78911891D01*
X169111891Y-79078920D01*
X169111886Y-79078926D01*
X168976400Y-79272420D01*
X168976399Y-79272422D01*
X168876570Y-79486507D01*
X168876567Y-79486513D01*
X168819364Y-79699999D01*
X168819364Y-79700000D01*
X169716314Y-79700000D01*
X169690507Y-79740156D01*
X169650000Y-79878111D01*
X169650000Y-80021889D01*
X169690507Y-80159844D01*
X169716314Y-80200000D01*
X168819364Y-80200000D01*
X166000500Y-80200000D01*
X166000500Y-71002036D01*
X166000633Y-70997981D01*
X166005982Y-70916360D01*
X166009343Y-70869364D01*
X166018986Y-70734536D01*
X166020014Y-70726903D01*
X166043153Y-70610579D01*
X166044118Y-70606141D01*
X166074533Y-70466323D01*
X166076392Y-70459625D01*
X166116815Y-70340543D01*
X166166159Y-70208251D01*
X166168633Y-70202520D01*
X166225583Y-70087036D01*
X166292179Y-69965076D01*
X166295019Y-69960384D01*
X166366563Y-69853311D01*
X166368428Y-69850676D01*
X166450291Y-69741321D01*
X166453244Y-69737678D01*
X166538503Y-69640459D01*
X166541198Y-69637581D01*
X166637581Y-69541198D01*
X166640459Y-69538503D01*
X166737678Y-69453244D01*
X166741321Y-69450291D01*
X166850676Y-69368428D01*
X166853311Y-69366563D01*
X166960384Y-69295019D01*
X166965076Y-69292179D01*
X167087036Y-69225583D01*
X167202520Y-69168633D01*
X167208251Y-69166159D01*
X167340543Y-69116815D01*
X167459625Y-69076392D01*
X167466323Y-69074533D01*
X167610548Y-69043158D01*
X167726903Y-69020014D01*
X167734536Y-69018986D01*
X167916244Y-69005989D01*
X167969211Y-69002517D01*
X167997981Y-69000633D01*
X168002036Y-69000500D01*
X168051818Y-69000500D01*
X168051850Y-69000494D01*
X201497861Y-68997871D01*
X201502116Y-68998017D01*
G37*
%TD.AperFunction*%
%TD*%
M02*
