M48
; DRILL file {KiCad 7.0.6} date Sat Jul 29 21:44:04 2023
; FORMAT={-:-/ absolute / metric / decimal}
; #@! TF.CreationDate,2023-07-29T21:44:04+03:00
; #@! TF.GenerationSoftware,Kicad,Pcbnew,7.0.6
; #@! TF.FileFunction,MixedPlating,1,2
FMAT,2
METRIC
; #@! TA.AperFunction,Plated,PTH,ViaDrill
T1C0.400
; #@! TA.AperFunction,Plated,PTH,ComponentDrill
T2C0.550
; #@! TA.AperFunction,Plated,PTH,ComponentDrill
T3C0.850
; #@! TA.AperFunction,Plated,PTH,ComponentDrill
T4C1.000
; #@! TA.AperFunction,NonPlated,NPTH,ComponentDrill
T5C0.800
; #@! TA.AperFunction,NonPlated,NPTH,ComponentDrill
T6C2.100
%
G90
G05
T1
X172.35Y-84.55
X175.9Y-80.7
X176.0Y-75.6
X176.5Y-100.8
X178.65Y-81.8
X178.65Y-84.15
X179.7Y-75.6
X179.7Y-98.75
X180.75Y-98.75
X182.2Y-97.5
X183.2Y-97.55
X183.6Y-84.35
X185.3Y-75.6
X188.3Y-89.8
X188.3Y-91.1
X190.05Y-78.05
X190.6Y-86.4
X193.95Y-94.0
X193.95Y-95.2
X193.95Y-96.4
X193.95Y-97.6
X195.2Y-97.8
T4
X170.15Y-72.33
X170.15Y-74.87
X170.15Y-77.41
X170.15Y-79.95
X170.18Y-90.3
X172.72Y-90.3
X173.8Y-72.2
X175.26Y-90.3
X176.34Y-72.2
X177.8Y-90.3
X178.88Y-72.2
X181.42Y-72.2
X183.96Y-72.2
X187.6Y-72.2
X190.14Y-72.2
X192.68Y-72.2
X192.68Y-76.8
X195.22Y-72.2
X195.22Y-76.8
X195.3Y-83.35
X195.3Y-87.0
X197.76Y-72.2
X197.76Y-76.8
X197.84Y-83.35
X197.84Y-87.0
X197.86Y-91.9
X200.3Y-72.2
X200.3Y-76.8
X200.38Y-83.35
X200.38Y-87.0
X200.4Y-91.9
T5
X198.45Y-96.575
X198.45Y-101.575
T6
X171.25Y-96.4
X191.6Y-104.55
T2
G00X200.875Y-95.2
M15
G01X201.525Y-95.2
M16
G05
G00X200.875Y-102.95
M15
G01X201.525Y-102.95
M16
G05
T3
G00X197.125Y-95.35
M15
G01X197.675Y-95.35
M16
G05
G00X197.125Y-102.8
M15
G01X197.675Y-102.8
M16
G05
T0
M30
