%TF.GenerationSoftware,KiCad,Pcbnew,7.0.6*%
%TF.CreationDate,2023-07-29T21:44:08+03:00*%
%TF.ProjectId,cat-toy-stm-c0,6361742d-746f-4792-9d73-746d2d63302e,rev?*%
%TF.SameCoordinates,Original*%
%TF.FileFunction,Legend,Bot*%
%TF.FilePolarity,Positive*%
%FSLAX46Y46*%
G04 Gerber Fmt 4.6, Leading zero omitted, Abs format (unit mm)*
G04 Created by KiCad (PCBNEW 7.0.6) date 2023-07-29 21:44:08*
%MOMM*%
%LPD*%
G01*
G04 APERTURE LIST*
%ADD10C,0.150000*%
G04 APERTURE END LIST*
D10*
X188177506Y-103269819D02*
X188177506Y-103984104D01*
X188177506Y-103984104D02*
X188225125Y-104126961D01*
X188225125Y-104126961D02*
X188320363Y-104222200D01*
X188320363Y-104222200D02*
X188463220Y-104269819D01*
X188463220Y-104269819D02*
X188558458Y-104269819D01*
X187225125Y-104269819D02*
X187701315Y-104269819D01*
X187701315Y-104269819D02*
X187701315Y-103269819D01*
X186320363Y-104174580D02*
X186367982Y-104222200D01*
X186367982Y-104222200D02*
X186510839Y-104269819D01*
X186510839Y-104269819D02*
X186606077Y-104269819D01*
X186606077Y-104269819D02*
X186748934Y-104222200D01*
X186748934Y-104222200D02*
X186844172Y-104126961D01*
X186844172Y-104126961D02*
X186891791Y-104031723D01*
X186891791Y-104031723D02*
X186939410Y-103841247D01*
X186939410Y-103841247D02*
X186939410Y-103698390D01*
X186939410Y-103698390D02*
X186891791Y-103507914D01*
X186891791Y-103507914D02*
X186844172Y-103412676D01*
X186844172Y-103412676D02*
X186748934Y-103317438D01*
X186748934Y-103317438D02*
X186606077Y-103269819D01*
X186606077Y-103269819D02*
X186510839Y-103269819D01*
X186510839Y-103269819D02*
X186367982Y-103317438D01*
X186367982Y-103317438D02*
X186320363Y-103365057D01*
X185606077Y-103269819D02*
X185606077Y-103984104D01*
X185606077Y-103984104D02*
X185653696Y-104126961D01*
X185653696Y-104126961D02*
X185748934Y-104222200D01*
X185748934Y-104222200D02*
X185891791Y-104269819D01*
X185891791Y-104269819D02*
X185987029Y-104269819D01*
X184653696Y-104269819D02*
X185129886Y-104269819D01*
X185129886Y-104269819D02*
X185129886Y-103269819D01*
X183748934Y-104174580D02*
X183796553Y-104222200D01*
X183796553Y-104222200D02*
X183939410Y-104269819D01*
X183939410Y-104269819D02*
X184034648Y-104269819D01*
X184034648Y-104269819D02*
X184177505Y-104222200D01*
X184177505Y-104222200D02*
X184272743Y-104126961D01*
X184272743Y-104126961D02*
X184320362Y-104031723D01*
X184320362Y-104031723D02*
X184367981Y-103841247D01*
X184367981Y-103841247D02*
X184367981Y-103698390D01*
X184367981Y-103698390D02*
X184320362Y-103507914D01*
X184320362Y-103507914D02*
X184272743Y-103412676D01*
X184272743Y-103412676D02*
X184177505Y-103317438D01*
X184177505Y-103317438D02*
X184034648Y-103269819D01*
X184034648Y-103269819D02*
X183939410Y-103269819D01*
X183939410Y-103269819D02*
X183796553Y-103317438D01*
X183796553Y-103317438D02*
X183748934Y-103365057D01*
X183034648Y-103269819D02*
X183034648Y-103984104D01*
X183034648Y-103984104D02*
X183082267Y-104126961D01*
X183082267Y-104126961D02*
X183177505Y-104222200D01*
X183177505Y-104222200D02*
X183320362Y-104269819D01*
X183320362Y-104269819D02*
X183415600Y-104269819D01*
X182082267Y-104269819D02*
X182558457Y-104269819D01*
X182558457Y-104269819D02*
X182558457Y-103269819D01*
X181177505Y-104174580D02*
X181225124Y-104222200D01*
X181225124Y-104222200D02*
X181367981Y-104269819D01*
X181367981Y-104269819D02*
X181463219Y-104269819D01*
X181463219Y-104269819D02*
X181606076Y-104222200D01*
X181606076Y-104222200D02*
X181701314Y-104126961D01*
X181701314Y-104126961D02*
X181748933Y-104031723D01*
X181748933Y-104031723D02*
X181796552Y-103841247D01*
X181796552Y-103841247D02*
X181796552Y-103698390D01*
X181796552Y-103698390D02*
X181748933Y-103507914D01*
X181748933Y-103507914D02*
X181701314Y-103412676D01*
X181701314Y-103412676D02*
X181606076Y-103317438D01*
X181606076Y-103317438D02*
X181463219Y-103269819D01*
X181463219Y-103269819D02*
X181367981Y-103269819D01*
X181367981Y-103269819D02*
X181225124Y-103317438D01*
X181225124Y-103317438D02*
X181177505Y-103365057D01*
X180463219Y-103269819D02*
X180463219Y-103984104D01*
X180463219Y-103984104D02*
X180510838Y-104126961D01*
X180510838Y-104126961D02*
X180606076Y-104222200D01*
X180606076Y-104222200D02*
X180748933Y-104269819D01*
X180748933Y-104269819D02*
X180844171Y-104269819D01*
X179510838Y-104269819D02*
X179987028Y-104269819D01*
X179987028Y-104269819D02*
X179987028Y-103269819D01*
X178606076Y-104174580D02*
X178653695Y-104222200D01*
X178653695Y-104222200D02*
X178796552Y-104269819D01*
X178796552Y-104269819D02*
X178891790Y-104269819D01*
X178891790Y-104269819D02*
X179034647Y-104222200D01*
X179034647Y-104222200D02*
X179129885Y-104126961D01*
X179129885Y-104126961D02*
X179177504Y-104031723D01*
X179177504Y-104031723D02*
X179225123Y-103841247D01*
X179225123Y-103841247D02*
X179225123Y-103698390D01*
X179225123Y-103698390D02*
X179177504Y-103507914D01*
X179177504Y-103507914D02*
X179129885Y-103412676D01*
X179129885Y-103412676D02*
X179034647Y-103317438D01*
X179034647Y-103317438D02*
X178891790Y-103269819D01*
X178891790Y-103269819D02*
X178796552Y-103269819D01*
X178796552Y-103269819D02*
X178653695Y-103317438D01*
X178653695Y-103317438D02*
X178606076Y-103365057D01*
X202058458Y-78659819D02*
X201820363Y-79659819D01*
X201820363Y-79659819D02*
X201629887Y-78945533D01*
X201629887Y-78945533D02*
X201439411Y-79659819D01*
X201439411Y-79659819D02*
X201201316Y-78659819D01*
X200820363Y-79659819D02*
X200820363Y-78659819D01*
X200391792Y-79659819D02*
X200391792Y-79136009D01*
X200391792Y-79136009D02*
X200439411Y-79040771D01*
X200439411Y-79040771D02*
X200534649Y-78993152D01*
X200534649Y-78993152D02*
X200677506Y-78993152D01*
X200677506Y-78993152D02*
X200772744Y-79040771D01*
X200772744Y-79040771D02*
X200820363Y-79088390D01*
X199772744Y-79659819D02*
X199867982Y-79612200D01*
X199867982Y-79612200D02*
X199915601Y-79564580D01*
X199915601Y-79564580D02*
X199963220Y-79469342D01*
X199963220Y-79469342D02*
X199963220Y-79183628D01*
X199963220Y-79183628D02*
X199915601Y-79088390D01*
X199915601Y-79088390D02*
X199867982Y-79040771D01*
X199867982Y-79040771D02*
X199772744Y-78993152D01*
X199772744Y-78993152D02*
X199629887Y-78993152D01*
X199629887Y-78993152D02*
X199534649Y-79040771D01*
X199534649Y-79040771D02*
X199487030Y-79088390D01*
X199487030Y-79088390D02*
X199439411Y-79183628D01*
X199439411Y-79183628D02*
X199439411Y-79469342D01*
X199439411Y-79469342D02*
X199487030Y-79564580D01*
X199487030Y-79564580D02*
X199534649Y-79612200D01*
X199534649Y-79612200D02*
X199629887Y-79659819D01*
X199629887Y-79659819D02*
X199772744Y-79659819D01*
X197820363Y-79659819D02*
X197820363Y-78659819D01*
X197820363Y-79612200D02*
X197915601Y-79659819D01*
X197915601Y-79659819D02*
X198106077Y-79659819D01*
X198106077Y-79659819D02*
X198201315Y-79612200D01*
X198201315Y-79612200D02*
X198248934Y-79564580D01*
X198248934Y-79564580D02*
X198296553Y-79469342D01*
X198296553Y-79469342D02*
X198296553Y-79183628D01*
X198296553Y-79183628D02*
X198248934Y-79088390D01*
X198248934Y-79088390D02*
X198201315Y-79040771D01*
X198201315Y-79040771D02*
X198106077Y-78993152D01*
X198106077Y-78993152D02*
X197915601Y-78993152D01*
X197915601Y-78993152D02*
X197820363Y-79040771D01*
X197201315Y-79659819D02*
X197296553Y-79612200D01*
X197296553Y-79612200D02*
X197344172Y-79564580D01*
X197344172Y-79564580D02*
X197391791Y-79469342D01*
X197391791Y-79469342D02*
X197391791Y-79183628D01*
X197391791Y-79183628D02*
X197344172Y-79088390D01*
X197344172Y-79088390D02*
X197296553Y-79040771D01*
X197296553Y-79040771D02*
X197201315Y-78993152D01*
X197201315Y-78993152D02*
X197058458Y-78993152D01*
X197058458Y-78993152D02*
X196963220Y-79040771D01*
X196963220Y-79040771D02*
X196915601Y-79088390D01*
X196915601Y-79088390D02*
X196867982Y-79183628D01*
X196867982Y-79183628D02*
X196867982Y-79469342D01*
X196867982Y-79469342D02*
X196915601Y-79564580D01*
X196915601Y-79564580D02*
X196963220Y-79612200D01*
X196963220Y-79612200D02*
X197058458Y-79659819D01*
X197058458Y-79659819D02*
X197201315Y-79659819D01*
X196058458Y-79612200D02*
X196153696Y-79659819D01*
X196153696Y-79659819D02*
X196344172Y-79659819D01*
X196344172Y-79659819D02*
X196439410Y-79612200D01*
X196439410Y-79612200D02*
X196487029Y-79516961D01*
X196487029Y-79516961D02*
X196487029Y-79136009D01*
X196487029Y-79136009D02*
X196439410Y-79040771D01*
X196439410Y-79040771D02*
X196344172Y-78993152D01*
X196344172Y-78993152D02*
X196153696Y-78993152D01*
X196153696Y-78993152D02*
X196058458Y-79040771D01*
X196058458Y-79040771D02*
X196010839Y-79136009D01*
X196010839Y-79136009D02*
X196010839Y-79231247D01*
X196010839Y-79231247D02*
X196487029Y-79326485D01*
X195629886Y-79612200D02*
X195534648Y-79659819D01*
X195534648Y-79659819D02*
X195344172Y-79659819D01*
X195344172Y-79659819D02*
X195248934Y-79612200D01*
X195248934Y-79612200D02*
X195201315Y-79516961D01*
X195201315Y-79516961D02*
X195201315Y-79469342D01*
X195201315Y-79469342D02*
X195248934Y-79374104D01*
X195248934Y-79374104D02*
X195344172Y-79326485D01*
X195344172Y-79326485D02*
X195487029Y-79326485D01*
X195487029Y-79326485D02*
X195582267Y-79278866D01*
X195582267Y-79278866D02*
X195629886Y-79183628D01*
X195629886Y-79183628D02*
X195629886Y-79136009D01*
X195629886Y-79136009D02*
X195582267Y-79040771D01*
X195582267Y-79040771D02*
X195487029Y-78993152D01*
X195487029Y-78993152D02*
X195344172Y-78993152D01*
X195344172Y-78993152D02*
X195248934Y-79040771D01*
X194010838Y-78993152D02*
X194010838Y-79659819D01*
X194010838Y-79088390D02*
X193963219Y-79040771D01*
X193963219Y-79040771D02*
X193867981Y-78993152D01*
X193867981Y-78993152D02*
X193725124Y-78993152D01*
X193725124Y-78993152D02*
X193629886Y-79040771D01*
X193629886Y-79040771D02*
X193582267Y-79136009D01*
X193582267Y-79136009D02*
X193582267Y-79659819D01*
X192963219Y-79659819D02*
X193058457Y-79612200D01*
X193058457Y-79612200D02*
X193106076Y-79564580D01*
X193106076Y-79564580D02*
X193153695Y-79469342D01*
X193153695Y-79469342D02*
X193153695Y-79183628D01*
X193153695Y-79183628D02*
X193106076Y-79088390D01*
X193106076Y-79088390D02*
X193058457Y-79040771D01*
X193058457Y-79040771D02*
X192963219Y-78993152D01*
X192963219Y-78993152D02*
X192820362Y-78993152D01*
X192820362Y-78993152D02*
X192725124Y-79040771D01*
X192725124Y-79040771D02*
X192677505Y-79088390D01*
X192677505Y-79088390D02*
X192629886Y-79183628D01*
X192629886Y-79183628D02*
X192629886Y-79469342D01*
X192629886Y-79469342D02*
X192677505Y-79564580D01*
X192677505Y-79564580D02*
X192725124Y-79612200D01*
X192725124Y-79612200D02*
X192820362Y-79659819D01*
X192820362Y-79659819D02*
X192963219Y-79659819D01*
X192344171Y-78993152D02*
X191963219Y-78993152D01*
X192201314Y-78659819D02*
X192201314Y-79516961D01*
X192201314Y-79516961D02*
X192153695Y-79612200D01*
X192153695Y-79612200D02*
X192058457Y-79659819D01*
X192058457Y-79659819D02*
X191963219Y-79659819D01*
X190867980Y-79659819D02*
X190867980Y-78993152D01*
X190867980Y-79088390D02*
X190820361Y-79040771D01*
X190820361Y-79040771D02*
X190725123Y-78993152D01*
X190725123Y-78993152D02*
X190582266Y-78993152D01*
X190582266Y-78993152D02*
X190487028Y-79040771D01*
X190487028Y-79040771D02*
X190439409Y-79136009D01*
X190439409Y-79136009D02*
X190439409Y-79659819D01*
X190439409Y-79136009D02*
X190391790Y-79040771D01*
X190391790Y-79040771D02*
X190296552Y-78993152D01*
X190296552Y-78993152D02*
X190153695Y-78993152D01*
X190153695Y-78993152D02*
X190058456Y-79040771D01*
X190058456Y-79040771D02*
X190010837Y-79136009D01*
X190010837Y-79136009D02*
X190010837Y-79659819D01*
X189106076Y-79659819D02*
X189106076Y-79136009D01*
X189106076Y-79136009D02*
X189153695Y-79040771D01*
X189153695Y-79040771D02*
X189248933Y-78993152D01*
X189248933Y-78993152D02*
X189439409Y-78993152D01*
X189439409Y-78993152D02*
X189534647Y-79040771D01*
X189106076Y-79612200D02*
X189201314Y-79659819D01*
X189201314Y-79659819D02*
X189439409Y-79659819D01*
X189439409Y-79659819D02*
X189534647Y-79612200D01*
X189534647Y-79612200D02*
X189582266Y-79516961D01*
X189582266Y-79516961D02*
X189582266Y-79421723D01*
X189582266Y-79421723D02*
X189534647Y-79326485D01*
X189534647Y-79326485D02*
X189439409Y-79278866D01*
X189439409Y-79278866D02*
X189201314Y-79278866D01*
X189201314Y-79278866D02*
X189106076Y-79231247D01*
X188629885Y-79659819D02*
X188629885Y-78659819D01*
X188534647Y-79278866D02*
X188248933Y-79659819D01*
X188248933Y-78993152D02*
X188629885Y-79374104D01*
X187439409Y-79612200D02*
X187534647Y-79659819D01*
X187534647Y-79659819D02*
X187725123Y-79659819D01*
X187725123Y-79659819D02*
X187820361Y-79612200D01*
X187820361Y-79612200D02*
X187867980Y-79516961D01*
X187867980Y-79516961D02*
X187867980Y-79136009D01*
X187867980Y-79136009D02*
X187820361Y-79040771D01*
X187820361Y-79040771D02*
X187725123Y-78993152D01*
X187725123Y-78993152D02*
X187534647Y-78993152D01*
X187534647Y-78993152D02*
X187439409Y-79040771D01*
X187439409Y-79040771D02*
X187391790Y-79136009D01*
X187391790Y-79136009D02*
X187391790Y-79231247D01*
X187391790Y-79231247D02*
X187867980Y-79326485D01*
X186201313Y-79659819D02*
X186201313Y-78993152D01*
X186201313Y-79088390D02*
X186153694Y-79040771D01*
X186153694Y-79040771D02*
X186058456Y-78993152D01*
X186058456Y-78993152D02*
X185915599Y-78993152D01*
X185915599Y-78993152D02*
X185820361Y-79040771D01*
X185820361Y-79040771D02*
X185772742Y-79136009D01*
X185772742Y-79136009D02*
X185772742Y-79659819D01*
X185772742Y-79136009D02*
X185725123Y-79040771D01*
X185725123Y-79040771D02*
X185629885Y-78993152D01*
X185629885Y-78993152D02*
X185487028Y-78993152D01*
X185487028Y-78993152D02*
X185391789Y-79040771D01*
X185391789Y-79040771D02*
X185344170Y-79136009D01*
X185344170Y-79136009D02*
X185344170Y-79659819D01*
X184867980Y-79659819D02*
X184867980Y-78993152D01*
X184867980Y-78659819D02*
X184915599Y-78707438D01*
X184915599Y-78707438D02*
X184867980Y-78755057D01*
X184867980Y-78755057D02*
X184820361Y-78707438D01*
X184820361Y-78707438D02*
X184867980Y-78659819D01*
X184867980Y-78659819D02*
X184867980Y-78755057D01*
X184439409Y-79612200D02*
X184344171Y-79659819D01*
X184344171Y-79659819D02*
X184153695Y-79659819D01*
X184153695Y-79659819D02*
X184058457Y-79612200D01*
X184058457Y-79612200D02*
X184010838Y-79516961D01*
X184010838Y-79516961D02*
X184010838Y-79469342D01*
X184010838Y-79469342D02*
X184058457Y-79374104D01*
X184058457Y-79374104D02*
X184153695Y-79326485D01*
X184153695Y-79326485D02*
X184296552Y-79326485D01*
X184296552Y-79326485D02*
X184391790Y-79278866D01*
X184391790Y-79278866D02*
X184439409Y-79183628D01*
X184439409Y-79183628D02*
X184439409Y-79136009D01*
X184439409Y-79136009D02*
X184391790Y-79040771D01*
X184391790Y-79040771D02*
X184296552Y-78993152D01*
X184296552Y-78993152D02*
X184153695Y-78993152D01*
X184153695Y-78993152D02*
X184058457Y-79040771D01*
X183725123Y-78993152D02*
X183344171Y-78993152D01*
X183582266Y-78659819D02*
X183582266Y-79516961D01*
X183582266Y-79516961D02*
X183534647Y-79612200D01*
X183534647Y-79612200D02*
X183439409Y-79659819D01*
X183439409Y-79659819D02*
X183344171Y-79659819D01*
X182582266Y-79659819D02*
X182582266Y-79136009D01*
X182582266Y-79136009D02*
X182629885Y-79040771D01*
X182629885Y-79040771D02*
X182725123Y-78993152D01*
X182725123Y-78993152D02*
X182915599Y-78993152D01*
X182915599Y-78993152D02*
X183010837Y-79040771D01*
X182582266Y-79612200D02*
X182677504Y-79659819D01*
X182677504Y-79659819D02*
X182915599Y-79659819D01*
X182915599Y-79659819D02*
X183010837Y-79612200D01*
X183010837Y-79612200D02*
X183058456Y-79516961D01*
X183058456Y-79516961D02*
X183058456Y-79421723D01*
X183058456Y-79421723D02*
X183010837Y-79326485D01*
X183010837Y-79326485D02*
X182915599Y-79278866D01*
X182915599Y-79278866D02*
X182677504Y-79278866D01*
X182677504Y-79278866D02*
X182582266Y-79231247D01*
X182106075Y-79659819D02*
X182106075Y-78659819D01*
X182010837Y-79278866D02*
X181725123Y-79659819D01*
X181725123Y-78993152D02*
X182106075Y-79374104D01*
X180915599Y-79612200D02*
X181010837Y-79659819D01*
X181010837Y-79659819D02*
X181201313Y-79659819D01*
X181201313Y-79659819D02*
X181296551Y-79612200D01*
X181296551Y-79612200D02*
X181344170Y-79516961D01*
X181344170Y-79516961D02*
X181344170Y-79136009D01*
X181344170Y-79136009D02*
X181296551Y-79040771D01*
X181296551Y-79040771D02*
X181201313Y-78993152D01*
X181201313Y-78993152D02*
X181010837Y-78993152D01*
X181010837Y-78993152D02*
X180915599Y-79040771D01*
X180915599Y-79040771D02*
X180867980Y-79136009D01*
X180867980Y-79136009D02*
X180867980Y-79231247D01*
X180867980Y-79231247D02*
X181344170Y-79326485D01*
X180487027Y-79612200D02*
X180391789Y-79659819D01*
X180391789Y-79659819D02*
X180201313Y-79659819D01*
X180201313Y-79659819D02*
X180106075Y-79612200D01*
X180106075Y-79612200D02*
X180058456Y-79516961D01*
X180058456Y-79516961D02*
X180058456Y-79469342D01*
X180058456Y-79469342D02*
X180106075Y-79374104D01*
X180106075Y-79374104D02*
X180201313Y-79326485D01*
X180201313Y-79326485D02*
X180344170Y-79326485D01*
X180344170Y-79326485D02*
X180439408Y-79278866D01*
X180439408Y-79278866D02*
X180487027Y-79183628D01*
X180487027Y-79183628D02*
X180487027Y-79136009D01*
X180487027Y-79136009D02*
X180439408Y-79040771D01*
X180439408Y-79040771D02*
X180344170Y-78993152D01*
X180344170Y-78993152D02*
X180201313Y-78993152D01*
X180201313Y-78993152D02*
X180106075Y-79040771D01*
X179582265Y-79612200D02*
X179582265Y-79659819D01*
X179582265Y-79659819D02*
X179629884Y-79755057D01*
X179629884Y-79755057D02*
X179677503Y-79802676D01*
X201534649Y-81269819D02*
X201534649Y-80269819D01*
X201534649Y-81222200D02*
X201629887Y-81269819D01*
X201629887Y-81269819D02*
X201820363Y-81269819D01*
X201820363Y-81269819D02*
X201915601Y-81222200D01*
X201915601Y-81222200D02*
X201963220Y-81174580D01*
X201963220Y-81174580D02*
X202010839Y-81079342D01*
X202010839Y-81079342D02*
X202010839Y-80793628D01*
X202010839Y-80793628D02*
X201963220Y-80698390D01*
X201963220Y-80698390D02*
X201915601Y-80650771D01*
X201915601Y-80650771D02*
X201820363Y-80603152D01*
X201820363Y-80603152D02*
X201629887Y-80603152D01*
X201629887Y-80603152D02*
X201534649Y-80650771D01*
X200915601Y-81269819D02*
X201010839Y-81222200D01*
X201010839Y-81222200D02*
X201058458Y-81174580D01*
X201058458Y-81174580D02*
X201106077Y-81079342D01*
X201106077Y-81079342D02*
X201106077Y-80793628D01*
X201106077Y-80793628D02*
X201058458Y-80698390D01*
X201058458Y-80698390D02*
X201010839Y-80650771D01*
X201010839Y-80650771D02*
X200915601Y-80603152D01*
X200915601Y-80603152D02*
X200772744Y-80603152D01*
X200772744Y-80603152D02*
X200677506Y-80650771D01*
X200677506Y-80650771D02*
X200629887Y-80698390D01*
X200629887Y-80698390D02*
X200582268Y-80793628D01*
X200582268Y-80793628D02*
X200582268Y-81079342D01*
X200582268Y-81079342D02*
X200629887Y-81174580D01*
X200629887Y-81174580D02*
X200677506Y-81222200D01*
X200677506Y-81222200D02*
X200772744Y-81269819D01*
X200772744Y-81269819D02*
X200915601Y-81269819D01*
X199772744Y-81222200D02*
X199867982Y-81269819D01*
X199867982Y-81269819D02*
X200058458Y-81269819D01*
X200058458Y-81269819D02*
X200153696Y-81222200D01*
X200153696Y-81222200D02*
X200201315Y-81126961D01*
X200201315Y-81126961D02*
X200201315Y-80746009D01*
X200201315Y-80746009D02*
X200153696Y-80650771D01*
X200153696Y-80650771D02*
X200058458Y-80603152D01*
X200058458Y-80603152D02*
X199867982Y-80603152D01*
X199867982Y-80603152D02*
X199772744Y-80650771D01*
X199772744Y-80650771D02*
X199725125Y-80746009D01*
X199725125Y-80746009D02*
X199725125Y-80841247D01*
X199725125Y-80841247D02*
X200201315Y-80936485D01*
X199344172Y-81222200D02*
X199248934Y-81269819D01*
X199248934Y-81269819D02*
X199058458Y-81269819D01*
X199058458Y-81269819D02*
X198963220Y-81222200D01*
X198963220Y-81222200D02*
X198915601Y-81126961D01*
X198915601Y-81126961D02*
X198915601Y-81079342D01*
X198915601Y-81079342D02*
X198963220Y-80984104D01*
X198963220Y-80984104D02*
X199058458Y-80936485D01*
X199058458Y-80936485D02*
X199201315Y-80936485D01*
X199201315Y-80936485D02*
X199296553Y-80888866D01*
X199296553Y-80888866D02*
X199344172Y-80793628D01*
X199344172Y-80793628D02*
X199344172Y-80746009D01*
X199344172Y-80746009D02*
X199296553Y-80650771D01*
X199296553Y-80650771D02*
X199201315Y-80603152D01*
X199201315Y-80603152D02*
X199058458Y-80603152D01*
X199058458Y-80603152D02*
X198963220Y-80650771D01*
X197725124Y-80603152D02*
X197725124Y-81269819D01*
X197725124Y-80698390D02*
X197677505Y-80650771D01*
X197677505Y-80650771D02*
X197582267Y-80603152D01*
X197582267Y-80603152D02*
X197439410Y-80603152D01*
X197439410Y-80603152D02*
X197344172Y-80650771D01*
X197344172Y-80650771D02*
X197296553Y-80746009D01*
X197296553Y-80746009D02*
X197296553Y-81269819D01*
X196677505Y-81269819D02*
X196772743Y-81222200D01*
X196772743Y-81222200D02*
X196820362Y-81174580D01*
X196820362Y-81174580D02*
X196867981Y-81079342D01*
X196867981Y-81079342D02*
X196867981Y-80793628D01*
X196867981Y-80793628D02*
X196820362Y-80698390D01*
X196820362Y-80698390D02*
X196772743Y-80650771D01*
X196772743Y-80650771D02*
X196677505Y-80603152D01*
X196677505Y-80603152D02*
X196534648Y-80603152D01*
X196534648Y-80603152D02*
X196439410Y-80650771D01*
X196439410Y-80650771D02*
X196391791Y-80698390D01*
X196391791Y-80698390D02*
X196344172Y-80793628D01*
X196344172Y-80793628D02*
X196344172Y-81079342D01*
X196344172Y-81079342D02*
X196391791Y-81174580D01*
X196391791Y-81174580D02*
X196439410Y-81222200D01*
X196439410Y-81222200D02*
X196534648Y-81269819D01*
X196534648Y-81269819D02*
X196677505Y-81269819D01*
X196058457Y-80603152D02*
X195677505Y-80603152D01*
X195915600Y-80269819D02*
X195915600Y-81126961D01*
X195915600Y-81126961D02*
X195867981Y-81222200D01*
X195867981Y-81222200D02*
X195772743Y-81269819D01*
X195772743Y-81269819D02*
X195677505Y-81269819D01*
X194153695Y-80603152D02*
X194153695Y-81412676D01*
X194153695Y-81412676D02*
X194201314Y-81507914D01*
X194201314Y-81507914D02*
X194248933Y-81555533D01*
X194248933Y-81555533D02*
X194344171Y-81603152D01*
X194344171Y-81603152D02*
X194487028Y-81603152D01*
X194487028Y-81603152D02*
X194582266Y-81555533D01*
X194153695Y-81222200D02*
X194248933Y-81269819D01*
X194248933Y-81269819D02*
X194439409Y-81269819D01*
X194439409Y-81269819D02*
X194534647Y-81222200D01*
X194534647Y-81222200D02*
X194582266Y-81174580D01*
X194582266Y-81174580D02*
X194629885Y-81079342D01*
X194629885Y-81079342D02*
X194629885Y-80793628D01*
X194629885Y-80793628D02*
X194582266Y-80698390D01*
X194582266Y-80698390D02*
X194534647Y-80650771D01*
X194534647Y-80650771D02*
X194439409Y-80603152D01*
X194439409Y-80603152D02*
X194248933Y-80603152D01*
X194248933Y-80603152D02*
X194153695Y-80650771D01*
X193534647Y-81269819D02*
X193629885Y-81222200D01*
X193629885Y-81222200D02*
X193677504Y-81174580D01*
X193677504Y-81174580D02*
X193725123Y-81079342D01*
X193725123Y-81079342D02*
X193725123Y-80793628D01*
X193725123Y-80793628D02*
X193677504Y-80698390D01*
X193677504Y-80698390D02*
X193629885Y-80650771D01*
X193629885Y-80650771D02*
X193534647Y-80603152D01*
X193534647Y-80603152D02*
X193391790Y-80603152D01*
X193391790Y-80603152D02*
X193296552Y-80650771D01*
X193296552Y-80650771D02*
X193248933Y-80698390D01*
X193248933Y-80698390D02*
X193201314Y-80793628D01*
X193201314Y-80793628D02*
X193201314Y-81079342D01*
X193201314Y-81079342D02*
X193248933Y-81174580D01*
X193248933Y-81174580D02*
X193296552Y-81222200D01*
X193296552Y-81222200D02*
X193391790Y-81269819D01*
X193391790Y-81269819D02*
X193534647Y-81269819D01*
X192391790Y-81222200D02*
X192487028Y-81269819D01*
X192487028Y-81269819D02*
X192677504Y-81269819D01*
X192677504Y-81269819D02*
X192772742Y-81222200D01*
X192772742Y-81222200D02*
X192820361Y-81126961D01*
X192820361Y-81126961D02*
X192820361Y-80746009D01*
X192820361Y-80746009D02*
X192772742Y-80650771D01*
X192772742Y-80650771D02*
X192677504Y-80603152D01*
X192677504Y-80603152D02*
X192487028Y-80603152D01*
X192487028Y-80603152D02*
X192391790Y-80650771D01*
X192391790Y-80650771D02*
X192344171Y-80746009D01*
X192344171Y-80746009D02*
X192344171Y-80841247D01*
X192344171Y-80841247D02*
X192820361Y-80936485D01*
X191963218Y-81222200D02*
X191867980Y-81269819D01*
X191867980Y-81269819D02*
X191677504Y-81269819D01*
X191677504Y-81269819D02*
X191582266Y-81222200D01*
X191582266Y-81222200D02*
X191534647Y-81126961D01*
X191534647Y-81126961D02*
X191534647Y-81079342D01*
X191534647Y-81079342D02*
X191582266Y-80984104D01*
X191582266Y-80984104D02*
X191677504Y-80936485D01*
X191677504Y-80936485D02*
X191820361Y-80936485D01*
X191820361Y-80936485D02*
X191915599Y-80888866D01*
X191915599Y-80888866D02*
X191963218Y-80793628D01*
X191963218Y-80793628D02*
X191963218Y-80746009D01*
X191963218Y-80746009D02*
X191915599Y-80650771D01*
X191915599Y-80650771D02*
X191820361Y-80603152D01*
X191820361Y-80603152D02*
X191677504Y-80603152D01*
X191677504Y-80603152D02*
X191582266Y-80650771D01*
X190487027Y-80603152D02*
X190106075Y-80603152D01*
X190344170Y-81269819D02*
X190344170Y-80412676D01*
X190344170Y-80412676D02*
X190296551Y-80317438D01*
X190296551Y-80317438D02*
X190201313Y-80269819D01*
X190201313Y-80269819D02*
X190106075Y-80269819D01*
X189629884Y-81269819D02*
X189725122Y-81222200D01*
X189725122Y-81222200D02*
X189772741Y-81174580D01*
X189772741Y-81174580D02*
X189820360Y-81079342D01*
X189820360Y-81079342D02*
X189820360Y-80793628D01*
X189820360Y-80793628D02*
X189772741Y-80698390D01*
X189772741Y-80698390D02*
X189725122Y-80650771D01*
X189725122Y-80650771D02*
X189629884Y-80603152D01*
X189629884Y-80603152D02*
X189487027Y-80603152D01*
X189487027Y-80603152D02*
X189391789Y-80650771D01*
X189391789Y-80650771D02*
X189344170Y-80698390D01*
X189344170Y-80698390D02*
X189296551Y-80793628D01*
X189296551Y-80793628D02*
X189296551Y-81079342D01*
X189296551Y-81079342D02*
X189344170Y-81174580D01*
X189344170Y-81174580D02*
X189391789Y-81222200D01*
X189391789Y-81222200D02*
X189487027Y-81269819D01*
X189487027Y-81269819D02*
X189629884Y-81269819D01*
X188867979Y-81269819D02*
X188867979Y-80603152D01*
X188867979Y-80793628D02*
X188820360Y-80698390D01*
X188820360Y-80698390D02*
X188772741Y-80650771D01*
X188772741Y-80650771D02*
X188677503Y-80603152D01*
X188677503Y-80603152D02*
X188582265Y-80603152D01*
X188344169Y-80603152D02*
X188153693Y-81269819D01*
X188153693Y-81269819D02*
X187963217Y-80793628D01*
X187963217Y-80793628D02*
X187772741Y-81269819D01*
X187772741Y-81269819D02*
X187582265Y-80603152D01*
X186772741Y-81269819D02*
X186772741Y-80746009D01*
X186772741Y-80746009D02*
X186820360Y-80650771D01*
X186820360Y-80650771D02*
X186915598Y-80603152D01*
X186915598Y-80603152D02*
X187106074Y-80603152D01*
X187106074Y-80603152D02*
X187201312Y-80650771D01*
X186772741Y-81222200D02*
X186867979Y-81269819D01*
X186867979Y-81269819D02*
X187106074Y-81269819D01*
X187106074Y-81269819D02*
X187201312Y-81222200D01*
X187201312Y-81222200D02*
X187248931Y-81126961D01*
X187248931Y-81126961D02*
X187248931Y-81031723D01*
X187248931Y-81031723D02*
X187201312Y-80936485D01*
X187201312Y-80936485D02*
X187106074Y-80888866D01*
X187106074Y-80888866D02*
X186867979Y-80888866D01*
X186867979Y-80888866D02*
X186772741Y-80841247D01*
X186296550Y-81269819D02*
X186296550Y-80603152D01*
X186296550Y-80793628D02*
X186248931Y-80698390D01*
X186248931Y-80698390D02*
X186201312Y-80650771D01*
X186201312Y-80650771D02*
X186106074Y-80603152D01*
X186106074Y-80603152D02*
X186010836Y-80603152D01*
X185248931Y-81269819D02*
X185248931Y-80269819D01*
X185248931Y-81222200D02*
X185344169Y-81269819D01*
X185344169Y-81269819D02*
X185534645Y-81269819D01*
X185534645Y-81269819D02*
X185629883Y-81222200D01*
X185629883Y-81222200D02*
X185677502Y-81174580D01*
X185677502Y-81174580D02*
X185725121Y-81079342D01*
X185725121Y-81079342D02*
X185725121Y-80793628D01*
X185725121Y-80793628D02*
X185677502Y-80698390D01*
X185677502Y-80698390D02*
X185629883Y-80650771D01*
X185629883Y-80650771D02*
X185534645Y-80603152D01*
X185534645Y-80603152D02*
X185344169Y-80603152D01*
X185344169Y-80603152D02*
X185248931Y-80650771D01*
X186663220Y-93769819D02*
X186663220Y-92769819D01*
X186663220Y-92769819D02*
X186282268Y-92769819D01*
X186282268Y-92769819D02*
X186187030Y-92817438D01*
X186187030Y-92817438D02*
X186139411Y-92865057D01*
X186139411Y-92865057D02*
X186091792Y-92960295D01*
X186091792Y-92960295D02*
X186091792Y-93103152D01*
X186091792Y-93103152D02*
X186139411Y-93198390D01*
X186139411Y-93198390D02*
X186187030Y-93246009D01*
X186187030Y-93246009D02*
X186282268Y-93293628D01*
X186282268Y-93293628D02*
X186663220Y-93293628D01*
X185663220Y-93769819D02*
X185663220Y-93103152D01*
X185663220Y-93293628D02*
X185615601Y-93198390D01*
X185615601Y-93198390D02*
X185567982Y-93150771D01*
X185567982Y-93150771D02*
X185472744Y-93103152D01*
X185472744Y-93103152D02*
X185377506Y-93103152D01*
X184901315Y-93769819D02*
X184996553Y-93722200D01*
X184996553Y-93722200D02*
X185044172Y-93674580D01*
X185044172Y-93674580D02*
X185091791Y-93579342D01*
X185091791Y-93579342D02*
X185091791Y-93293628D01*
X185091791Y-93293628D02*
X185044172Y-93198390D01*
X185044172Y-93198390D02*
X184996553Y-93150771D01*
X184996553Y-93150771D02*
X184901315Y-93103152D01*
X184901315Y-93103152D02*
X184758458Y-93103152D01*
X184758458Y-93103152D02*
X184663220Y-93150771D01*
X184663220Y-93150771D02*
X184615601Y-93198390D01*
X184615601Y-93198390D02*
X184567982Y-93293628D01*
X184567982Y-93293628D02*
X184567982Y-93579342D01*
X184567982Y-93579342D02*
X184615601Y-93674580D01*
X184615601Y-93674580D02*
X184663220Y-93722200D01*
X184663220Y-93722200D02*
X184758458Y-93769819D01*
X184758458Y-93769819D02*
X184901315Y-93769819D01*
X183710839Y-93769819D02*
X183710839Y-92769819D01*
X183710839Y-93722200D02*
X183806077Y-93769819D01*
X183806077Y-93769819D02*
X183996553Y-93769819D01*
X183996553Y-93769819D02*
X184091791Y-93722200D01*
X184091791Y-93722200D02*
X184139410Y-93674580D01*
X184139410Y-93674580D02*
X184187029Y-93579342D01*
X184187029Y-93579342D02*
X184187029Y-93293628D01*
X184187029Y-93293628D02*
X184139410Y-93198390D01*
X184139410Y-93198390D02*
X184091791Y-93150771D01*
X184091791Y-93150771D02*
X183996553Y-93103152D01*
X183996553Y-93103152D02*
X183806077Y-93103152D01*
X183806077Y-93103152D02*
X183710839Y-93150771D01*
X182806077Y-93103152D02*
X182806077Y-93769819D01*
X183234648Y-93103152D02*
X183234648Y-93626961D01*
X183234648Y-93626961D02*
X183187029Y-93722200D01*
X183187029Y-93722200D02*
X183091791Y-93769819D01*
X183091791Y-93769819D02*
X182948934Y-93769819D01*
X182948934Y-93769819D02*
X182853696Y-93722200D01*
X182853696Y-93722200D02*
X182806077Y-93674580D01*
X181901315Y-93722200D02*
X181996553Y-93769819D01*
X181996553Y-93769819D02*
X182187029Y-93769819D01*
X182187029Y-93769819D02*
X182282267Y-93722200D01*
X182282267Y-93722200D02*
X182329886Y-93674580D01*
X182329886Y-93674580D02*
X182377505Y-93579342D01*
X182377505Y-93579342D02*
X182377505Y-93293628D01*
X182377505Y-93293628D02*
X182329886Y-93198390D01*
X182329886Y-93198390D02*
X182282267Y-93150771D01*
X182282267Y-93150771D02*
X182187029Y-93103152D01*
X182187029Y-93103152D02*
X181996553Y-93103152D01*
X181996553Y-93103152D02*
X181901315Y-93150771D01*
X181091791Y-93722200D02*
X181187029Y-93769819D01*
X181187029Y-93769819D02*
X181377505Y-93769819D01*
X181377505Y-93769819D02*
X181472743Y-93722200D01*
X181472743Y-93722200D02*
X181520362Y-93626961D01*
X181520362Y-93626961D02*
X181520362Y-93246009D01*
X181520362Y-93246009D02*
X181472743Y-93150771D01*
X181472743Y-93150771D02*
X181377505Y-93103152D01*
X181377505Y-93103152D02*
X181187029Y-93103152D01*
X181187029Y-93103152D02*
X181091791Y-93150771D01*
X181091791Y-93150771D02*
X181044172Y-93246009D01*
X181044172Y-93246009D02*
X181044172Y-93341247D01*
X181044172Y-93341247D02*
X181520362Y-93436485D01*
X180187029Y-93769819D02*
X180187029Y-92769819D01*
X180187029Y-93722200D02*
X180282267Y-93769819D01*
X180282267Y-93769819D02*
X180472743Y-93769819D01*
X180472743Y-93769819D02*
X180567981Y-93722200D01*
X180567981Y-93722200D02*
X180615600Y-93674580D01*
X180615600Y-93674580D02*
X180663219Y-93579342D01*
X180663219Y-93579342D02*
X180663219Y-93293628D01*
X180663219Y-93293628D02*
X180615600Y-93198390D01*
X180615600Y-93198390D02*
X180567981Y-93150771D01*
X180567981Y-93150771D02*
X180472743Y-93103152D01*
X180472743Y-93103152D02*
X180282267Y-93103152D01*
X180282267Y-93103152D02*
X180187029Y-93150771D01*
X178948933Y-93769819D02*
X178948933Y-92769819D01*
X178948933Y-93150771D02*
X178853695Y-93103152D01*
X178853695Y-93103152D02*
X178663219Y-93103152D01*
X178663219Y-93103152D02*
X178567981Y-93150771D01*
X178567981Y-93150771D02*
X178520362Y-93198390D01*
X178520362Y-93198390D02*
X178472743Y-93293628D01*
X178472743Y-93293628D02*
X178472743Y-93579342D01*
X178472743Y-93579342D02*
X178520362Y-93674580D01*
X178520362Y-93674580D02*
X178567981Y-93722200D01*
X178567981Y-93722200D02*
X178663219Y-93769819D01*
X178663219Y-93769819D02*
X178853695Y-93769819D01*
X178853695Y-93769819D02*
X178948933Y-93722200D01*
X178139409Y-93103152D02*
X177901314Y-93769819D01*
X177663219Y-93103152D02*
X177901314Y-93769819D01*
X177901314Y-93769819D02*
X177996552Y-94007914D01*
X177996552Y-94007914D02*
X178044171Y-94055533D01*
X178044171Y-94055533D02*
X178139409Y-94103152D01*
X175948933Y-93674580D02*
X175996552Y-93722200D01*
X175996552Y-93722200D02*
X176139409Y-93769819D01*
X176139409Y-93769819D02*
X176234647Y-93769819D01*
X176234647Y-93769819D02*
X176377504Y-93722200D01*
X176377504Y-93722200D02*
X176472742Y-93626961D01*
X176472742Y-93626961D02*
X176520361Y-93531723D01*
X176520361Y-93531723D02*
X176567980Y-93341247D01*
X176567980Y-93341247D02*
X176567980Y-93198390D01*
X176567980Y-93198390D02*
X176520361Y-93007914D01*
X176520361Y-93007914D02*
X176472742Y-92912676D01*
X176472742Y-92912676D02*
X176377504Y-92817438D01*
X176377504Y-92817438D02*
X176234647Y-92769819D01*
X176234647Y-92769819D02*
X176139409Y-92769819D01*
X176139409Y-92769819D02*
X175996552Y-92817438D01*
X175996552Y-92817438D02*
X175948933Y-92865057D01*
X175139409Y-93722200D02*
X175234647Y-93769819D01*
X175234647Y-93769819D02*
X175425123Y-93769819D01*
X175425123Y-93769819D02*
X175520361Y-93722200D01*
X175520361Y-93722200D02*
X175567980Y-93626961D01*
X175567980Y-93626961D02*
X175567980Y-93246009D01*
X175567980Y-93246009D02*
X175520361Y-93150771D01*
X175520361Y-93150771D02*
X175425123Y-93103152D01*
X175425123Y-93103152D02*
X175234647Y-93103152D01*
X175234647Y-93103152D02*
X175139409Y-93150771D01*
X175139409Y-93150771D02*
X175091790Y-93246009D01*
X175091790Y-93246009D02*
X175091790Y-93341247D01*
X175091790Y-93341247D02*
X175567980Y-93436485D01*
X174710837Y-93722200D02*
X174567980Y-93769819D01*
X174567980Y-93769819D02*
X174329885Y-93769819D01*
X174329885Y-93769819D02*
X174234647Y-93722200D01*
X174234647Y-93722200D02*
X174187028Y-93674580D01*
X174187028Y-93674580D02*
X174139409Y-93579342D01*
X174139409Y-93579342D02*
X174139409Y-93484104D01*
X174139409Y-93484104D02*
X174187028Y-93388866D01*
X174187028Y-93388866D02*
X174234647Y-93341247D01*
X174234647Y-93341247D02*
X174329885Y-93293628D01*
X174329885Y-93293628D02*
X174520361Y-93246009D01*
X174520361Y-93246009D02*
X174615599Y-93198390D01*
X174615599Y-93198390D02*
X174663218Y-93150771D01*
X174663218Y-93150771D02*
X174710837Y-93055533D01*
X174710837Y-93055533D02*
X174710837Y-92960295D01*
X174710837Y-92960295D02*
X174663218Y-92865057D01*
X174663218Y-92865057D02*
X174615599Y-92817438D01*
X174615599Y-92817438D02*
X174520361Y-92769819D01*
X174520361Y-92769819D02*
X174282266Y-92769819D01*
X174282266Y-92769819D02*
X174139409Y-92817438D01*
X173710837Y-93769819D02*
X173710837Y-93103152D01*
X173710837Y-92769819D02*
X173758456Y-92817438D01*
X173758456Y-92817438D02*
X173710837Y-92865057D01*
X173710837Y-92865057D02*
X173663218Y-92817438D01*
X173663218Y-92817438D02*
X173710837Y-92769819D01*
X173710837Y-92769819D02*
X173710837Y-92865057D01*
X172806076Y-93103152D02*
X172806076Y-93769819D01*
X173234647Y-93103152D02*
X173234647Y-93626961D01*
X173234647Y-93626961D02*
X173187028Y-93722200D01*
X173187028Y-93722200D02*
X173091790Y-93769819D01*
X173091790Y-93769819D02*
X172948933Y-93769819D01*
X172948933Y-93769819D02*
X172853695Y-93722200D01*
X172853695Y-93722200D02*
X172806076Y-93674580D01*
X172329885Y-93769819D02*
X172329885Y-93103152D01*
X172329885Y-93198390D02*
X172282266Y-93150771D01*
X172282266Y-93150771D02*
X172187028Y-93103152D01*
X172187028Y-93103152D02*
X172044171Y-93103152D01*
X172044171Y-93103152D02*
X171948933Y-93150771D01*
X171948933Y-93150771D02*
X171901314Y-93246009D01*
X171901314Y-93246009D02*
X171901314Y-93769819D01*
X171901314Y-93246009D02*
X171853695Y-93150771D01*
X171853695Y-93150771D02*
X171758457Y-93103152D01*
X171758457Y-93103152D02*
X171615600Y-93103152D01*
X171615600Y-93103152D02*
X171520361Y-93150771D01*
X171520361Y-93150771D02*
X171472742Y-93246009D01*
X171472742Y-93246009D02*
X171472742Y-93769819D01*
X170996552Y-92769819D02*
X170996552Y-93579342D01*
X170996552Y-93579342D02*
X170948933Y-93674580D01*
X170948933Y-93674580D02*
X170901314Y-93722200D01*
X170901314Y-93722200D02*
X170806076Y-93769819D01*
X170806076Y-93769819D02*
X170615600Y-93769819D01*
X170615600Y-93769819D02*
X170520362Y-93722200D01*
X170520362Y-93722200D02*
X170472743Y-93674580D01*
X170472743Y-93674580D02*
X170425124Y-93579342D01*
X170425124Y-93579342D02*
X170425124Y-92769819D01*
X169996552Y-93484104D02*
X169520362Y-93484104D01*
X170091790Y-93769819D02*
X169758457Y-92769819D01*
X169758457Y-92769819D02*
X169425124Y-93769819D01*
M02*
