%TF.GenerationSoftware,KiCad,Pcbnew,7.0.6*%
%TF.CreationDate,2023-07-29T21:44:08+03:00*%
%TF.ProjectId,cat-toy-stm-c0,6361742d-746f-4792-9d73-746d2d63302e,rev?*%
%TF.SameCoordinates,Original*%
%TF.FileFunction,Soldermask,Top*%
%TF.FilePolarity,Negative*%
%FSLAX46Y46*%
G04 Gerber Fmt 4.6, Leading zero omitted, Abs format (unit mm)*
G04 Created by KiCad (PCBNEW 7.0.6) date 2023-07-29 21:44:08*
%MOMM*%
%LPD*%
G01*
G04 APERTURE LIST*
G04 Aperture macros list*
%AMRoundRect*
0 Rectangle with rounded corners*
0 $1 Rounding radius*
0 $2 $3 $4 $5 $6 $7 $8 $9 X,Y pos of 4 corners*
0 Add a 4 corners polygon primitive as box body*
4,1,4,$2,$3,$4,$5,$6,$7,$8,$9,$2,$3,0*
0 Add four circle primitives for the rounded corners*
1,1,$1+$1,$2,$3*
1,1,$1+$1,$4,$5*
1,1,$1+$1,$6,$7*
1,1,$1+$1,$8,$9*
0 Add four rect primitives between the rounded corners*
20,1,$1+$1,$2,$3,$4,$5,0*
20,1,$1+$1,$4,$5,$6,$7,0*
20,1,$1+$1,$6,$7,$8,$9,0*
20,1,$1+$1,$8,$9,$2,$3,0*%
G04 Aperture macros list end*
%ADD10C,2.100000*%
%ADD11R,1.200000X1.400000*%
%ADD12RoundRect,0.135000X0.185000X-0.135000X0.185000X0.135000X-0.185000X0.135000X-0.185000X-0.135000X0*%
%ADD13RoundRect,0.140000X-0.140000X-0.170000X0.140000X-0.170000X0.140000X0.170000X-0.140000X0.170000X0*%
%ADD14R,1.700000X1.700000*%
%ADD15O,1.700000X1.700000*%
%ADD16RoundRect,0.135000X0.135000X0.185000X-0.135000X0.185000X-0.135000X-0.185000X0.135000X-0.185000X0*%
%ADD17RoundRect,0.140000X0.170000X-0.140000X0.170000X0.140000X-0.170000X0.140000X-0.170000X-0.140000X0*%
%ADD18RoundRect,0.218750X0.256250X-0.218750X0.256250X0.218750X-0.256250X0.218750X-0.256250X-0.218750X0*%
%ADD19RoundRect,0.225000X-0.225000X-0.250000X0.225000X-0.250000X0.225000X0.250000X-0.225000X0.250000X0*%
%ADD20R,1.500000X2.000000*%
%ADD21R,3.800000X2.000000*%
%ADD22RoundRect,0.200000X-0.800000X0.200000X-0.800000X-0.200000X0.800000X-0.200000X0.800000X0.200000X0*%
%ADD23RoundRect,0.140000X0.140000X0.170000X-0.140000X0.170000X-0.140000X-0.170000X0.140000X-0.170000X0*%
%ADD24RoundRect,0.135000X-0.135000X-0.185000X0.135000X-0.185000X0.135000X0.185000X-0.135000X0.185000X0*%
%ADD25RoundRect,0.100000X0.100000X-0.637500X0.100000X0.637500X-0.100000X0.637500X-0.100000X-0.637500X0*%
%ADD26O,0.800000X0.800000*%
%ADD27R,1.300000X0.450000*%
%ADD28O,1.800000X1.150000*%
%ADD29O,2.000000X1.450000*%
%ADD30RoundRect,0.250000X0.250000X0.475000X-0.250000X0.475000X-0.250000X-0.475000X0.250000X-0.475000X0*%
%ADD31RoundRect,0.135000X-0.185000X0.135000X-0.185000X-0.135000X0.185000X-0.135000X0.185000X0.135000X0*%
%ADD32RoundRect,0.250000X-0.475000X0.250000X-0.475000X-0.250000X0.475000X-0.250000X0.475000X0.250000X0*%
G04 APERTURE END LIST*
D10*
%TO.C,H2*%
X171250000Y-96400000D03*
%TD*%
%TO.C,H1*%
X191600000Y-104550000D03*
%TD*%
D11*
%TO.C,Y1*%
X175900000Y-84550000D03*
X175900000Y-82350000D03*
X174200000Y-82350000D03*
X174200000Y-84550000D03*
%TD*%
D12*
%TO.C,R4*%
X181400000Y-75720000D03*
X181400000Y-74700000D03*
%TD*%
D13*
%TO.C,C12*%
X182920000Y-75600000D03*
X183880000Y-75600000D03*
%TD*%
D14*
%TO.C,J6*%
X170180000Y-90300000D03*
D15*
X172720000Y-90300000D03*
X175260000Y-90300000D03*
X177800000Y-90300000D03*
%TD*%
D16*
%TO.C,R3*%
X177960000Y-87450000D03*
X176940000Y-87450000D03*
%TD*%
D17*
%TO.C,C11*%
X177300000Y-82760000D03*
X177300000Y-81800000D03*
%TD*%
D18*
%TO.C,D1*%
X176500000Y-97237500D03*
X176500000Y-95662500D03*
%TD*%
D13*
%TO.C,C6*%
X191770000Y-97600000D03*
X192730000Y-97600000D03*
%TD*%
D19*
%TO.C,C8*%
X185120000Y-89800000D03*
X186670000Y-89800000D03*
%TD*%
D20*
%TO.C,U1*%
X182800000Y-99300000D03*
X185100000Y-99300000D03*
D21*
X185100000Y-93000000D03*
D20*
X187400000Y-99300000D03*
%TD*%
D22*
%TO.C,SW1*%
X190020000Y-79700000D03*
X190020000Y-83900000D03*
%TD*%
D23*
%TO.C,C14*%
X177800000Y-76800000D03*
X176840000Y-76800000D03*
%TD*%
D13*
%TO.C,C7*%
X185140000Y-91100000D03*
X186100000Y-91100000D03*
%TD*%
D24*
%TO.C,R2*%
X170240000Y-87450000D03*
X171260000Y-87450000D03*
%TD*%
D13*
%TO.C,C5*%
X191770000Y-96400000D03*
X192730000Y-96400000D03*
%TD*%
D25*
%TO.C,U2*%
X181000000Y-86000000D03*
X181650000Y-86000000D03*
X182300000Y-86000000D03*
X182950000Y-86000000D03*
X183600000Y-86000000D03*
X184250000Y-86000000D03*
X184900000Y-86000000D03*
X185550000Y-86000000D03*
X186200000Y-86000000D03*
X186850000Y-86000000D03*
X186850000Y-80275000D03*
X186200000Y-80275000D03*
X185550000Y-80275000D03*
X184900000Y-80275000D03*
X184250000Y-80275000D03*
X183600000Y-80275000D03*
X182950000Y-80275000D03*
X182300000Y-80275000D03*
X181650000Y-80275000D03*
X181000000Y-80275000D03*
%TD*%
D14*
%TO.C,J1*%
X200380000Y-87000000D03*
D15*
X197840000Y-87000000D03*
X195300000Y-87000000D03*
%TD*%
D12*
%TO.C,R5*%
X177840000Y-75710000D03*
X177840000Y-74690000D03*
%TD*%
D14*
%TO.C,J3*%
X200300000Y-76800000D03*
D15*
X197760000Y-76800000D03*
X195220000Y-76800000D03*
X192680000Y-76800000D03*
%TD*%
%TO.C,J4*%
X187600000Y-72200000D03*
X190140000Y-72200000D03*
X192680000Y-72200000D03*
X195220000Y-72200000D03*
X197760000Y-72200000D03*
D14*
X200300000Y-72200000D03*
%TD*%
%TO.C,J9*%
X200400000Y-91900000D03*
D15*
X197860000Y-91900000D03*
%TD*%
D13*
%TO.C,C3*%
X191780000Y-94000000D03*
X192740000Y-94000000D03*
%TD*%
D26*
%TO.C,J8*%
X198450000Y-101575000D03*
X198450000Y-96575000D03*
D27*
X197350000Y-100375000D03*
X197350000Y-99725000D03*
X197350000Y-99075000D03*
X197350000Y-98425000D03*
X197350000Y-97775000D03*
D28*
X201200000Y-102950000D03*
D29*
X197400000Y-102800000D03*
X197400000Y-95350000D03*
D28*
X201200000Y-95200000D03*
%TD*%
D13*
%TO.C,C9*%
X190340000Y-85200000D03*
X191300000Y-85200000D03*
%TD*%
%TO.C,C4*%
X191770000Y-95200000D03*
X192730000Y-95200000D03*
%TD*%
D15*
%TO.C,J5*%
X170150000Y-79950000D03*
X170150000Y-77410000D03*
X170150000Y-74870000D03*
D14*
X170150000Y-72330000D03*
%TD*%
%TO.C,J7*%
X183960000Y-72200000D03*
D15*
X181420000Y-72200000D03*
X178880000Y-72200000D03*
X176340000Y-72200000D03*
X173800000Y-72200000D03*
%TD*%
D23*
%TO.C,C13*%
X181400000Y-76800000D03*
X180440000Y-76800000D03*
%TD*%
D30*
%TO.C,C1*%
X186100000Y-101900000D03*
X184200000Y-101900000D03*
%TD*%
D31*
%TO.C,R1*%
X176500000Y-98890000D03*
X176500000Y-99910000D03*
%TD*%
D14*
%TO.C,J2*%
X200380000Y-83350000D03*
D15*
X197840000Y-83350000D03*
X195300000Y-83350000D03*
%TD*%
D32*
%TO.C,C2*%
X180300000Y-95500000D03*
X180300000Y-97400000D03*
%TD*%
D17*
%TO.C,C10*%
X177300000Y-85110000D03*
X177300000Y-84150000D03*
%TD*%
M02*
